<?xml version="1.0" encoding="utf-8"?>
<svg xmlns="http://www.w3.org/2000/svg" version="1.1" width="303" height="303">
<circle cx="119" cy="242" fill="red" stroke="black" stroke-width="1" r="3"/>
<circle cx="149" cy="175" fill="darkblue" stroke="black" stroke-width="1" r="3"/>
<circle cx="171" cy="156" fill="red" stroke="black" stroke-width="1" r="3"/>
<circle cx="230" cy="142" fill="darkblue" stroke="black" stroke-width="1" r="3"/>
<circle cx="114" cy="28" fill="red" stroke="black" stroke-width="1" r="3"/>
<circle cx="32" cy="148" fill="darkblue" stroke="black" stroke-width="1" r="3"/>
<circle cx="187" cy="155" fill="red" stroke="black" stroke-width="1" r="3"/>
<circle cx="137" cy="49" fill="darkblue" stroke="black" stroke-width="1" r="3"/>
<circle cx="150" cy="231" fill="red" stroke="black" stroke-width="1" r="3"/>
<circle cx="28" cy="269" fill="darkblue" stroke="black" stroke-width="1" r="3"/>
<circle cx="218" cy="3" fill="red" stroke="black" stroke-width="1" r="3"/>
<circle cx="246" cy="187" fill="darkblue" stroke="black" stroke-width="1" r="3"/>
<circle cx="97" cy="83" fill="red" stroke="black" stroke-width="1" r="3"/>
<circle cx="238" cy="200" fill="darkblue" stroke="black" stroke-width="1" r="3"/>
<circle cx="171" cy="104" fill="red" stroke="black" stroke-width="1" r="3"/>
<circle cx="78" cy="247" fill="darkblue" stroke="black" stroke-width="1" r="3"/>
<circle cx="127" cy="244" fill="red" stroke="black" stroke-width="1" r="3"/>
<circle cx="65" cy="167" fill="darkblue" stroke="black" stroke-width="1" r="3"/>
<circle cx="69" cy="8" fill="red" stroke="black" stroke-width="1" r="3"/>
<circle cx="171" cy="35" fill="darkblue" stroke="black" stroke-width="1" r="3"/>
<circle cx="26" cy="247" fill="red" stroke="black" stroke-width="1" r="3"/>
<circle cx="166" cy="233" fill="darkblue" stroke="black" stroke-width="1" r="3"/>
<circle cx="136" cy="108" fill="red" stroke="black" stroke-width="1" r="3"/>
<circle cx="142" cy="81" fill="darkblue" stroke="black" stroke-width="1" r="3"/>
<circle cx="131" cy="297" fill="red" stroke="black" stroke-width="1" r="3"/>
<circle cx="22" cy="30" fill="darkblue" stroke="black" stroke-width="1" r="3"/>
<circle cx="195" cy="58" fill="red" stroke="black" stroke-width="1" r="3"/>
<circle cx="73" cy="258" fill="darkblue" stroke="black" stroke-width="1" r="3"/>
<circle cx="98" cy="189" fill="red" stroke="black" stroke-width="1" r="3"/>
<circle cx="115" cy="100" fill="darkblue" stroke="black" stroke-width="1" r="3"/>
<circle cx="201" cy="209" fill="red" stroke="black" stroke-width="1" r="3"/>
<circle cx="173" cy="207" fill="darkblue" stroke="black" stroke-width="1" r="3"/>
<circle cx="179" cy="290" fill="red" stroke="black" stroke-width="1" r="3"/>
<circle cx="51" cy="30" fill="darkblue" stroke="black" stroke-width="1" r="3"/>
<circle cx="49" cy="10" fill="red" stroke="black" stroke-width="1" r="3"/>
<circle cx="109" cy="37" fill="darkblue" stroke="black" stroke-width="1" r="3"/>
<circle cx="285" cy="54" fill="red" stroke="black" stroke-width="1" r="3"/>
<circle cx="217" cy="123" fill="darkblue" stroke="black" stroke-width="1" r="3"/>
<circle cx="103" cy="253" fill="red" stroke="black" stroke-width="1" r="3"/>
<circle cx="137" cy="116" fill="darkblue" stroke="black" stroke-width="1" r="3"/>
<circle cx="165" cy="230" fill="red" stroke="black" stroke-width="1" r="3"/>
<circle cx="183" cy="68" fill="darkblue" stroke="black" stroke-width="1" r="3"/>
<circle cx="41" cy="18" fill="red" stroke="black" stroke-width="1" r="3"/>
<circle cx="211" cy="202" fill="darkblue" stroke="black" stroke-width="1" r="3"/>
<circle cx="58" cy="31" fill="red" stroke="black" stroke-width="1" r="3"/>
<circle cx="53" cy="214" fill="darkblue" stroke="black" stroke-width="1" r="3"/>
<circle cx="117" cy="200" fill="red" stroke="black" stroke-width="1" r="3"/>
<circle cx="253" cy="104" fill="darkblue" stroke="black" stroke-width="1" r="3"/>
<circle cx="136" cy="137" fill="red" stroke="black" stroke-width="1" r="3"/>
<circle cx="185" cy="45" fill="darkblue" stroke="black" stroke-width="1" r="3"/>
<circle cx="172" cy="179" fill="red" stroke="black" stroke-width="1" r="3"/>
<circle cx="200" cy="265" fill="darkblue" stroke="black" stroke-width="1" r="3"/>
<circle cx="269" cy="253" fill="red" stroke="black" stroke-width="1" r="3"/>
<circle cx="261" cy="112" fill="darkblue" stroke="black" stroke-width="1" r="3"/>
<circle cx="231" cy="289" fill="red" stroke="black" stroke-width="1" r="3"/>
<circle cx="13" cy="5" fill="darkblue" stroke="black" stroke-width="1" r="3"/>
<circle cx="145" cy="75" fill="red" stroke="black" stroke-width="1" r="3"/>
<circle cx="181" cy="132" fill="darkblue" stroke="black" stroke-width="1" r="3"/>
<circle cx="117" cy="116" fill="red" stroke="black" stroke-width="1" r="3"/>
<circle cx="114" cy="243" fill="darkblue" stroke="black" stroke-width="1" r="3"/>
<circle cx="8" cy="81" fill="red" stroke="black" stroke-width="1" r="3"/>
<circle cx="163" cy="143" fill="darkblue" stroke="black" stroke-width="1" r="3"/>
<circle cx="81" cy="143" fill="red" stroke="black" stroke-width="1" r="3"/>
<circle cx="22" cy="189" fill="darkblue" stroke="black" stroke-width="1" r="3"/>
<circle cx="218" cy="68" fill="red" stroke="black" stroke-width="1" r="3"/>
<circle cx="70" cy="255" fill="darkblue" stroke="black" stroke-width="1" r="3"/>
<circle cx="127" cy="37" fill="red" stroke="black" stroke-width="1" r="3"/>
<circle cx="196" cy="216" fill="darkblue" stroke="black" stroke-width="1" r="3"/>
<circle cx="300" cy="45" fill="red" stroke="black" stroke-width="1" r="3"/>
<circle cx="76" cy="11" fill="darkblue" stroke="black" stroke-width="1" r="3"/>
<circle cx="278" cy="91" fill="red" stroke="black" stroke-width="1" r="3"/>
<circle cx="149" cy="18" fill="darkblue" stroke="black" stroke-width="1" r="3"/>
<circle cx="247" cy="215" fill="red" stroke="black" stroke-width="1" r="3"/>
<circle cx="10" cy="233" fill="darkblue" stroke="black" stroke-width="1" r="3"/>
<circle cx="236" cy="102" fill="red" stroke="black" stroke-width="1" r="3"/>
<circle cx="21" cy="124" fill="darkblue" stroke="black" stroke-width="1" r="3"/>
<circle cx="280" cy="38" fill="red" stroke="black" stroke-width="1" r="3"/>
<circle cx="75" cy="112" fill="darkblue" stroke="black" stroke-width="1" r="3"/>
<circle cx="36" cy="239" fill="red" stroke="black" stroke-width="1" r="3"/>
<circle cx="281" cy="43" fill="darkblue" stroke="black" stroke-width="1" r="3"/>
<circle cx="62" cy="300" fill="red" stroke="black" stroke-width="1" r="3"/>
<circle cx="288" cy="228" fill="darkblue" stroke="black" stroke-width="1" r="3"/>
<circle cx="221" cy="39" fill="red" stroke="black" stroke-width="1" r="3"/>
<circle cx="245" cy="10" fill="darkblue" stroke="black" stroke-width="1" r="3"/>
<circle cx="159" cy="26" fill="red" stroke="black" stroke-width="1" r="3"/>
<circle cx="32" cy="44" fill="darkblue" stroke="black" stroke-width="1" r="3"/>
<circle cx="263" cy="21" fill="red" stroke="black" stroke-width="1" r="3"/>
<circle cx="163" cy="136" fill="darkblue" stroke="black" stroke-width="1" r="3"/>
<circle cx="298" cy="217" fill="red" stroke="black" stroke-width="1" r="3"/>
<circle cx="254" cy="7" fill="darkblue" stroke="black" stroke-width="1" r="3"/>
<circle cx="227" cy="149" fill="red" stroke="black" stroke-width="1" r="3"/>
<circle cx="165" cy="13" fill="darkblue" stroke="black" stroke-width="1" r="3"/>
<circle cx="255" cy="69" fill="red" stroke="black" stroke-width="1" r="3"/>
<circle cx="267" cy="14" fill="darkblue" stroke="black" stroke-width="1" r="3"/>
<circle cx="41" cy="164" fill="red" stroke="black" stroke-width="1" r="3"/>
<circle cx="72" cy="178" fill="darkblue" stroke="black" stroke-width="1" r="3"/>
<circle cx="13" cy="182" fill="red" stroke="black" stroke-width="1" r="3"/>
<circle cx="200" cy="191" fill="darkblue" stroke="black" stroke-width="1" r="3"/>
<circle cx="131" cy="138" fill="red" stroke="black" stroke-width="1" r="3"/>
<circle cx="88" cy="281" fill="darkblue" stroke="black" stroke-width="1" r="3"/>
</svg>
