<?xml version="1.0" encoding="utf-8"?>
<svg xmlns="http://www.w3.org/2000/svg" version="1.1" width="505" height="505">
<circle cx="70" cy="493" fill="red" stroke="black" stroke-width="1" r="3"/>
<circle cx="5" cy="217" fill="darkblue" stroke="black" stroke-width="1" r="3"/>
<circle cx="485" cy="453" fill="red" stroke="black" stroke-width="1" r="3"/>
<circle cx="444" cy="360" fill="darkblue" stroke="black" stroke-width="1" r="3"/>
<circle cx="311" cy="481" fill="red" stroke="black" stroke-width="1" r="3"/>
<circle cx="305" cy="473" fill="darkblue" stroke="black" stroke-width="1" r="3"/>
<circle cx="425" cy="35" fill="red" stroke="black" stroke-width="1" r="3"/>
<circle cx="152" cy="299" fill="darkblue" stroke="black" stroke-width="1" r="3"/>
<circle cx="423" cy="283" fill="red" stroke="black" stroke-width="1" r="3"/>
<circle cx="353" cy="489" fill="darkblue" stroke="black" stroke-width="1" r="3"/>
<circle cx="37" cy="489" fill="red" stroke="black" stroke-width="1" r="3"/>
<circle cx="200" cy="302" fill="darkblue" stroke="black" stroke-width="1" r="3"/>
<circle cx="137" cy="299" fill="red" stroke="black" stroke-width="1" r="3"/>
<circle cx="221" cy="180" fill="darkblue" stroke="black" stroke-width="1" r="3"/>
<circle cx="169" cy="223" fill="red" stroke="black" stroke-width="1" r="3"/>
<circle cx="12" cy="270" fill="darkblue" stroke="black" stroke-width="1" r="3"/>
<circle cx="248" cy="13" fill="red" stroke="black" stroke-width="1" r="3"/>
<circle cx="292" cy="188" fill="darkblue" stroke="black" stroke-width="1" r="3"/>
<circle cx="138" cy="276" fill="red" stroke="black" stroke-width="1" r="3"/>
<circle cx="436" cy="292" fill="darkblue" stroke="black" stroke-width="1" r="3"/>
<circle cx="153" cy="376" fill="red" stroke="black" stroke-width="1" r="3"/>
<circle cx="379" cy="131" fill="darkblue" stroke="black" stroke-width="1" r="3"/>
<circle cx="234" cy="212" fill="red" stroke="black" stroke-width="1" r="3"/>
<circle cx="247" cy="299" fill="darkblue" stroke="black" stroke-width="1" r="3"/>
<circle cx="69" cy="30" fill="red" stroke="black" stroke-width="1" r="3"/>
<circle cx="372" cy="456" fill="darkblue" stroke="black" stroke-width="1" r="3"/>
<circle cx="431" cy="101" fill="red" stroke="black" stroke-width="1" r="3"/>
<circle cx="59" cy="161" fill="darkblue" stroke="black" stroke-width="1" r="3"/>
<circle cx="97" cy="341" fill="red" stroke="black" stroke-width="1" r="3"/>
<circle cx="395" cy="252" fill="darkblue" stroke="black" stroke-width="1" r="3"/>
<circle cx="296" cy="133" fill="red" stroke="black" stroke-width="1" r="3"/>
<circle cx="342" cy="258" fill="darkblue" stroke="black" stroke-width="1" r="3"/>
<circle cx="459" cy="115" fill="red" stroke="black" stroke-width="1" r="3"/>
<circle cx="358" cy="141" fill="darkblue" stroke="black" stroke-width="1" r="3"/>
<circle cx="355" cy="137" fill="red" stroke="black" stroke-width="1" r="3"/>
<circle cx="288" cy="417" fill="darkblue" stroke="black" stroke-width="1" r="3"/>
<circle cx="272" cy="476" fill="red" stroke="black" stroke-width="1" r="3"/>
<circle cx="422" cy="415" fill="darkblue" stroke="black" stroke-width="1" r="3"/>
<circle cx="53" cy="144" fill="red" stroke="black" stroke-width="1" r="3"/>
<circle cx="44" cy="360" fill="darkblue" stroke="black" stroke-width="1" r="3"/>
<circle cx="12" cy="496" fill="red" stroke="black" stroke-width="1" r="3"/>
<circle cx="458" cy="435" fill="darkblue" stroke="black" stroke-width="1" r="3"/>
<circle cx="483" cy="403" fill="red" stroke="black" stroke-width="1" r="3"/>
<circle cx="464" cy="182" fill="darkblue" stroke="black" stroke-width="1" r="3"/>
<circle cx="384" cy="418" fill="red" stroke="black" stroke-width="1" r="3"/>
<circle cx="499" cy="214" fill="darkblue" stroke="black" stroke-width="1" r="3"/>
<circle cx="415" cy="126" fill="red" stroke="black" stroke-width="1" r="3"/>
<circle cx="394" cy="399" fill="darkblue" stroke="black" stroke-width="1" r="3"/>
<circle cx="91" cy="369" fill="red" stroke="black" stroke-width="1" r="3"/>
<circle cx="9" cy="461" fill="darkblue" stroke="black" stroke-width="1" r="3"/>
<circle cx="121" cy="143" fill="red" stroke="black" stroke-width="1" r="3"/>
<circle cx="247" cy="50" fill="darkblue" stroke="black" stroke-width="1" r="3"/>
<circle cx="25" cy="441" fill="red" stroke="black" stroke-width="1" r="3"/>
<circle cx="379" cy="273" fill="darkblue" stroke="black" stroke-width="1" r="3"/>
<circle cx="324" cy="246" fill="red" stroke="black" stroke-width="1" r="3"/>
<circle cx="455" cy="281" fill="darkblue" stroke="black" stroke-width="1" r="3"/>
<circle cx="135" cy="271" fill="red" stroke="black" stroke-width="1" r="3"/>
<circle cx="310" cy="380" fill="darkblue" stroke="black" stroke-width="1" r="3"/>
<circle cx="104" cy="227" fill="red" stroke="black" stroke-width="1" r="3"/>
<circle cx="294" cy="472" fill="darkblue" stroke="black" stroke-width="1" r="3"/>
<circle cx="198" cy="240" fill="red" stroke="black" stroke-width="1" r="3"/>
<circle cx="111" cy="103" fill="darkblue" stroke="black" stroke-width="1" r="3"/>
<circle cx="383" cy="405" fill="red" stroke="black" stroke-width="1" r="3"/>
<circle cx="121" cy="340" fill="darkblue" stroke="black" stroke-width="1" r="3"/>
<circle cx="189" cy="14" fill="red" stroke="black" stroke-width="1" r="3"/>
<circle cx="494" cy="20" fill="darkblue" stroke="black" stroke-width="1" r="3"/>
<circle cx="68" cy="486" fill="red" stroke="black" stroke-width="1" r="3"/>
<circle cx="187" cy="451" fill="darkblue" stroke="black" stroke-width="1" r="3"/>
<circle cx="176" cy="437" fill="red" stroke="black" stroke-width="1" r="3"/>
<circle cx="163" cy="396" fill="darkblue" stroke="black" stroke-width="1" r="3"/>
<circle cx="387" cy="411" fill="red" stroke="black" stroke-width="1" r="3"/>
<circle cx="316" cy="293" fill="darkblue" stroke="black" stroke-width="1" r="3"/>
<circle cx="228" cy="10" fill="red" stroke="black" stroke-width="1" r="3"/>
<circle cx="337" cy="105" fill="darkblue" stroke="black" stroke-width="1" r="3"/>
<circle cx="311" cy="252" fill="red" stroke="black" stroke-width="1" r="3"/>
<circle cx="220" cy="476" fill="darkblue" stroke="black" stroke-width="1" r="3"/>
<circle cx="3" cy="116" fill="red" stroke="black" stroke-width="1" r="3"/>
<circle cx="262" cy="290" fill="darkblue" stroke="black" stroke-width="1" r="3"/>
<circle cx="356" cy="343" fill="red" stroke="black" stroke-width="1" r="3"/>
<circle cx="333" cy="98" fill="darkblue" stroke="black" stroke-width="1" r="3"/>
<circle cx="11" cy="152" fill="red" stroke="black" stroke-width="1" r="3"/>
<circle cx="23" cy="177" fill="darkblue" stroke="black" stroke-width="1" r="3"/>
<circle cx="159" cy="31" fill="red" stroke="black" stroke-width="1" r="3"/>
<circle cx="151" cy="16" fill="darkblue" stroke="black" stroke-width="1" r="3"/>
<circle cx="254" cy="360" fill="red" stroke="black" stroke-width="1" r="3"/>
<circle cx="320" cy="250" fill="darkblue" stroke="black" stroke-width="1" r="3"/>
<circle cx="260" cy="445" fill="red" stroke="black" stroke-width="1" r="3"/>
<circle cx="241" cy="170" fill="darkblue" stroke="black" stroke-width="1" r="3"/>
<circle cx="427" cy="357" fill="red" stroke="black" stroke-width="1" r="3"/>
<circle cx="361" cy="202" fill="darkblue" stroke="black" stroke-width="1" r="3"/>
<circle cx="23" cy="99" fill="red" stroke="black" stroke-width="1" r="3"/>
<circle cx="447" cy="247" fill="darkblue" stroke="black" stroke-width="1" r="3"/>
<circle cx="172" cy="258" fill="red" stroke="black" stroke-width="1" r="3"/>
<circle cx="83" cy="208" fill="darkblue" stroke="black" stroke-width="1" r="3"/>
<circle cx="264" cy="486" fill="red" stroke="black" stroke-width="1" r="3"/>
<circle cx="244" cy="282" fill="darkblue" stroke="black" stroke-width="1" r="3"/>
<circle cx="162" cy="49" fill="red" stroke="black" stroke-width="1" r="3"/>
<circle cx="240" cy="92" fill="darkblue" stroke="black" stroke-width="1" r="3"/>
<circle cx="324" cy="25" fill="red" stroke="black" stroke-width="1" r="3"/>
<circle cx="254" cy="60" fill="darkblue" stroke="black" stroke-width="1" r="3"/>
<circle cx="9" cy="47" fill="red" stroke="black" stroke-width="1" r="3"/>
<circle cx="242" cy="335" fill="darkblue" stroke="black" stroke-width="1" r="3"/>
<circle cx="163" cy="21" fill="red" stroke="black" stroke-width="1" r="3"/>
<circle cx="231" cy="55" fill="darkblue" stroke="black" stroke-width="1" r="3"/>
<circle cx="89" cy="263" fill="red" stroke="black" stroke-width="1" r="3"/>
<circle cx="229" cy="316" fill="darkblue" stroke="black" stroke-width="1" r="3"/>
<circle cx="350" cy="186" fill="red" stroke="black" stroke-width="1" r="3"/>
<circle cx="498" cy="283" fill="darkblue" stroke="black" stroke-width="1" r="3"/>
<circle cx="331" cy="214" fill="red" stroke="black" stroke-width="1" r="3"/>
<circle cx="391" cy="110" fill="darkblue" stroke="black" stroke-width="1" r="3"/>
<circle cx="288" cy="413" fill="red" stroke="black" stroke-width="1" r="3"/>
<circle cx="192" cy="8" fill="darkblue" stroke="black" stroke-width="1" r="3"/>
<circle cx="294" cy="170" fill="red" stroke="black" stroke-width="1" r="3"/>
<circle cx="76" cy="67" fill="darkblue" stroke="black" stroke-width="1" r="3"/>
<circle cx="338" cy="484" fill="red" stroke="black" stroke-width="1" r="3"/>
<circle cx="124" cy="245" fill="darkblue" stroke="black" stroke-width="1" r="3"/>
<circle cx="115" cy="426" fill="red" stroke="black" stroke-width="1" r="3"/>
<circle cx="220" cy="427" fill="darkblue" stroke="black" stroke-width="1" r="3"/>
<circle cx="313" cy="72" fill="red" stroke="black" stroke-width="1" r="3"/>
<circle cx="81" cy="218" fill="darkblue" stroke="black" stroke-width="1" r="3"/>
<circle cx="37" cy="438" fill="red" stroke="black" stroke-width="1" r="3"/>
<circle cx="141" cy="46" fill="darkblue" stroke="black" stroke-width="1" r="3"/>
<circle cx="371" cy="67" fill="red" stroke="black" stroke-width="1" r="3"/>
<circle cx="336" cy="162" fill="darkblue" stroke="black" stroke-width="1" r="3"/>
<circle cx="50" cy="98" fill="red" stroke="black" stroke-width="1" r="3"/>
<circle cx="414" cy="21" fill="darkblue" stroke="black" stroke-width="1" r="3"/>
<circle cx="159" cy="69" fill="red" stroke="black" stroke-width="1" r="3"/>
<circle cx="229" cy="404" fill="darkblue" stroke="black" stroke-width="1" r="3"/>
<circle cx="27" cy="81" fill="red" stroke="black" stroke-width="1" r="3"/>
<circle cx="465" cy="85" fill="darkblue" stroke="black" stroke-width="1" r="3"/>
<circle cx="230" cy="470" fill="red" stroke="black" stroke-width="1" r="3"/>
<circle cx="188" cy="27" fill="darkblue" stroke="black" stroke-width="1" r="3"/>
<circle cx="103" cy="385" fill="red" stroke="black" stroke-width="1" r="3"/>
<circle cx="273" cy="102" fill="darkblue" stroke="black" stroke-width="1" r="3"/>
<circle cx="46" cy="213" fill="red" stroke="black" stroke-width="1" r="3"/>
<circle cx="303" cy="17" fill="darkblue" stroke="black" stroke-width="1" r="3"/>
<circle cx="442" cy="235" fill="red" stroke="black" stroke-width="1" r="3"/>
<circle cx="467" cy="70" fill="darkblue" stroke="black" stroke-width="1" r="3"/>
<circle cx="251" cy="92" fill="red" stroke="black" stroke-width="1" r="3"/>
<circle cx="486" cy="200" fill="darkblue" stroke="black" stroke-width="1" r="3"/>
<circle cx="478" cy="35" fill="red" stroke="black" stroke-width="1" r="3"/>
<circle cx="160" cy="179" fill="darkblue" stroke="black" stroke-width="1" r="3"/>
<circle cx="357" cy="120" fill="red" stroke="black" stroke-width="1" r="3"/>
<circle cx="55" cy="315" fill="darkblue" stroke="black" stroke-width="1" r="3"/>
<circle cx="31" cy="111" fill="red" stroke="black" stroke-width="1" r="3"/>
<circle cx="275" cy="295" fill="darkblue" stroke="black" stroke-width="1" r="3"/>
<circle cx="315" cy="402" fill="red" stroke="black" stroke-width="1" r="3"/>
<circle cx="72" cy="496" fill="darkblue" stroke="black" stroke-width="1" r="3"/>
<circle cx="276" cy="125" fill="red" stroke="black" stroke-width="1" r="3"/>
<circle cx="329" cy="234" fill="darkblue" stroke="black" stroke-width="1" r="3"/>
<circle cx="408" cy="260" fill="red" stroke="black" stroke-width="1" r="3"/>
<circle cx="492" cy="213" fill="darkblue" stroke="black" stroke-width="1" r="3"/>
<circle cx="272" cy="308" fill="red" stroke="black" stroke-width="1" r="3"/>
<circle cx="223" cy="144" fill="darkblue" stroke="black" stroke-width="1" r="3"/>
<circle cx="252" cy="142" fill="red" stroke="black" stroke-width="1" r="3"/>
<circle cx="407" cy="230" fill="darkblue" stroke="black" stroke-width="1" r="3"/>
<circle cx="285" cy="356" fill="red" stroke="black" stroke-width="1" r="3"/>
<circle cx="162" cy="54" fill="darkblue" stroke="black" stroke-width="1" r="3"/>
<circle cx="149" cy="327" fill="red" stroke="black" stroke-width="1" r="3"/>
<circle cx="449" cy="98" fill="darkblue" stroke="black" stroke-width="1" r="3"/>
<circle cx="6" cy="24" fill="red" stroke="black" stroke-width="1" r="3"/>
<circle cx="72" cy="231" fill="darkblue" stroke="black" stroke-width="1" r="3"/>
<circle cx="347" cy="252" fill="red" stroke="black" stroke-width="1" r="3"/>
<circle cx="183" cy="336" fill="darkblue" stroke="black" stroke-width="1" r="3"/>
<circle cx="205" cy="251" fill="red" stroke="black" stroke-width="1" r="3"/>
<circle cx="309" cy="401" fill="darkblue" stroke="black" stroke-width="1" r="3"/>
<circle cx="191" cy="330" fill="red" stroke="black" stroke-width="1" r="3"/>
<circle cx="219" cy="198" fill="darkblue" stroke="black" stroke-width="1" r="3"/>
<circle cx="66" cy="18" fill="red" stroke="black" stroke-width="1" r="3"/>
<circle cx="339" cy="211" fill="darkblue" stroke="black" stroke-width="1" r="3"/>
<circle cx="418" cy="371" fill="red" stroke="black" stroke-width="1" r="3"/>
<circle cx="298" cy="342" fill="darkblue" stroke="black" stroke-width="1" r="3"/>
<circle cx="148" cy="498" fill="red" stroke="black" stroke-width="1" r="3"/>
<circle cx="409" cy="408" fill="darkblue" stroke="black" stroke-width="1" r="3"/>
<circle cx="150" cy="261" fill="red" stroke="black" stroke-width="1" r="3"/>
<circle cx="303" cy="260" fill="darkblue" stroke="black" stroke-width="1" r="3"/>
<circle cx="99" cy="130" fill="red" stroke="black" stroke-width="1" r="3"/>
<circle cx="253" cy="334" fill="darkblue" stroke="black" stroke-width="1" r="3"/>
<circle cx="245" cy="109" fill="red" stroke="black" stroke-width="1" r="3"/>
<circle cx="31" cy="200" fill="darkblue" stroke="black" stroke-width="1" r="3"/>
<circle cx="160" cy="288" fill="red" stroke="black" stroke-width="1" r="3"/>
<circle cx="441" cy="336" fill="darkblue" stroke="black" stroke-width="1" r="3"/>
<circle cx="185" cy="210" fill="red" stroke="black" stroke-width="1" r="3"/>
<circle cx="474" cy="390" fill="darkblue" stroke="black" stroke-width="1" r="3"/>
<circle cx="157" cy="72" fill="red" stroke="black" stroke-width="1" r="3"/>
<circle cx="392" cy="171" fill="darkblue" stroke="black" stroke-width="1" r="3"/>
<circle cx="57" cy="396" fill="red" stroke="black" stroke-width="1" r="3"/>
<circle cx="472" cy="426" fill="darkblue" stroke="black" stroke-width="1" r="3"/>
<circle cx="54" cy="103" fill="red" stroke="black" stroke-width="1" r="3"/>
<circle cx="30" cy="145" fill="darkblue" stroke="black" stroke-width="1" r="3"/>
<circle cx="351" cy="158" fill="red" stroke="black" stroke-width="1" r="3"/>
<circle cx="321" cy="449" fill="darkblue" stroke="black" stroke-width="1" r="3"/>
<circle cx="440" cy="488" fill="red" stroke="black" stroke-width="1" r="3"/>
<circle cx="257" cy="136" fill="darkblue" stroke="black" stroke-width="1" r="3"/>
<circle cx="390" cy="441" fill="red" stroke="black" stroke-width="1" r="3"/>
<circle cx="29" cy="401" fill="darkblue" stroke="black" stroke-width="1" r="3"/>
<circle cx="163" cy="361" fill="red" stroke="black" stroke-width="1" r="3"/>
<circle cx="365" cy="187" fill="darkblue" stroke="black" stroke-width="1" r="3"/>
<circle cx="326" cy="502" fill="red" stroke="black" stroke-width="1" r="3"/>
<circle cx="24" cy="159" fill="darkblue" stroke="black" stroke-width="1" r="3"/>
<circle cx="402" cy="323" fill="red" stroke="black" stroke-width="1" r="3"/>
<circle cx="219" cy="9" fill="darkblue" stroke="black" stroke-width="1" r="3"/>
<circle cx="478" cy="194" fill="red" stroke="black" stroke-width="1" r="3"/>
<circle cx="40" cy="178" fill="darkblue" stroke="black" stroke-width="1" r="3"/>
<circle cx="116" cy="107" fill="red" stroke="black" stroke-width="1" r="3"/>
<circle cx="44" cy="461" fill="darkblue" stroke="black" stroke-width="1" r="3"/>
<circle cx="119" cy="311" fill="red" stroke="black" stroke-width="1" r="3"/>
<circle cx="44" cy="48" fill="darkblue" stroke="black" stroke-width="1" r="3"/>
<circle cx="111" cy="187" fill="red" stroke="black" stroke-width="1" r="3"/>
<circle cx="403" cy="78" fill="darkblue" stroke="black" stroke-width="1" r="3"/>
<circle cx="475" cy="292" fill="red" stroke="black" stroke-width="1" r="3"/>
<circle cx="120" cy="91" fill="darkblue" stroke="black" stroke-width="1" r="3"/>
<circle cx="62" cy="471" fill="red" stroke="black" stroke-width="1" r="3"/>
<circle cx="223" cy="396" fill="darkblue" stroke="black" stroke-width="1" r="3"/>
<circle cx="12" cy="333" fill="red" stroke="black" stroke-width="1" r="3"/>
<circle cx="382" cy="113" fill="darkblue" stroke="black" stroke-width="1" r="3"/>
<circle cx="415" cy="156" fill="red" stroke="black" stroke-width="1" r="3"/>
<circle cx="109" cy="299" fill="darkblue" stroke="black" stroke-width="1" r="3"/>
<circle cx="402" cy="59" fill="red" stroke="black" stroke-width="1" r="3"/>
<circle cx="4" cy="408" fill="darkblue" stroke="black" stroke-width="1" r="3"/>
<circle cx="179" cy="288" fill="red" stroke="black" stroke-width="1" r="3"/>
<circle cx="92" cy="47" fill="darkblue" stroke="black" stroke-width="1" r="3"/>
<circle cx="228" cy="473" fill="red" stroke="black" stroke-width="1" r="3"/>
<circle cx="80" cy="25" fill="darkblue" stroke="black" stroke-width="1" r="3"/>
<circle cx="387" cy="328" fill="red" stroke="black" stroke-width="1" r="3"/>
<circle cx="358" cy="38" fill="darkblue" stroke="black" stroke-width="1" r="3"/>
<circle cx="117" cy="436" fill="red" stroke="black" stroke-width="1" r="3"/>
<circle cx="226" cy="294" fill="darkblue" stroke="black" stroke-width="1" r="3"/>
<circle cx="417" cy="421" fill="red" stroke="black" stroke-width="1" r="3"/>
<circle cx="224" cy="125" fill="darkblue" stroke="black" stroke-width="1" r="3"/>
<circle cx="165" cy="184" fill="red" stroke="black" stroke-width="1" r="3"/>
<circle cx="291" cy="82" fill="darkblue" stroke="black" stroke-width="1" r="3"/>
<circle cx="185" cy="344" fill="red" stroke="black" stroke-width="1" r="3"/>
<circle cx="324" cy="260" fill="darkblue" stroke="black" stroke-width="1" r="3"/>
<circle cx="273" cy="88" fill="red" stroke="black" stroke-width="1" r="3"/>
<circle cx="407" cy="288" fill="darkblue" stroke="black" stroke-width="1" r="3"/>
<circle cx="180" cy="442" fill="red" stroke="black" stroke-width="1" r="3"/>
<circle cx="259" cy="93" fill="darkblue" stroke="black" stroke-width="1" r="3"/>
<circle cx="116" cy="53" fill="red" stroke="black" stroke-width="1" r="3"/>
<circle cx="278" cy="98" fill="darkblue" stroke="black" stroke-width="1" r="3"/>
<circle cx="205" cy="485" fill="red" stroke="black" stroke-width="1" r="3"/>
<circle cx="209" cy="27" fill="darkblue" stroke="black" stroke-width="1" r="3"/>
<circle cx="87" cy="289" fill="red" stroke="black" stroke-width="1" r="3"/>
<circle cx="493" cy="286" fill="darkblue" stroke="black" stroke-width="1" r="3"/>
<circle cx="13" cy="298" fill="red" stroke="black" stroke-width="1" r="3"/>
<circle cx="140" cy="414" fill="darkblue" stroke="black" stroke-width="1" r="3"/>
<circle cx="447" cy="121" fill="red" stroke="black" stroke-width="1" r="3"/>
<circle cx="59" cy="312" fill="darkblue" stroke="black" stroke-width="1" r="3"/>
<circle cx="334" cy="317" fill="red" stroke="black" stroke-width="1" r="3"/>
<circle cx="430" cy="65" fill="darkblue" stroke="black" stroke-width="1" r="3"/>
<circle cx="386" cy="4" fill="red" stroke="black" stroke-width="1" r="3"/>
<circle cx="73" cy="227" fill="darkblue" stroke="black" stroke-width="1" r="3"/>
<circle cx="329" cy="208" fill="red" stroke="black" stroke-width="1" r="3"/>
<circle cx="169" cy="129" fill="darkblue" stroke="black" stroke-width="1" r="3"/>
<circle cx="260" cy="233" fill="red" stroke="black" stroke-width="1" r="3"/>
<circle cx="153" cy="248" fill="darkblue" stroke="black" stroke-width="1" r="3"/>
<circle cx="412" cy="473" fill="red" stroke="black" stroke-width="1" r="3"/>
<circle cx="135" cy="389" fill="darkblue" stroke="black" stroke-width="1" r="3"/>
<circle cx="295" cy="199" fill="red" stroke="black" stroke-width="1" r="3"/>
<circle cx="327" cy="384" fill="darkblue" stroke="black" stroke-width="1" r="3"/>
<circle cx="301" cy="424" fill="red" stroke="black" stroke-width="1" r="3"/>
<circle cx="336" cy="124" fill="darkblue" stroke="black" stroke-width="1" r="3"/>
<circle cx="81" cy="459" fill="red" stroke="black" stroke-width="1" r="3"/>
<circle cx="166" cy="293" fill="darkblue" stroke="black" stroke-width="1" r="3"/>
<circle cx="465" cy="408" fill="red" stroke="black" stroke-width="1" r="3"/>
<circle cx="131" cy="376" fill="darkblue" stroke="black" stroke-width="1" r="3"/>
<circle cx="445" cy="233" fill="red" stroke="black" stroke-width="1" r="3"/>
<circle cx="371" cy="43" fill="darkblue" stroke="black" stroke-width="1" r="3"/>
<circle cx="449" cy="462" fill="red" stroke="black" stroke-width="1" r="3"/>
<circle cx="397" cy="234" fill="darkblue" stroke="black" stroke-width="1" r="3"/>
<circle cx="114" cy="336" fill="red" stroke="black" stroke-width="1" r="3"/>
<circle cx="110" cy="418" fill="darkblue" stroke="black" stroke-width="1" r="3"/>
<circle cx="436" cy="57" fill="red" stroke="black" stroke-width="1" r="3"/>
<circle cx="171" cy="201" fill="darkblue" stroke="black" stroke-width="1" r="3"/>
<circle cx="473" cy="333" fill="red" stroke="black" stroke-width="1" r="3"/>
<circle cx="404" cy="368" fill="darkblue" stroke="black" stroke-width="1" r="3"/>
<circle cx="380" cy="151" fill="red" stroke="black" stroke-width="1" r="3"/>
<circle cx="160" cy="47" fill="darkblue" stroke="black" stroke-width="1" r="3"/>
<circle cx="194" cy="17" fill="red" stroke="black" stroke-width="1" r="3"/>
<circle cx="396" cy="150" fill="darkblue" stroke="black" stroke-width="1" r="3"/>
<circle cx="197" cy="327" fill="red" stroke="black" stroke-width="1" r="3"/>
<circle cx="86" cy="475" fill="darkblue" stroke="black" stroke-width="1" r="3"/>
<circle cx="319" cy="162" fill="red" stroke="black" stroke-width="1" r="3"/>
<circle cx="374" cy="81" fill="darkblue" stroke="black" stroke-width="1" r="3"/>
<circle cx="196" cy="29" fill="red" stroke="black" stroke-width="1" r="3"/>
<circle cx="394" cy="225" fill="darkblue" stroke="black" stroke-width="1" r="3"/>
<circle cx="150" cy="242" fill="red" stroke="black" stroke-width="1" r="3"/>
<circle cx="265" cy="42" fill="darkblue" stroke="black" stroke-width="1" r="3"/>
<circle cx="485" cy="151" fill="red" stroke="black" stroke-width="1" r="3"/>
<circle cx="176" cy="69" fill="darkblue" stroke="black" stroke-width="1" r="3"/>
<circle cx="472" cy="233" fill="red" stroke="black" stroke-width="1" r="3"/>
<circle cx="58" cy="277" fill="darkblue" stroke="black" stroke-width="1" r="3"/>
<circle cx="414" cy="388" fill="red" stroke="black" stroke-width="1" r="3"/>
<circle cx="51" cy="130" fill="darkblue" stroke="black" stroke-width="1" r="3"/>
<circle cx="457" cy="275" fill="red" stroke="black" stroke-width="1" r="3"/>
<circle cx="208" cy="291" fill="darkblue" stroke="black" stroke-width="1" r="3"/>
<circle cx="24" cy="377" fill="red" stroke="black" stroke-width="1" r="3"/>
<circle cx="452" cy="283" fill="darkblue" stroke="black" stroke-width="1" r="3"/>
<circle cx="28" cy="332" fill="red" stroke="black" stroke-width="1" r="3"/>
<circle cx="429" cy="273" fill="darkblue" stroke="black" stroke-width="1" r="3"/>
</svg>
