<?xml version="1.0" encoding="utf-8"?>
<svg xmlns="http://www.w3.org/2000/svg" version="1.1" width="255" height="255">
<circle cx="32" cy="57" fill="red" stroke="black" stroke-width="1" r="3"/>
<circle cx="218" cy="86" fill="darkblue" stroke="black" stroke-width="1" r="3"/>
<circle cx="168" cy="82" fill="red" stroke="black" stroke-width="1" r="3"/>
<circle cx="234" cy="199" fill="darkblue" stroke="black" stroke-width="1" r="3"/>
<circle cx="203" cy="56" fill="red" stroke="black" stroke-width="1" r="3"/>
<circle cx="124" cy="216" fill="darkblue" stroke="black" stroke-width="1" r="3"/>
<circle cx="168" cy="161" fill="red" stroke="black" stroke-width="1" r="3"/>
<circle cx="137" cy="34" fill="darkblue" stroke="black" stroke-width="1" r="3"/>
<circle cx="227" cy="101" fill="red" stroke="black" stroke-width="1" r="3"/>
<circle cx="31" cy="118" fill="darkblue" stroke="black" stroke-width="1" r="3"/>
<circle cx="113" cy="249" fill="red" stroke="black" stroke-width="1" r="3"/>
<circle cx="73" cy="242" fill="darkblue" stroke="black" stroke-width="1" r="3"/>
<circle cx="178" cy="184" fill="red" stroke="black" stroke-width="1" r="3"/>
<circle cx="178" cy="60" fill="darkblue" stroke="black" stroke-width="1" r="3"/>
<circle cx="250" cy="208" fill="red" stroke="black" stroke-width="1" r="3"/>
<circle cx="56" cy="87" fill="darkblue" stroke="black" stroke-width="1" r="3"/>
<circle cx="172" cy="129" fill="red" stroke="black" stroke-width="1" r="3"/>
<circle cx="58" cy="134" fill="darkblue" stroke="black" stroke-width="1" r="3"/>
<circle cx="100" cy="159" fill="red" stroke="black" stroke-width="1" r="3"/>
<circle cx="9" cy="205" fill="darkblue" stroke="black" stroke-width="1" r="3"/>
<circle cx="164" cy="231" fill="red" stroke="black" stroke-width="1" r="3"/>
<circle cx="149" cy="147" fill="darkblue" stroke="black" stroke-width="1" r="3"/>
<circle cx="56" cy="124" fill="red" stroke="black" stroke-width="1" r="3"/>
<circle cx="252" cy="64" fill="darkblue" stroke="black" stroke-width="1" r="3"/>
<circle cx="141" cy="152" fill="red" stroke="black" stroke-width="1" r="3"/>
<circle cx="50" cy="132" fill="darkblue" stroke="black" stroke-width="1" r="3"/>
<circle cx="126" cy="199" fill="red" stroke="black" stroke-width="1" r="3"/>
<circle cx="175" cy="20" fill="darkblue" stroke="black" stroke-width="1" r="3"/>
<circle cx="25" cy="92" fill="red" stroke="black" stroke-width="1" r="3"/>
<circle cx="251" cy="200" fill="darkblue" stroke="black" stroke-width="1" r="3"/>
<circle cx="228" cy="231" fill="red" stroke="black" stroke-width="1" r="3"/>
<circle cx="141" cy="34" fill="darkblue" stroke="black" stroke-width="1" r="3"/>
<circle cx="5" cy="178" fill="red" stroke="black" stroke-width="1" r="3"/>
<circle cx="192" cy="129" fill="darkblue" stroke="black" stroke-width="1" r="3"/>
<circle cx="63" cy="34" fill="red" stroke="black" stroke-width="1" r="3"/>
<circle cx="12" cy="222" fill="darkblue" stroke="black" stroke-width="1" r="3"/>
<circle cx="141" cy="48" fill="red" stroke="black" stroke-width="1" r="3"/>
<circle cx="109" cy="171" fill="darkblue" stroke="black" stroke-width="1" r="3"/>
<circle cx="156" cy="114" fill="red" stroke="black" stroke-width="1" r="3"/>
<circle cx="112" cy="252" fill="darkblue" stroke="black" stroke-width="1" r="3"/>
<circle cx="124" cy="177" fill="red" stroke="black" stroke-width="1" r="3"/>
<circle cx="81" cy="240" fill="darkblue" stroke="black" stroke-width="1" r="3"/>
<circle cx="81" cy="203" fill="red" stroke="black" stroke-width="1" r="3"/>
<circle cx="33" cy="35" fill="darkblue" stroke="black" stroke-width="1" r="3"/>
<circle cx="96" cy="44" fill="red" stroke="black" stroke-width="1" r="3"/>
<circle cx="51" cy="22" fill="darkblue" stroke="black" stroke-width="1" r="3"/>
<circle cx="139" cy="188" fill="red" stroke="black" stroke-width="1" r="3"/>
<circle cx="30" cy="93" fill="darkblue" stroke="black" stroke-width="1" r="3"/>
<circle cx="57" cy="136" fill="red" stroke="black" stroke-width="1" r="3"/>
<circle cx="140" cy="223" fill="darkblue" stroke="black" stroke-width="1" r="3"/>
</svg>
