<?xml version="1.0" encoding="UTF-8"?>
<!DOCTYPE svg PUBLIC "-//W3C//DTD SVG 1.1//EN" "http://www.w3.org/Graphics/SVG/1.1/DTD/svg11.dtd">
<svg xmlns="http://www.w3.org/2000/svg" version="1.1" width="500px" height="500px" style="shape-rendering:geometricPrecision; text-rendering:geometricPrecision; image-rendering:optimizeQuality; fill-rule:evenodd; clip-rule:evenodd" xmlns:xlink="http://www.w3.org/1999/xlink">
<g><path style="opacity:0.996" fill="#566cef" d="M 227.5,-0.5 C 235.167,-0.5 242.833,-0.5 250.5,-0.5C 216.368,34.132 182.035,68.632 147.5,103C 148.167,103.667 148.833,104.333 149.5,105C 149.989,106.552 149.322,107.719 147.5,108.5C 137.973,108.148 129.14,108.148 121,108.5C 118.205,110.293 115.705,112.46 113.5,115C 114.167,115.667 114.833,116.333 115.5,117C 112.834,118.48 110.001,119.647 107,120.5C 103.2,120.094 99.8668,120.094 97,120.5C 94.6667,119.5 92.3333,118.5 90,117.5C 86.6234,117.898 83.1234,118.898 79.5,120.5C 77.5954,120.407 75.7621,120.074 74,119.5C 72.9153,121.657 71.7487,121.824 70.5,120C 71.6667,118.833 72.8333,117.667 74,116.5C 74.6667,117.167 75.3333,117.833 76,118.5C 80.5627,113.778 85.0627,109.945 89.5,107C 88.7417,105.636 89.2417,104.469 91,103.5C 92.3639,104.258 93.5305,103.758 94.5,102C 93.3463,101.086 93.513,100.253 95,99.5C 96.3639,100.258 97.5305,99.7583 98.5,98C 97.3463,97.0862 97.513,96.2529 99,95.5C 100.364,96.2583 101.531,95.7583 102.5,94C 101.346,93.0862 101.513,92.2529 103,91.5C 104.364,92.2583 105.531,91.7583 106.5,90C 105.346,89.0862 105.513,88.2529 107,87.5C 108.364,88.2583 109.531,87.7583 110.5,86C 109.346,85.0862 109.513,84.2529 111,83.5C 112.364,84.2583 113.531,83.7583 114.5,82C 113.346,81.0862 113.513,80.2529 115,79.5C 116.364,80.2583 117.531,79.7583 118.5,78C 117.346,77.0862 117.513,76.2529 119,75.5C 120.364,76.2583 121.531,75.7583 122.5,74C 121.346,73.0862 121.513,72.2529 123,71.5C 124.364,72.2583 125.531,71.7583 126.5,70C 125.346,69.0862 125.513,68.2529 127,67.5C 128.364,68.2583 129.531,67.7583 130.5,66C 129.346,65.0862 129.513,64.2529 131,63.5C 132.364,64.2583 133.531,63.7583 134.5,62C 133.346,61.0862 133.513,60.2529 135,59.5C 136.364,60.2583 137.531,59.7583 138.5,58C 137.346,57.0862 137.513,56.2529 139,55.5C 140.364,56.2583 141.531,55.7583 142.5,54C 141.346,53.0862 141.513,52.2529 143,51.5C 144.364,52.2583 145.531,51.7583 146.5,50C 145.346,49.0862 145.513,48.2529 147,47.5C 148.364,48.2583 149.531,47.7583 150.5,46C 149.346,45.0862 149.513,44.2529 151,43.5C 152.364,44.2583 153.531,43.7583 154.5,42C 153.346,41.0862 153.513,40.2529 155,39.5C 156.364,40.2583 157.531,39.7583 158.5,38C 157.346,37.0862 157.513,36.2529 159,35.5C 160.364,36.2583 161.531,35.7583 162.5,34C 161.346,33.0862 161.513,32.2529 163,31.5C 164.364,32.2583 165.531,31.7583 166.5,30C 165.346,29.0862 165.513,28.2529 167,27.5C 168.364,28.2583 169.531,27.7583 170.5,26C 169.346,25.0862 169.513,24.2529 171,23.5C 172.364,24.2583 173.531,23.7583 174.5,22C 173.346,21.0862 173.513,20.2529 175,19.5C 176.364,20.2583 177.531,19.7583 178.5,18C 177.346,17.0862 177.513,16.2529 179,15.5C 180.364,16.2583 181.531,15.7583 182.5,14C 181.346,13.0862 181.513,12.2529 183,11.5C 183.333,11.8333 183.667,12.1667 184,12.5C 186.04,10.6298 187.873,8.62976 189.5,6.5C 202.126,3.41452 214.792,1.08118 227.5,-0.5 Z"/></g>
<g><path style="opacity:0.999" fill="#646fef" d="M 250.5,-0.5 C 257.5,-0.5 264.5,-0.5 271.5,-0.5C 282.597,0.942583 293.597,2.94258 304.5,5.5C 268.868,41.632 233.035,77.632 197,113.5C 196.316,114.784 196.483,115.951 197.5,117C 196.167,118.333 194.833,119.667 193.5,121C 195.807,122.828 195.474,124.494 192.5,126C 192.728,126.399 193.062,126.565 193.5,126.5C 194.23,127.712 195.23,128.712 196.5,129.5C 195.352,131.149 194.019,132.649 192.5,134C 193.956,134.423 194.456,135.256 194,136.5C 192.488,137.257 191.154,138.257 190,139.5C 186.85,138.429 184.017,136.262 181.5,133C 177.356,130.909 173.356,129.409 169.5,128.5C 166.878,127.967 164.378,126.967 162,125.5C 160.221,126.479 158.555,126.146 157,124.5C 155.111,125.097 153.278,125.431 151.5,125.5C 150.808,124.975 150.308,124.308 150,123.5C 148.333,123.833 146.667,124.167 145,124.5C 143.933,123.809 142.766,123.309 141.5,123C 142.253,121.513 143.086,121.346 144,122.5C 144.242,120.862 145.075,119.362 146.5,118C 143.057,117.779 142.724,116.779 145.5,115C 144.377,113.956 143.044,113.29 141.5,113C 142.253,111.513 143.086,111.346 144,112.5C 145.627,111.468 146.793,110.134 147.5,108.5C 149.322,107.719 149.989,106.552 149.5,105C 148.833,104.333 148.167,103.667 147.5,103C 182.035,68.632 216.368,34.132 250.5,-0.5 Z"/></g>
<g><path style="opacity:0.998" fill="#7172f1" d="M 304.5,5.5 C 319.572,8.19131 333.905,12.858 347.5,19.5C 308.368,58.1319 269.368,96.9652 230.5,136C 231.5,137 232.5,138 233.5,139C 231.205,139.189 229.205,140.523 227.5,143C 228.167,144.333 228.833,145.667 229.5,147C 228.956,147.717 228.289,148.217 227.5,148.5C 220.304,140.891 211.97,134.724 202.5,130C 201,128.5 199.5,127 198,125.5C 196.436,125.912 194.936,126.245 193.5,126.5C 193.062,126.565 192.728,126.399 192.5,126C 195.474,124.494 195.807,122.828 193.5,121C 194.833,119.667 196.167,118.333 197.5,117C 196.483,115.951 196.316,114.784 197,113.5C 233.035,77.632 268.868,41.632 304.5,5.5 Z"/></g>
<g><path style="opacity:0.999" fill="#7974f1" d="M 347.5,19.5 C 353.598,21.384 359.265,24.0506 364.5,27.5C 364.611,28.1174 364.944,28.6174 365.5,29C 342.167,52.3333 318.833,75.6667 295.5,99C 296.167,99.6667 296.833,100.333 297.5,101C 295.5,103 293.5,105 291.5,107C 292.623,108.044 293.956,108.71 295.5,109C 293.294,111.037 291.294,113.203 289.5,115.5C 271.933,118.297 260.099,127.63 254,143.5C 252.788,148.254 250.788,152.588 248,156.5C 247.667,156.167 247.333,155.833 247,155.5C 246.727,157.329 245.893,158.829 244.5,160C 242.671,160.273 241.171,161.107 240,162.5C 238.189,157.258 237.189,157.592 237,163.5C 235.887,162.24 235.72,161.073 236.5,160C 235.338,159.173 234.171,158.34 233,157.5C 232.228,157.645 231.561,157.978 231,158.5C 230.52,156.867 229.687,155.534 228.5,154.5C 229.706,153.12 229.373,151.953 227.5,151C 228.598,150.23 228.598,149.397 227.5,148.5C 228.289,148.217 228.956,147.717 229.5,147C 228.833,145.667 228.167,144.333 227.5,143C 229.205,140.523 231.205,139.189 233.5,139C 232.5,138 231.5,137 230.5,136C 269.368,96.9652 308.368,58.1319 347.5,19.5 Z"/></g>
<g><path style="opacity:0.976" fill="#4b6aee" d="M 189.5,6.5 C 187.873,8.62976 186.04,10.6298 184,12.5C 183.667,12.1667 183.333,11.8333 183,11.5C 181.513,12.2529 181.346,13.0862 182.5,14C 181.531,15.7583 180.364,16.2583 179,15.5C 177.513,16.2529 177.346,17.0862 178.5,18C 177.531,19.7583 176.364,20.2583 175,19.5C 173.513,20.2529 173.346,21.0862 174.5,22C 173.531,23.7583 172.364,24.2583 171,23.5C 169.513,24.2529 169.346,25.0862 170.5,26C 169.531,27.7583 168.364,28.2583 167,27.5C 165.513,28.2529 165.346,29.0862 166.5,30C 165.531,31.7583 164.364,32.2583 163,31.5C 161.513,32.2529 161.346,33.0862 162.5,34C 161.531,35.7583 160.364,36.2583 159,35.5C 157.513,36.2529 157.346,37.0862 158.5,38C 157.531,39.7583 156.364,40.2583 155,39.5C 153.513,40.2529 153.346,41.0862 154.5,42C 153.531,43.7583 152.364,44.2583 151,43.5C 149.513,44.2529 149.346,45.0862 150.5,46C 149.531,47.7583 148.364,48.2583 147,47.5C 145.513,48.2529 145.346,49.0862 146.5,50C 145.531,51.7583 144.364,52.2583 143,51.5C 141.513,52.2529 141.346,53.0862 142.5,54C 141.531,55.7583 140.364,56.2583 139,55.5C 137.513,56.2529 137.346,57.0862 138.5,58C 137.531,59.7583 136.364,60.2583 135,59.5C 133.513,60.2529 133.346,61.0862 134.5,62C 133.531,63.7583 132.364,64.2583 131,63.5C 129.513,64.2529 129.346,65.0862 130.5,66C 129.531,67.7583 128.364,68.2583 127,67.5C 125.513,68.2529 125.346,69.0862 126.5,70C 125.531,71.7583 124.364,72.2583 123,71.5C 121.513,72.2529 121.346,73.0862 122.5,74C 121.531,75.7583 120.364,76.2583 119,75.5C 117.513,76.2529 117.346,77.0862 118.5,78C 117.531,79.7583 116.364,80.2583 115,79.5C 113.513,80.2529 113.346,81.0862 114.5,82C 113.531,83.7583 112.364,84.2583 111,83.5C 109.513,84.2529 109.346,85.0862 110.5,86C 109.531,87.7583 108.364,88.2583 107,87.5C 105.513,88.2529 105.346,89.0862 106.5,90C 105.531,91.7583 104.364,92.2583 103,91.5C 101.513,92.2529 101.346,93.0862 102.5,94C 101.531,95.7583 100.364,96.2583 99,95.5C 97.513,96.2529 97.3463,97.0862 98.5,98C 97.5305,99.7583 96.3639,100.258 95,99.5C 93.513,100.253 93.3463,101.086 94.5,102C 93.5305,103.758 92.3639,104.258 91,103.5C 89.2417,104.469 88.7417,105.636 89.5,107C 85.0627,109.945 80.5627,113.778 76,118.5C 75.3333,117.833 74.6667,117.167 74,116.5C 72.8333,117.667 71.6667,118.833 70.5,120C 71.7487,121.824 72.9153,121.657 74,119.5C 75.7621,120.074 77.5954,120.407 79.5,120.5C 80.2625,121.268 81.2625,121.768 82.5,122C 80.8333,123.667 79.1667,125.333 77.5,127C 78.6226,128.044 79.9559,128.71 81.5,129C 78.8673,129.423 76.7006,130.59 75,132.5C 69.9919,132.052 64.9919,132.719 60,134.5C 59.228,134.355 58.5613,134.022 58,133.5C 55.2318,135.294 52.5651,136.627 50,137.5C 48,137.5 46,137.5 44,137.5C 42,138.833 40,140.167 38,141.5C 36.836,141.835 35.5026,141.835 34,141.5C 32.0188,143.657 29.6855,145.324 27,146.5C 25.6244,145.295 24.4577,143.962 23.5,142.5C 27.0348,133.764 31.3681,125.431 36.5,117.5C 72.6041,60.2529 123.604,23.2529 189.5,6.5 Z"/></g>
<g><path style="opacity:0.997" fill="#8f79f2" d="M 402.5,51.5 C 413.819,59.6732 424.152,69.0065 433.5,79.5C 432.603,80.5981 431.77,80.5981 431,79.5C 418.5,92 406,104.5 393.5,117C 394.5,117.333 395.5,117.667 396.5,118C 392.833,121.667 389.167,125.333 385.5,129C 387.044,129.29 388.377,129.956 389.5,131C 388.747,132.487 387.914,132.654 387,131.5C 386.758,133.138 385.925,134.638 384.5,136C 387.943,136.221 388.276,137.221 385.5,139C 388.167,140.333 388.167,141.667 385.5,143C 387.066,143.608 388.4,144.442 389.5,145.5C 388.571,146.315 387.571,147.148 386.5,148C 388.618,148.26 390.284,149.26 391.5,151C 389.5,153 387.5,155 385.5,157C 386.416,157.278 387.082,157.778 387.5,158.5C 387.567,159.959 387.234,161.292 386.5,162.5C 382.756,160.762 379.089,159.596 375.5,159C 374.124,156.457 372.957,156.291 372,158.5C 370.333,157.167 368.667,155.833 367,154.5C 366.667,154.833 366.333,155.167 366,155.5C 365.167,154.5 364.333,153.5 363.5,152.5C 362.914,152.709 362.414,153.043 362,153.5C 359.724,151.941 356.89,150.607 353.5,149.5C 350.973,145.321 347.64,141.821 343.5,139C 336.696,136.12 329.696,133.954 322.5,132.5C 324.931,130.932 324.931,129.432 322.5,128C 326.002,125.989 326.002,124.656 322.5,124C 323.71,122.961 324.71,121.794 325.5,120.5C 330.882,121.529 335.382,123.529 339,126.5C 340.008,126.018 341.175,125.852 342.5,126C 342.833,125.667 343.167,125.333 343.5,125C 340.883,122.943 338.216,120.943 335.5,119C 337.18,118.966 338.68,118.799 340,118.5C 342.879,121.165 345.379,120.665 347.5,117C 345.606,115.899 344.939,114.566 345.5,113C 347.516,112.803 349.516,111.803 351.5,110C 350.833,109.667 350.167,109.333 349.5,109C 351.044,108.71 352.377,108.044 353.5,107C 351.606,105.899 350.939,104.566 351.5,103C 368.702,85.9652 385.702,68.7986 402.5,51.5 Z"/></g>
<g><path style="opacity:1" fill="#8276f3" d="M 364.5,27.5 C 378.188,34.0034 390.854,42.0034 402.5,51.5C 385.702,68.7986 368.702,85.9652 351.5,103C 350.939,104.566 351.606,105.899 353.5,107C 352.377,108.044 351.044,108.71 349.5,109C 350.167,109.333 350.833,109.667 351.5,110C 349.516,111.803 347.516,112.803 345.5,113C 344.939,114.566 345.606,115.899 347.5,117C 345.379,120.665 342.879,121.165 340,118.5C 338.68,118.799 337.18,118.966 335.5,119C 338.216,120.943 340.883,122.943 343.5,125C 343.167,125.333 342.833,125.667 342.5,126C 341.175,125.852 340.008,126.018 339,126.5C 335.382,123.529 330.882,121.529 325.5,120.5C 322.16,120.203 319.326,118.869 317,116.5C 316.333,117.167 315.667,117.833 315,118.5C 313.667,117.167 312.333,115.833 311,114.5C 307.081,114.662 302.581,114.662 297.5,114.5C 295.036,114.59 292.87,115.257 291,116.5C 290.617,115.944 290.117,115.611 289.5,115.5C 291.294,113.203 293.294,111.037 295.5,109C 293.956,108.71 292.623,108.044 291.5,107C 293.5,105 295.5,103 297.5,101C 296.833,100.333 296.167,99.6667 295.5,99C 318.833,75.6667 342.167,52.3333 365.5,29C 364.944,28.6174 364.611,28.1174 364.5,27.5 Z"/></g>
<g><path style="opacity:0.992" fill="#9c7bf3" d="M 433.5,79.5 C 442.258,89.2565 450.258,99.5899 457.5,110.5C 455.88,114.642 453.214,118.142 449.5,121C 450.517,122.049 450.684,123.216 450,124.5C 447.833,126.667 445.667,128.833 443.5,131C 444.191,132.067 444.691,133.234 445,134.5C 446.937,134.179 448.437,135.179 449.5,137.5C 442.447,138.834 441.78,142.001 447.5,147C 444.675,148.474 444.342,149.974 446.5,151.5C 446.167,151.833 445.833,152.167 445.5,152.5C 442.846,152.516 440.346,151.516 438,149.5C 435.87,149.413 433.703,149.413 431.5,149.5C 430.667,148.5 429.833,147.5 429,146.5C 427.39,146.13 425.89,146.797 424.5,148.5C 422.742,147.872 421.242,146.872 420,145.5C 410.392,145.779 400.225,145.779 389.5,145.5C 388.4,144.442 387.066,143.608 385.5,143C 388.167,141.667 388.167,140.333 385.5,139C 388.276,137.221 387.943,136.221 384.5,136C 385.925,134.638 386.758,133.138 387,131.5C 387.914,132.654 388.747,132.487 389.5,131C 388.377,129.956 387.044,129.29 385.5,129C 389.167,125.333 392.833,121.667 396.5,118C 395.5,117.667 394.5,117.333 393.5,117C 406,104.5 418.5,92 431,79.5C 431.77,80.5981 432.603,80.5981 433.5,79.5 Z"/></g>
<g><path style="opacity:0.02" fill="#000000" d="M 36.5,117.5 C 31.3681,125.431 27.0348,133.764 23.5,142.5C 10.7145,168.63 3.04785,196.297 0.5,225.5C 0.67158,226.492 0.338246,227.158 -0.5,227.5C -0.5,196.5 -0.5,165.5 -0.5,134.5C 10.6018,126.346 22.9351,120.679 36.5,117.5 Z"/></g>
<g><path style="opacity:1" fill="#fcfcfe" d="M 322.5,132.5 C 329.696,133.954 336.696,136.12 343.5,139C 347.64,141.821 350.973,145.321 353.5,149.5C 357.735,154.291 361.235,159.625 364,165.5C 364.928,175.477 364.095,185.31 361.5,195C 361.152,203.658 365.152,207.325 373.5,206C 375.378,204.457 376.878,202.624 378,200.5C 380.516,187.75 383.35,175.083 386.5,162.5C 387.234,161.292 387.567,159.959 387.5,158.5C 391.412,152.791 396.912,149.791 404,149.5C 417.536,152.029 431.036,154.695 444.5,157.5C 452.628,159.166 459.462,163.166 465,169.5C 469.333,175.833 473.667,182.167 478,188.5C 478.667,194.167 478.667,199.833 478,205.5C 476.227,214.534 474.393,223.534 472.5,232.5C 463.944,274.111 455.444,315.777 447,357.5C 446.322,366.835 441.489,372.335 432.5,374C 421.505,374.5 410.505,374.667 399.5,374.5C 387.943,371.789 376.276,369.455 364.5,367.5C 357.295,365.641 352.128,361.308 349,354.5C 348.503,351.854 348.336,349.187 348.5,346.5C 351.385,333.897 353.718,321.064 355.5,308C 355.252,298.485 350.919,295.818 342.5,300C 341.206,302.087 340.039,304.254 339,306.5C 336.904,314.407 335.238,322.407 334,330.5C 332.789,336.132 330.789,341.466 328,346.5C 323.999,349.446 319.499,351.112 314.5,351.5C 299.359,352.163 284.359,351.163 269.5,348.5C 261.988,346.371 254.321,344.371 246.5,342.5C 240.825,347.788 234.159,351.288 226.5,353C 215.449,355.077 204.449,357.41 193.5,360C 188.448,360.726 183.448,360.559 178.5,359.5C 175.211,357.384 172.044,355.051 169,352.5C 163.863,345.063 158.363,337.896 152.5,331C 149.226,329.798 145.893,328.798 142.5,328C 141.868,325.585 140.868,323.418 139.5,321.5C 139.321,316.636 138.321,311.97 136.5,307.5C 135.771,302.515 136.771,298.015 139.5,294C 142.303,293.245 144.97,293.578 147.5,295C 151.036,298.704 154.702,302.204 158.5,305.5C 164.737,316.921 172.737,327.087 182.5,336C 189.621,338.46 196.955,339.126 204.5,338C 214.945,336.26 225.279,334.093 235.5,331.5C 235.824,321.086 236.657,310.752 238,300.5C 232.287,293.052 226.12,286.052 219.5,279.5C 215.669,275.489 212.836,270.822 211,265.5C 209.316,259.622 210.982,254.955 216,251.5C 217.726,255.953 219.726,260.286 222,264.5C 228.333,272.167 234.667,279.833 241,287.5C 248.526,255.042 255.359,222.375 261.5,189.5C 265.449,171.147 269.616,152.813 274,134.5C 278.395,126.897 284.895,124.397 293.5,127C 303.256,128.518 312.923,130.352 322.5,132.5 Z"/></g>
<g><path style="opacity:1" fill="#5468e3" d="M 147.5,108.5 C 146.793,110.134 145.627,111.468 144,112.5C 143.086,111.346 142.253,111.513 141.5,113C 143.044,113.29 144.377,113.956 145.5,115C 142.724,116.779 143.057,117.779 146.5,118C 145.075,119.362 144.242,120.862 144,122.5C 143.086,121.346 142.253,121.513 141.5,123C 142.766,123.309 143.933,123.809 145,124.5C 146.667,124.167 148.333,123.833 150,123.5C 150.308,124.308 150.808,124.975 151.5,125.5C 153.278,125.431 155.111,125.097 157,124.5C 158.555,126.146 160.221,126.479 162,125.5C 164.378,126.967 166.878,127.967 169.5,128.5C 169.389,129.117 169.056,129.617 168.5,130C 169.545,131.616 170.545,133.283 171.5,135C 170.207,135.49 168.873,135.657 167.5,135.5C 149.057,133.724 130.724,134.557 112.5,138C 87.5843,143.653 62.5843,148.987 37.5,154C 25.2381,156.238 20.0714,163.405 22,175.5C 27.1683,199.847 32.3349,224.18 37.5,248.5C 37.756,250.912 36.756,252.579 34.5,253.5C 32.4409,251.155 31.4409,251.822 31.5,255.5C 31.6824,259.78 33.0157,263.947 35.5,268C 35.036,270.405 34.8693,272.905 35,275.5C 32.9895,279.002 31.6561,279.002 31,275.5C 29.4877,277.957 28.1544,277.957 27,275.5C 25.2532,275.387 23.4199,275.721 21.5,276.5C 20.7611,276.631 20.0944,276.464 19.5,276C 22.1667,274.667 22.1667,273.333 19.5,272C 20.2928,269.603 20.1261,266.77 19,263.5C 18.1667,262.667 17.3333,261.833 16.5,261C 15.7607,259.235 15.7607,257.235 16.5,255C 15.4495,253.615 14.1161,252.615 12.5,252C 16.027,249.697 16.3603,247.03 13.5,244C 13.8333,243 14.1667,242 14.5,241C 13.7471,239.513 12.9138,239.346 12,240.5C 10.2134,236.397 9.04673,232.397 8.5,228.5C 7.18614,227.687 6.01948,226.687 5,225.5C 4,226.5 3,227.5 2,228.5C 1.76791,227.263 1.26791,226.263 0.5,225.5C 3.04785,196.297 10.7145,168.63 23.5,142.5C 24.4577,143.962 25.6244,145.295 27,146.5C 29.6855,145.324 32.0188,143.657 34,141.5C 35.5026,141.835 36.836,141.835 38,141.5C 40,140.167 42,138.833 44,137.5C 46,137.5 48,137.5 50,137.5C 52.5651,136.627 55.2318,135.294 58,133.5C 58.5613,134.022 59.228,134.355 60,134.5C 64.9919,132.719 69.9919,132.052 75,132.5C 76.7006,130.59 78.8673,129.423 81.5,129C 79.9559,128.71 78.6226,128.044 77.5,127C 79.1667,125.333 80.8333,123.667 82.5,122C 81.2625,121.768 80.2625,121.268 79.5,120.5C 83.1234,118.898 86.6234,117.898 90,117.5C 92.3333,118.5 94.6667,119.5 97,120.5C 99.8668,120.094 103.2,120.094 107,120.5C 110.001,119.647 112.834,118.48 115.5,117C 114.833,116.333 114.167,115.667 113.5,115C 115.705,112.46 118.205,110.293 121,108.5C 129.14,108.148 137.973,108.148 147.5,108.5 Z"/></g>
<g><path style="opacity:0.015" fill="#000000" d="M 470.5,130.5 C 481.037,135.933 490.704,142.599 499.5,150.5C 499.5,176.167 499.5,201.833 499.5,227.5C 498.833,227.5 498.5,227.167 498.5,226.5C 496.916,202.837 491.583,180.171 482.5,158.5C 479.051,148.935 475.051,139.601 470.5,130.5 Z"/></g>
<g><path style="opacity:1" fill="#fcfcfe" d="M 167.5,135.5 C 181.068,141.313 194.402,147.813 207.5,155C 212.045,159.927 215.712,165.427 218.5,171.5C 223.233,180.403 224.733,189.737 223,199.5C 220.648,193.462 217.815,187.796 214.5,182.5C 211.772,178.263 208.439,174.429 204.5,171C 198.116,165.615 191.45,160.615 184.5,156C 179.387,153.87 174.054,152.703 168.5,152.5C 149.727,152.008 131.061,153.175 112.5,156C 91.0178,160.383 69.6845,165.383 48.5,171C 39.8709,176.137 37.0375,183.637 40,193.5C 40.9794,200.423 42.4794,207.09 44.5,213.5C 49.2219,237.659 54.5553,261.659 60.5,285.5C 63.987,301.784 67.3203,318.118 70.5,334.5C 72.0333,341.713 74.2,348.713 77,355.5C 81.0204,361.396 86.5204,363.563 93.5,362C 105.91,359.806 118.243,357.306 130.5,354.5C 133.167,354.5 135.833,354.5 138.5,354.5C 139.373,360.405 137.707,365.405 133.5,369.5C 131.882,371.316 129.882,372.649 127.5,373.5C 114.7,377.376 101.7,380.542 88.5,383C 83.0509,383.896 77.7175,383.563 72.5,382C 70.0439,379.592 68.2106,376.759 67,373.5C 63.4307,357.879 59.264,342.546 54.5,327.5C 53.7974,321.249 52.4641,315.249 50.5,309.5C 46.7453,288.939 42.412,268.605 37.5,248.5C 32.3349,224.18 27.1683,199.847 22,175.5C 20.0714,163.405 25.2381,156.238 37.5,154C 62.5843,148.987 87.5843,143.653 112.5,138C 130.724,134.557 149.057,133.724 167.5,135.5 Z"/></g>
<g><path style="opacity:1" fill="#a57df1" d="M 457.5,110.5 C 462.331,116.826 466.665,123.492 470.5,130.5C 475.051,139.601 479.051,148.935 482.5,158.5C 479.473,159.626 479.14,161.126 481.5,163C 481.043,163.414 480.709,163.914 480.5,164.5C 481.5,165.333 482.5,166.167 483.5,167C 483.045,170.145 482.545,173.312 482,176.5C 478.687,174.021 475.52,171.355 472.5,168.5C 470.994,167.253 469.494,167.253 468,168.5C 467.383,167.551 467.549,166.718 468.5,166C 465.206,164.788 462.206,162.454 459.5,159C 457.064,158.07 454.731,156.903 452.5,155.5C 451.199,156.478 450.032,156.145 449,154.5C 447.357,155.315 445.857,156.315 444.5,157.5C 431.036,154.695 417.536,152.029 404,149.5C 396.912,149.791 391.412,152.791 387.5,158.5C 387.082,157.778 386.416,157.278 385.5,157C 387.5,155 389.5,153 391.5,151C 390.284,149.26 388.618,148.26 386.5,148C 387.571,147.148 388.571,146.315 389.5,145.5C 400.225,145.779 410.392,145.779 420,145.5C 421.242,146.872 422.742,147.872 424.5,148.5C 425.89,146.797 427.39,146.13 429,146.5C 429.833,147.5 430.667,148.5 431.5,149.5C 433.703,149.413 435.87,149.413 438,149.5C 440.346,151.516 442.846,152.516 445.5,152.5C 445.833,152.167 446.167,151.833 446.5,151.5C 444.342,149.974 444.675,148.474 447.5,147C 441.78,142.001 442.447,138.834 449.5,137.5C 448.437,135.179 446.937,134.179 445,134.5C 444.691,133.234 444.191,132.067 443.5,131C 445.667,128.833 447.833,126.667 450,124.5C 450.684,123.216 450.517,122.049 449.5,121C 453.214,118.142 455.88,114.642 457.5,110.5 Z"/></g>
<g><path style="opacity:1" fill="#706fe9" d="M 227.5,148.5 C 228.598,149.397 228.598,150.23 227.5,151C 229.373,151.953 229.706,153.12 228.5,154.5C 224.298,154.431 223.631,156.265 226.5,160C 222.9,162.58 222.566,165.58 225.5,169C 224.542,170.147 224.875,171.147 226.5,172C 225.667,172.833 224.833,173.667 224,174.5C 222.512,172.84 220.679,171.84 218.5,171.5C 215.712,165.427 212.045,159.927 207.5,155C 194.402,147.813 181.068,141.313 167.5,135.5C 168.873,135.657 170.207,135.49 171.5,135C 170.545,133.283 169.545,131.616 168.5,130C 169.056,129.617 169.389,129.117 169.5,128.5C 173.356,129.409 177.356,130.909 181.5,133C 184.017,136.262 186.85,138.429 190,139.5C 191.154,138.257 192.488,137.257 194,136.5C 194.456,135.256 193.956,134.423 192.5,134C 194.019,132.649 195.352,131.149 196.5,129.5C 195.23,128.712 194.23,127.712 193.5,126.5C 194.936,126.245 196.436,125.912 198,125.5C 199.5,127 201,128.5 202.5,130C 211.97,134.724 220.304,140.891 227.5,148.5 Z"/></g>
<g><path style="opacity:1" fill="#8573e7" d="M 338.5,206.5 C 338.297,208.044 337.63,209.378 336.5,210.5C 339.149,216.126 342.982,220.793 348,224.5C 349,224.167 350,223.833 351,223.5C 352.814,224.851 352.481,225.851 350,226.5C 347.729,224.566 345.729,224.566 344,226.5C 342.333,225.5 340.667,224.5 339,223.5C 338.617,224.056 338.117,224.389 337.5,224.5C 335.598,223.247 333.265,221.747 330.5,220C 330.833,219.667 331.167,219.333 331.5,219C 328.643,214.656 326.643,210.323 325.5,206C 325.833,205 326.167,204 326.5,203C 325.027,200.21 324.36,197.71 324.5,195.5C 323.051,191.987 322.718,188.821 323.5,186C 321.811,183.443 320.644,180.609 320,177.5C 317.672,176.514 315.672,174.514 314,171.5C 313.089,174.633 311.256,175.633 308.5,174.5C 306.517,175.982 304.684,177.649 303,179.5C 301.951,178.483 300.784,178.316 299.5,179C 294.934,181.203 290.768,184.036 287,187.5C 284,190.5 280.333,194.167 276,198.5C 275.208,200.587 274.041,202.421 272.5,204C 272.833,204.333 273.167,204.667 273.5,205C 270.667,207.833 267.833,210.667 265,213.5C 264.536,212.906 264.369,212.239 264.5,211.5C 268.286,191.167 272.119,170.833 276,150.5C 277.629,146.069 280.129,142.236 283.5,139C 286.039,137.953 288.705,137.453 291.5,137.5C 307.898,139.279 323.898,142.779 339.5,148C 343.818,151.154 345.818,155.488 345.5,161C 343.975,172.959 341.808,184.792 339,196.5C 338.502,199.817 338.335,203.15 338.5,206.5 Z"/></g>
<g><path style="opacity:1" fill="#9d77e7" d="M 451.5,170.5 C 449.94,172.129 450.273,173.296 452.5,174C 450.833,175.667 449.167,177.333 447.5,179C 450.766,179.406 451.099,180.906 448.5,183.5C 446.739,185.68 444.573,187.346 442,188.5C 441.667,187.5 441.333,186.5 441,185.5C 439.296,187.373 437.463,189.04 435.5,190.5C 434.559,187.875 433.393,187.875 432,190.5C 430.423,187.325 428.59,186.991 426.5,189.5C 423.749,188.659 421.582,189.659 420,192.5C 419.667,192.167 419.333,191.833 419,191.5C 417.266,192.249 415.433,192.749 413.5,193C 407.623,198.344 402.623,203.844 398.5,209.5C 396.984,212.531 395.484,215.531 394,218.5C 386.667,225.833 379.333,233.167 372,240.5C 371.667,240.167 371.333,239.833 371,239.5C 366.984,242.496 362.484,244.33 357.5,245C 355.855,248.169 353.521,249.003 350.5,247.5C 346.337,246.179 342.503,244.179 339,241.5C 338.667,241.833 338.333,242.167 338,242.5C 336.122,240.957 334.622,239.124 333.5,237C 335.198,237.497 336.865,237.33 338.5,236.5C 340.595,238.589 342.428,238.589 344,236.5C 346.816,235.87 349.482,236.536 352,238.5C 352.5,238 353,237.5 353.5,237C 351.535,235.435 349.369,234.268 347,233.5C 346.667,233.833 346.333,234.167 346,234.5C 344.114,233.07 342.447,231.403 341,229.5C 340.667,229.833 340.333,230.167 340,230.5C 337.238,229.012 336.404,227.012 337.5,224.5C 338.117,224.389 338.617,224.056 339,223.5C 340.667,224.5 342.333,225.5 344,226.5C 345.729,224.566 347.729,224.566 350,226.5C 352.481,225.851 352.814,224.851 351,223.5C 350,223.833 349,224.167 348,224.5C 342.982,220.793 339.149,216.126 336.5,210.5C 337.63,209.378 338.297,208.044 338.5,206.5C 340.363,212.183 344.363,215.683 350.5,217C 359.456,219.763 368.456,220.096 377.5,218C 380.606,214.368 382.773,210.201 384,205.5C 386.156,193.388 388.823,181.388 392,169.5C 393.5,165.333 396.333,162.5 400.5,161C 405.88,160.404 411.213,160.738 416.5,162C 428.336,164.398 440.003,167.231 451.5,170.5 Z"/></g>
<g><path style="opacity:1" fill="#5664d8" d="M 168.5,152.5 C 168.286,154.144 168.62,155.644 169.5,157C 167,159.5 164.5,162 162,164.5C 159.945,164.152 157.945,164.819 156,166.5C 155.667,166.167 155.333,165.833 155,165.5C 152.48,169.373 148.98,171.54 144.5,172C 143,173.5 141.5,175 140,176.5C 138.434,175.939 137.101,176.606 136,178.5C 134.549,178.264 133.049,178.264 131.5,178.5C 130.784,178.217 129.951,177.884 129,177.5C 122.784,179.328 116.45,180.995 110,182.5C 107.908,181.36 105.741,181.36 103.5,182.5C 102.692,182.192 102.025,181.692 101.5,181C 107.068,180.924 111.401,178.591 114.5,174C 116.167,173.667 117.833,173.333 119.5,173C 120.614,171.43 121.947,170.097 123.5,169C 122.975,168.308 122.308,167.808 121.5,167.5C 118.071,167.907 114.905,168.907 112,170.5C 110.333,170.167 108.667,169.833 107,169.5C 106.333,170.167 105.667,170.833 105,171.5C 101.654,169.94 98.6536,170.94 96,174.5C 74.2055,178.844 57.0388,191.844 44.5,213.5C 42.4794,207.09 40.9794,200.423 40,193.5C 37.0375,183.637 39.8709,176.137 48.5,171C 69.6845,165.383 91.0178,160.383 112.5,156C 131.061,153.175 149.727,152.008 168.5,152.5 Z"/></g>
<g><path style="opacity:1" fill="#9072de" d="M 353.5,149.5 C 356.89,150.607 359.724,151.941 362,153.5C 362.414,153.043 362.914,152.709 363.5,152.5C 364.333,153.5 365.167,154.5 366,155.5C 366.333,155.167 366.667,154.833 367,154.5C 368.667,155.833 370.333,157.167 372,158.5C 372.957,156.291 374.124,156.457 375.5,159C 379.089,159.596 382.756,160.762 386.5,162.5C 383.35,175.083 380.516,187.75 378,200.5C 376.878,202.624 375.378,204.457 373.5,206C 365.152,207.325 361.152,203.658 361.5,195C 364.095,185.31 364.928,175.477 364,165.5C 361.235,159.625 357.735,154.291 353.5,149.5 Z"/></g>
<g><path style="opacity:1" fill="#5e69e1" d="M 131.5,178.5 C 130.458,180.791 128.958,181.791 127,181.5C 125.899,183.394 124.566,184.061 123,183.5C 119.654,186.667 115.82,189 111.5,190.5C 109.9,189.748 108.4,188.748 107,187.5C 106,188.5 105,189.5 104,190.5C 102.333,190.167 100.667,189.833 99,189.5C 95.2472,190.961 91.5805,192.627 88,194.5C 85.2465,193.878 82.9131,194.878 81,197.5C 80.6924,196.692 80.1924,196.025 79.5,195.5C 74.1814,200.318 69.0147,205.318 64,210.5C 63.5439,211.744 64.0439,212.577 65.5,213C 63.8753,213.853 63.5419,214.853 64.5,216C 62.921,219.185 61.5877,222.519 60.5,226C 61.397,229.118 61.397,232.118 60.5,235C 61.3333,236.5 62.5,237.667 64,238.5C 65.0724,231.052 66.2391,230.885 67.5,238C 67.3552,238.772 67.0219,239.439 66.5,240C 67.991,242.097 68.991,244.43 69.5,247C 69.1667,248 68.8333,249 68.5,250C 69.5,251.667 70.5,253.333 71.5,255C 69.6269,255.953 69.2935,257.12 70.5,258.5C 69.8664,260.592 69.8664,263.259 70.5,266.5C 69.6491,268.71 68.3157,270.71 66.5,272.5C 68.585,275.95 67.585,278.45 63.5,280C 64.9825,282.573 64.4825,284.74 62,286.5C 61.6174,285.944 61.1174,285.611 60.5,285.5C 54.5553,261.659 49.2219,237.659 44.5,213.5C 57.0388,191.844 74.2055,178.844 96,174.5C 98.6536,170.94 101.654,169.94 105,171.5C 105.667,170.833 106.333,170.167 107,169.5C 108.667,169.833 110.333,170.167 112,170.5C 114.905,168.907 118.071,167.907 121.5,167.5C 122.308,167.808 122.975,168.308 123.5,169C 121.947,170.097 120.614,171.43 119.5,173C 117.833,173.333 116.167,173.667 114.5,174C 111.401,178.591 107.068,180.924 101.5,181C 102.025,181.692 102.692,182.192 103.5,182.5C 105.741,181.36 107.908,181.36 110,182.5C 116.45,180.995 122.784,179.328 129,177.5C 129.951,177.884 130.784,178.217 131.5,178.5 Z"/></g>
<g><path style="opacity:1" fill="#6b6de5" d="M 168.5,152.5 C 174.054,152.703 179.387,153.87 184.5,156C 191.45,160.615 198.116,165.615 204.5,171C 208.439,174.429 211.772,178.263 214.5,182.5C 211.146,184.906 207.812,187.406 204.5,190C 199.859,190.117 195.692,190.283 192,190.5C 191.333,189.833 190.667,189.167 190,188.5C 187.103,187.903 184.436,187.903 182,188.5C 180.667,185.833 179.333,185.833 178,188.5C 176.951,187.483 175.784,187.316 174.5,188C 172.442,191.397 169.442,193.063 165.5,193C 160.833,197.667 156.167,202.333 151.5,207C 152.711,210.01 151.711,212.177 148.5,213.5C 139.601,204.513 130.267,204.179 120.5,212.5C 117.875,211.559 117.875,210.393 120.5,209C 119.833,208.333 119.167,207.667 118.5,207C 119.5,205.333 120.5,203.667 121.5,202C 119.667,200.833 118.167,199.333 117,197.5C 114.816,198.108 112.816,197.441 111,195.5C 108.557,196.285 106.057,196.119 103.5,195C 105.366,192.718 107.532,191.885 110,192.5C 110.717,191.956 111.217,191.289 111.5,190.5C 115.82,189 119.654,186.667 123,183.5C 124.566,184.061 125.899,183.394 127,181.5C 128.958,181.791 130.458,180.791 131.5,178.5C 133.049,178.264 134.549,178.264 136,178.5C 137.101,176.606 138.434,175.939 140,176.5C 141.5,175 143,173.5 144.5,172C 148.98,171.54 152.48,169.373 155,165.5C 155.333,165.833 155.667,166.167 156,166.5C 157.945,164.819 159.945,164.152 162,164.5C 164.5,162 167,159.5 169.5,157C 168.62,155.644 168.286,154.144 168.5,152.5 Z"/></g>
<g><path style="opacity:1" fill="#9077ee" d="M 324.5,195.5 C 323.504,195.414 322.671,195.748 322,196.5C 319.661,193.895 317.328,193.562 315,195.5C 314.61,191.834 313.443,191.668 311.5,195C 312.634,196.016 312.301,196.683 310.5,197C 311.191,198.067 311.691,199.234 312,200.5C 314.861,200.092 315.028,200.925 312.5,203C 314.645,206.06 316.145,209.227 317,212.5C 314.281,213.677 312.781,215.343 312.5,217.5C 311.521,214.047 310.021,213.714 308,216.5C 306.846,214.043 305.512,214.043 304,216.5C 303.086,215.346 302.253,215.513 301.5,217C 302.258,218.364 301.758,219.531 300,220.5C 299.086,219.346 298.253,219.513 297.5,221C 298.258,222.364 297.758,223.531 296,224.5C 295.086,223.346 294.253,223.513 293.5,225C 294.258,226.364 293.758,227.531 292,228.5C 291.667,228.167 291.333,227.833 291,227.5C 291.178,229.44 290.178,231.107 288,232.5C 287.086,231.346 286.253,231.513 285.5,233C 285.833,233.333 286.167,233.667 286.5,234C 285.31,236.116 283.977,238.116 282.5,240C 282.833,240.333 283.167,240.667 283.5,241C 279.32,244.246 277.32,248.246 277.5,253C 276.747,254.487 275.914,254.654 275,253.5C 273.242,254.469 272.742,255.636 273.5,257C 271.205,257.189 269.205,258.523 267.5,261C 267.833,261.333 268.167,261.667 268.5,262C 266.945,264.255 265.945,266.755 265.5,269.5C 264.711,269.783 264.044,270.283 263.5,271C 263.743,273.545 263.743,276.045 263.5,278.5C 261.8,281.027 260.133,280.86 258.5,278C 259.718,272.737 258.051,268.404 253.5,265C 254.749,263.176 255.915,263.343 257,265.5C 257.5,265 258,264.5 258.5,264C 256.907,263.051 255.574,261.885 254.5,260.5C 257.086,243.903 260.419,227.569 264.5,211.5C 264.369,212.239 264.536,212.906 265,213.5C 267.833,210.667 270.667,207.833 273.5,205C 273.167,204.667 272.833,204.333 272.5,204C 274.041,202.421 275.208,200.587 276,198.5C 280.333,194.167 284,190.5 287,187.5C 290.768,184.036 294.934,181.203 299.5,179C 300.784,178.316 301.951,178.483 303,179.5C 304.684,177.649 306.517,175.982 308.5,174.5C 311.256,175.633 313.089,174.633 314,171.5C 315.672,174.514 317.672,176.514 320,177.5C 320.644,180.609 321.811,183.443 323.5,186C 322.718,188.821 323.051,191.987 324.5,195.5 Z"/></g>
<g><path style="opacity:1" fill="#666de9" d="M 111.5,190.5 C 111.217,191.289 110.717,191.956 110,192.5C 107.532,191.885 105.366,192.718 103.5,195C 106.057,196.119 108.557,196.285 111,195.5C 112.816,197.441 114.816,198.108 117,197.5C 118.167,199.333 119.667,200.833 121.5,202C 120.5,203.667 119.5,205.333 118.5,207C 119.167,207.667 119.833,208.333 120.5,209C 117.875,210.393 117.875,211.559 120.5,212.5C 120.737,213.791 120.404,214.791 119.5,215.5C 117.5,216.167 116.167,217.5 115.5,219.5C 114.761,219.631 114.094,219.464 113.5,219C 114.451,218.282 114.617,217.449 114,216.5C 112,218.5 110,220.5 108,222.5C 107.344,218.998 106.011,218.998 104,222.5C 103.667,222.167 103.333,221.833 103,221.5C 101.966,226.635 99.9662,227.301 97,223.5C 89.3381,227.824 83.8381,233.99 80.5,242C 80.5852,243.107 80.9186,244.107 81.5,245C 79.3333,247.167 77.1667,249.333 75,251.5C 75.9156,255.13 74.4156,257.464 70.5,258.5C 69.2935,257.12 69.6269,255.953 71.5,255C 70.5,253.333 69.5,251.667 68.5,250C 68.8333,249 69.1667,248 69.5,247C 68.991,244.43 67.991,242.097 66.5,240C 67.0219,239.439 67.3552,238.772 67.5,238C 66.2391,230.885 65.0724,231.052 64,238.5C 62.5,237.667 61.3333,236.5 60.5,235C 61.397,232.118 61.397,229.118 60.5,226C 61.5877,222.519 62.921,219.185 64.5,216C 63.5419,214.853 63.8753,213.853 65.5,213C 64.0439,212.577 63.5439,211.744 64,210.5C 69.0147,205.318 74.1814,200.318 79.5,195.5C 80.1924,196.025 80.6924,196.692 81,197.5C 82.9131,194.878 85.2465,193.878 88,194.5C 91.5805,192.627 95.2472,190.961 99,189.5C 100.667,189.833 102.333,190.167 104,190.5C 105,189.5 106,188.5 107,187.5C 108.4,188.748 109.9,189.748 111.5,190.5 Z"/></g>
<g><path style="opacity:1" fill="#fcfcfe" d="M 148.5,213.5 C 151.377,226.641 146.044,233.974 132.5,235.5C 121.854,233.152 117.521,226.485 119.5,215.5C 120.404,214.791 120.737,213.791 120.5,212.5C 130.267,204.179 139.601,204.513 148.5,213.5 Z"/></g>
<g><path style="opacity:1" fill="#7c73ed" d="M 325.5,120.5 C 324.71,121.794 323.71,122.961 322.5,124C 326.002,124.656 326.002,125.989 322.5,128C 324.931,129.432 324.931,130.932 322.5,132.5C 312.923,130.352 303.256,128.518 293.5,127C 284.895,124.397 278.395,126.897 274,134.5C 269.616,152.813 265.449,171.147 261.5,189.5C 259.871,190.625 258.371,191.959 257,193.5C 256.333,192.833 255.667,192.167 255,191.5C 254.751,194.177 253.751,196.51 252,198.5C 251.333,197.833 250.667,197.167 250,196.5C 249.021,198.8 247.688,201.133 246,203.5C 245.667,202.833 245.333,202.167 245,201.5C 240.646,206.216 236.313,210.216 232,213.5C 232.383,211.562 232.216,209.896 231.5,208.5C 230.528,210.636 228.861,211.803 226.5,212C 229.279,212.149 229.779,212.983 228,214.5C 227.667,214.167 227.333,213.833 227,213.5C 225.705,215.122 224.205,216.455 222.5,217.5C 219.777,216.614 217.61,217.614 216,220.5C 215.667,220.167 215.333,219.833 215,219.5C 212.997,222.803 210.331,224.136 207,223.5C 204.822,224.893 203.822,226.56 204,228.5C 202.434,227.939 201.101,228.606 200,230.5C 195.647,227.468 192.147,228.302 189.5,233C 190.465,236.45 190.465,239.783 189.5,243C 188.747,244.487 187.914,244.654 187,243.5C 185.242,244.469 184.742,245.636 185.5,247C 183.56,246.822 181.893,247.822 180.5,250C 181.654,250.914 181.487,251.747 180,252.5C 179.667,252.167 179.333,251.833 179,251.5C 177.108,257.408 173.608,262.241 168.5,266C 169.654,266.914 169.487,267.747 168,268.5C 167.667,268.167 167.333,267.833 167,267.5C 164.833,269.667 162.667,271.833 160.5,274C 160.833,274.333 161.167,274.667 161.5,275C 159.167,277.333 156.833,279.667 154.5,282C 155.5,282.333 156.5,282.667 157.5,283C 156.167,283.667 156.167,284.333 157.5,285C 154.934,285.56 152.268,286.726 149.5,288.5C 146.942,287.984 144.442,287.65 142,287.5C 140.604,289.527 138.938,289.86 137,288.5C 129.167,293.667 122.667,300.167 117.5,308C 118.061,309.566 117.394,310.899 115.5,312C 116.061,313.566 115.394,314.899 113.5,316C 114.299,317.749 113.632,319.082 111.5,320C 111.833,320.333 112.167,320.667 112.5,321C 109.557,324.131 105.89,325.464 101.5,325C 100.167,323.667 98.8333,322.333 97.5,321C 99.8073,319.172 99.474,317.506 96.5,316C 96.8333,315.667 97.1667,315.333 97.5,315C 96.1667,314.333 94.8333,314.333 93.5,315C 94.1667,315.333 94.8333,315.667 95.5,316C 94.3595,316.741 94.3595,317.575 95.5,318.5C 94.3523,320.149 93.019,321.649 91.5,323C 91.5,325.667 91.5,328.333 91.5,331C 90.6195,331.708 89.9528,332.542 89.5,333.5C 88.7611,333.631 88.0944,333.464 87.5,333C 87.5,331.667 87.5,330.333 87.5,329C 85.3825,328.74 83.7158,327.74 82.5,326C 82.8333,325.667 83.1667,325.333 83.5,325C 80.6887,320.772 79.6887,316.272 80.5,311.5C 80.3893,310.883 80.056,310.383 79.5,310C 81.9589,309.276 82.9589,307.943 82.5,306C 83.4172,303.419 84.7505,301.086 86.5,299C 85.7948,297.578 85.4615,296.245 85.5,295C 88.5665,290.84 91.2332,286.84 93.5,283C 93.5,281 93.5,279 93.5,277C 94.2529,275.513 95.0862,275.346 96,276.5C 97.7583,275.531 98.2583,274.364 97.5,273C 98.2529,271.513 99.0862,271.346 100,272.5C 101.758,271.531 102.258,270.364 101.5,269C 103.44,269.178 105.107,268.178 106.5,266C 106.167,265.667 105.833,265.333 105.5,265C 107.163,264.735 108.663,265.235 110,266.5C 112.191,263.518 114.524,263.185 117,265.5C 117.518,262.977 118.852,260.977 121,259.5C 122.667,259.833 124.333,260.167 126,260.5C 127.934,257.312 130.768,255.812 134.5,256C 136.682,253.422 138.849,251.588 141,250.5C 142.635,248.333 144.468,247.166 146.5,247C 146,246.5 145.5,246 145,245.5C 142.457,247.105 139.791,248.438 137,249.5C 134.333,249.5 131.667,249.5 129,249.5C 126.36,248.953 124.026,247.287 122,244.5C 121.586,244.957 121.086,245.291 120.5,245.5C 117.874,243.071 115.874,240.237 114.5,237C 114.833,236.667 115.167,236.333 115.5,236C 114.833,232.667 114.167,229.333 113.5,226C 115.553,224.029 116.22,221.862 115.5,219.5C 116.167,217.5 117.5,216.167 119.5,215.5C 117.521,226.485 121.854,233.152 132.5,235.5C 146.044,233.974 151.377,226.641 148.5,213.5C 151.711,212.177 152.711,210.01 151.5,207C 156.167,202.333 160.833,197.667 165.5,193C 169.442,193.063 172.442,191.397 174.5,188C 175.784,187.316 176.951,187.483 178,188.5C 179.333,185.833 180.667,185.833 182,188.5C 184.436,187.903 187.103,187.903 190,188.5C 190.667,189.167 191.333,189.833 192,190.5C 195.692,190.283 199.859,190.117 204.5,190C 207.812,187.406 211.146,184.906 214.5,182.5C 217.815,187.796 220.648,193.462 223,199.5C 224.733,189.737 223.233,180.403 218.5,171.5C 220.679,171.84 222.512,172.84 224,174.5C 224.833,173.667 225.667,172.833 226.5,172C 224.875,171.147 224.542,170.147 225.5,169C 222.566,165.58 222.9,162.58 226.5,160C 223.631,156.265 224.298,154.431 228.5,154.5C 229.687,155.534 230.52,156.867 231,158.5C 231.561,157.978 232.228,157.645 233,157.5C 234.171,158.34 235.338,159.173 236.5,160C 235.72,161.073 235.887,162.24 237,163.5C 237.189,157.592 238.189,157.258 240,162.5C 241.171,161.107 242.671,160.273 244.5,160C 245.893,158.829 246.727,157.329 247,155.5C 247.333,155.833 247.667,156.167 248,156.5C 250.788,152.588 252.788,148.254 254,143.5C 260.099,127.63 271.933,118.297 289.5,115.5C 290.117,115.611 290.617,115.944 291,116.5C 292.87,115.257 295.036,114.59 297.5,114.5C 302.581,114.662 307.081,114.662 311,114.5C 312.333,115.833 313.667,117.167 315,118.5C 315.667,117.833 316.333,117.167 317,116.5C 319.326,118.869 322.16,120.203 325.5,120.5 Z"/></g>
<g><path style="opacity:0.998" fill="#b27ce8" d="M 482.5,158.5 C 491.583,180.171 496.916,202.837 498.5,226.5C 496.9,225.488 495.566,225.988 494.5,228C 494.293,230.632 494.626,232.965 495.5,235C 493.606,236.101 492.939,237.434 493.5,239C 491.875,239.853 491.542,240.853 492.5,242C 491.87,243.892 490.87,245.559 489.5,247C 489.833,247.333 490.167,247.667 490.5,248C 487.981,255.645 484.648,262.812 480.5,269.5C 480.9,264.618 482.234,260.118 484.5,256C 485.061,254.434 484.394,253.101 482.5,252C 484.589,249.566 485.423,246.732 485,243.5C 481.137,251.133 478.137,258.799 476,266.5C 474.259,269.205 472.759,272.038 471.5,275C 471.833,275.333 472.167,275.667 472.5,276C 469.754,279.534 467.754,283.534 466.5,288C 467.654,288.914 467.487,289.747 466,290.5C 466.47,284.14 467.47,277.807 469,271.5C 470.487,270.747 470.654,269.914 469.5,269C 469.928,266.371 470.928,264.038 472.5,262C 471.521,260.221 471.854,258.555 473.5,257C 473.5,255.667 473.5,254.333 473.5,253C 472.5,252.667 471.5,252.333 470.5,252C 472.079,246.755 473.412,240.755 474.5,234C 473.956,233.283 473.289,232.783 472.5,232.5C 474.393,223.534 476.227,214.534 478,205.5C 478.667,199.833 478.667,194.167 478,188.5C 473.667,182.167 469.333,175.833 465,169.5C 459.462,163.166 452.628,159.166 444.5,157.5C 445.857,156.315 447.357,155.315 449,154.5C 450.032,156.145 451.199,156.478 452.5,155.5C 454.731,156.903 457.064,158.07 459.5,159C 462.206,162.454 465.206,164.788 468.5,166C 467.549,166.718 467.383,167.551 468,168.5C 469.494,167.253 470.994,167.253 472.5,168.5C 475.52,171.355 478.687,174.021 482,176.5C 482.545,173.312 483.045,170.145 483.5,167C 482.5,166.167 481.5,165.333 480.5,164.5C 480.709,163.914 481.043,163.414 481.5,163C 479.14,161.126 479.473,159.626 482.5,158.5 Z"/></g>
<g><path style="opacity:1" fill="#8775ed" d="M 261.5,189.5 C 255.359,222.375 248.526,255.042 241,287.5C 234.667,279.833 228.333,272.167 222,264.5C 219.726,260.286 217.726,255.953 216,251.5C 210.982,254.955 209.316,259.622 211,265.5C 212.836,270.822 215.669,275.489 219.5,279.5C 217.399,283.566 216.065,287.899 215.5,292.5C 217.654,296.928 217.321,301.762 214.5,307C 214.833,307.333 215.167,307.667 215.5,308C 213.959,311.55 211.626,314.55 208.5,317C 209.654,317.914 209.487,318.747 208,319.5C 207.667,319.167 207.333,318.833 207,318.5C 205.667,319.833 204.333,321.167 203,322.5C 201.846,321.257 200.512,320.257 199,319.5C 196.145,323.064 193.145,323.064 190,319.5C 189.667,319.833 189.333,320.167 189,320.5C 184.352,318.005 180.019,315.005 176,311.5C 174.251,312.299 172.918,311.632 172,309.5C 170.434,310.061 169.101,309.394 168,307.5C 166.434,308.061 165.101,307.394 164,305.5C 162.36,304.875 160.527,304.875 158.5,305.5C 154.702,302.204 151.036,298.704 147.5,295C 144.97,293.578 142.303,293.245 139.5,294C 136.771,298.015 135.771,302.515 136.5,307.5C 135.028,309.134 133.362,310.634 131.5,312C 131.833,312.333 132.167,312.667 132.5,313C 130.833,315.333 129.167,317.667 127.5,320C 127.833,320.333 128.167,320.667 128.5,321C 126.199,325.19 125.199,329.524 125.5,334C 124.069,334.465 122.903,335.299 122,336.5C 121.667,335.5 121.333,334.5 121,333.5C 117.833,336.667 114.667,339.833 111.5,343C 114.849,343.089 115.349,344.256 113,346.5C 108.236,346.226 103.403,345.226 98.5,343.5C 94.8638,342.324 91.8638,340.158 89.5,337C 89.5979,335.715 89.5979,334.549 89.5,333.5C 89.9528,332.542 90.6195,331.708 91.5,331C 91.5,328.333 91.5,325.667 91.5,323C 93.019,321.649 94.3523,320.149 95.5,318.5C 94.3595,317.575 94.3595,316.741 95.5,316C 94.8333,315.667 94.1667,315.333 93.5,315C 94.8333,314.333 96.1667,314.333 97.5,315C 97.1667,315.333 96.8333,315.667 96.5,316C 99.474,317.506 99.8073,319.172 97.5,321C 98.8333,322.333 100.167,323.667 101.5,325C 105.89,325.464 109.557,324.131 112.5,321C 112.167,320.667 111.833,320.333 111.5,320C 113.632,319.082 114.299,317.749 113.5,316C 115.394,314.899 116.061,313.566 115.5,312C 117.394,310.899 118.061,309.566 117.5,308C 122.667,300.167 129.167,293.667 137,288.5C 138.938,289.86 140.604,289.527 142,287.5C 144.442,287.65 146.942,287.984 149.5,288.5C 152.268,286.726 154.934,285.56 157.5,285C 156.167,284.333 156.167,283.667 157.5,283C 156.5,282.667 155.5,282.333 154.5,282C 156.833,279.667 159.167,277.333 161.5,275C 161.167,274.667 160.833,274.333 160.5,274C 162.667,271.833 164.833,269.667 167,267.5C 167.333,267.833 167.667,268.167 168,268.5C 169.487,267.747 169.654,266.914 168.5,266C 173.608,262.241 177.108,257.408 179,251.5C 179.333,251.833 179.667,252.167 180,252.5C 181.487,251.747 181.654,250.914 180.5,250C 181.893,247.822 183.56,246.822 185.5,247C 184.742,245.636 185.242,244.469 187,243.5C 187.914,244.654 188.747,244.487 189.5,243C 190.465,239.783 190.465,236.45 189.5,233C 192.147,228.302 195.647,227.468 200,230.5C 201.101,228.606 202.434,227.939 204,228.5C 203.822,226.56 204.822,224.893 207,223.5C 210.331,224.136 212.997,222.803 215,219.5C 215.333,219.833 215.667,220.167 216,220.5C 217.61,217.614 219.777,216.614 222.5,217.5C 224.205,216.455 225.705,215.122 227,213.5C 227.333,213.833 227.667,214.167 228,214.5C 229.779,212.983 229.279,212.149 226.5,212C 228.861,211.803 230.528,210.636 231.5,208.5C 232.216,209.896 232.383,211.562 232,213.5C 236.313,210.216 240.646,206.216 245,201.5C 245.333,202.167 245.667,202.833 246,203.5C 247.688,201.133 249.021,198.8 250,196.5C 250.667,197.167 251.333,197.833 252,198.5C 253.751,196.51 254.751,194.177 255,191.5C 255.667,192.167 256.333,192.833 257,193.5C 258.371,191.959 259.871,190.625 261.5,189.5 Z"/></g>
<g><path style="opacity:1" fill="#ab79e5" d="M 451.5,170.5 C 453.797,172.294 455.963,174.294 458,176.5C 458.667,181.833 458.667,187.167 458,192.5C 453.066,220.006 447.566,247.339 441.5,274.5C 437.843,273.78 437.176,272.28 439.5,270C 437.875,269.147 437.542,268.147 438.5,267C 437.809,265.933 437.309,264.766 437,263.5C 436.667,263.833 436.333,264.167 436,264.5C 434.961,260.988 434.294,257.655 434,254.5C 433.535,255.931 432.701,257.097 431.5,258C 431.833,259 432.167,260 432.5,261C 431.167,266.333 429.833,271.667 428.5,277C 428.833,278 429.167,279 429.5,280C 427.63,284.288 426.13,288.788 425,293.5C 423.783,291.48 423.617,289.48 424.5,287.5C 422.664,285.818 421.664,284.151 421.5,282.5C 421.063,279.998 420.73,277.498 420.5,275C 421.536,271.149 422.87,267.149 424.5,263C 424.167,261.333 423.833,259.667 423.5,258C 425.527,256.604 425.86,254.938 424.5,253C 426.146,251.445 426.479,249.779 425.5,248C 427.973,246.598 427.973,245.098 425.5,243.5C 426.025,242.808 426.692,242.308 427.5,242C 427.028,238.981 427.028,235.481 427.5,231.5C 427.918,230.778 428.584,230.278 429.5,230C 428.167,228.667 428.167,227.333 429.5,226C 428.833,222.667 428.167,219.333 427.5,216C 427.833,215.667 428.167,215.333 428.5,215C 427.303,212.325 426.303,209.991 425.5,208C 427.791,208.811 429.625,207.977 431,205.5C 431.333,206.5 431.667,207.5 432,208.5C 432.333,208.167 432.667,207.833 433,207.5C 433.333,208.5 433.667,209.5 434,210.5C 434.333,210.167 434.667,209.833 435,209.5C 435.333,211.167 435.667,212.833 436,214.5C 437.487,213.747 437.654,212.914 436.5,212C 438.045,210.178 438.712,208.011 438.5,205.5C 438.134,200.336 437.134,195.336 435.5,190.5C 437.463,189.04 439.296,187.373 441,185.5C 441.333,186.5 441.667,187.5 442,188.5C 444.573,187.346 446.739,185.68 448.5,183.5C 451.099,180.906 450.766,179.406 447.5,179C 449.167,177.333 450.833,175.667 452.5,174C 450.273,173.296 449.94,172.129 451.5,170.5 Z"/></g>
<g><path style="opacity:1" fill="#a77bee" d="M 435.5,190.5 C 437.134,195.336 438.134,200.336 438.5,205.5C 438.712,208.011 438.045,210.178 436.5,212C 437.654,212.914 437.487,213.747 436,214.5C 435.667,212.833 435.333,211.167 435,209.5C 434.667,209.833 434.333,210.167 434,210.5C 433.667,209.5 433.333,208.5 433,207.5C 432.667,207.833 432.333,208.167 432,208.5C 431.667,207.5 431.333,206.5 431,205.5C 429.625,207.977 427.791,208.811 425.5,208C 426.303,209.991 427.303,212.325 428.5,215C 428.167,215.333 427.833,215.667 427.5,216C 428.167,219.333 428.833,222.667 429.5,226C 428.167,227.333 428.167,228.667 429.5,230C 428.584,230.278 427.918,230.778 427.5,231.5C 426.9,228.375 425.733,228.042 424,230.5C 422.667,227.833 421.333,227.833 420,230.5C 420.214,225.103 418.881,224.436 416,228.5C 415.577,227.044 414.744,226.544 413.5,227C 399.748,240.752 385.914,254.586 372,268.5C 372.449,271.99 372.282,275.49 371.5,279C 373.807,280.828 373.474,282.494 370.5,284C 372.267,285.488 372.601,286.988 371.5,288.5C 368.203,283.702 364.37,279.369 360,275.5C 359.617,276.056 359.117,276.389 358.5,276.5C 357.547,274.39 355.881,273.223 353.5,273C 354.654,272.086 354.487,271.253 353,270.5C 351.853,271.458 350.853,271.125 350,269.5C 345.237,270.64 340.404,270.64 335.5,269.5C 334.205,270.098 332.872,270.598 331.5,271C 332.696,271.654 332.696,272.154 331.5,272.5C 329.214,271.58 326.881,271.58 324.5,272.5C 323.475,272.103 323.308,271.437 324,270.5C 325.167,269.333 326.333,268.167 327.5,267C 326.833,266.333 326.167,265.667 325.5,265C 329.5,261 333.5,257 337.5,253C 338.549,252.508 339.549,252.674 340.5,253.5C 342.316,252.185 343.983,250.685 345.5,249C 346.549,248.508 347.549,248.674 348.5,249.5C 349.522,249.145 350.189,248.478 350.5,247.5C 353.521,249.003 355.855,248.169 357.5,245C 362.484,244.33 366.984,242.496 371,239.5C 371.333,239.833 371.667,240.167 372,240.5C 379.333,233.167 386.667,225.833 394,218.5C 395.484,215.531 396.984,212.531 398.5,209.5C 402.623,203.844 407.623,198.344 413.5,193C 415.433,192.749 417.266,192.249 419,191.5C 419.333,191.833 419.667,192.167 420,192.5C 421.582,189.659 423.749,188.659 426.5,189.5C 428.59,186.991 430.423,187.325 432,190.5C 433.393,187.875 434.559,187.875 435.5,190.5 Z"/></g>
<g><path style="opacity:1" fill="#7170ec" d="M 115.5,219.5 C 116.22,221.862 115.553,224.029 113.5,226C 114.167,229.333 114.833,232.667 115.5,236C 115.167,236.333 114.833,236.667 114.5,237C 115.874,240.237 117.874,243.071 120.5,245.5C 121.086,245.291 121.586,244.957 122,244.5C 124.026,247.287 126.36,248.953 129,249.5C 131.667,249.5 134.333,249.5 137,249.5C 139.791,248.438 142.457,247.105 145,245.5C 145.5,246 146,246.5 146.5,247C 144.468,247.166 142.635,248.333 141,250.5C 138.849,251.588 136.682,253.422 134.5,256C 130.768,255.812 127.934,257.312 126,260.5C 124.333,260.167 122.667,259.833 121,259.5C 118.852,260.977 117.518,262.977 117,265.5C 114.524,263.185 112.191,263.518 110,266.5C 108.663,265.235 107.163,264.735 105.5,265C 105.833,265.333 106.167,265.667 106.5,266C 105.107,268.178 103.44,269.178 101.5,269C 102.258,270.364 101.758,271.531 100,272.5C 99.0862,271.346 98.2529,271.513 97.5,273C 98.2583,274.364 97.7583,275.531 96,276.5C 95.0862,275.346 94.2529,275.513 93.5,277C 93.5,279 93.5,281 93.5,283C 91.2332,286.84 88.5665,290.84 85.5,295C 85.4615,296.245 85.7948,297.578 86.5,299C 84.7505,301.086 83.4172,303.419 82.5,306C 82.9589,307.943 81.9589,309.276 79.5,310C 80.056,310.383 80.3893,310.883 80.5,311.5C 78.9147,310.526 77.9147,309.026 77.5,307C 78.4791,305.221 78.1458,303.555 76.5,302C 77.4791,300.221 77.1458,298.555 75.5,297C 75.6651,295.883 75.9984,294.716 76.5,293.5C 75.9747,292.808 75.3081,292.308 74.5,292C 74.8333,290.333 75.1667,288.667 75.5,287C 74.3001,281.34 72.9668,275.673 71.5,270C 73.0067,268.333 72.6734,267.166 70.5,266.5C 69.8664,263.259 69.8664,260.592 70.5,258.5C 74.4156,257.464 75.9156,255.13 75,251.5C 77.1667,249.333 79.3333,247.167 81.5,245C 80.9186,244.107 80.5852,243.107 80.5,242C 83.8381,233.99 89.3381,227.824 97,223.5C 99.9662,227.301 101.966,226.635 103,221.5C 103.333,221.833 103.667,222.167 104,222.5C 106.011,218.998 107.344,218.998 108,222.5C 110,220.5 112,218.5 114,216.5C 114.617,217.449 114.451,218.282 113.5,219C 114.094,219.464 114.761,219.631 115.5,219.5 Z"/></g>
<g><path style="opacity:1" fill="#9d7bf1" d="M 324.5,195.5 C 324.36,197.71 325.027,200.21 326.5,203C 326.167,204 325.833,205 325.5,206C 326.643,210.323 328.643,214.656 331.5,219C 331.167,219.333 330.833,219.667 330.5,220C 333.265,221.747 335.598,223.247 337.5,224.5C 336.404,227.012 337.238,229.012 340,230.5C 340.333,230.167 340.667,229.833 341,229.5C 342.447,231.403 344.114,233.07 346,234.5C 346.333,234.167 346.667,233.833 347,233.5C 349.369,234.268 351.535,235.435 353.5,237C 353,237.5 352.5,238 352,238.5C 349.482,236.536 346.816,235.87 344,236.5C 342.428,238.589 340.595,238.589 338.5,236.5C 336.865,237.33 335.198,237.497 333.5,237C 334.622,239.124 336.122,240.957 338,242.5C 338.333,242.167 338.667,241.833 339,241.5C 342.503,244.179 346.337,246.179 350.5,247.5C 350.189,248.478 349.522,249.145 348.5,249.5C 347.549,248.674 346.549,248.508 345.5,249C 343.983,250.685 342.316,252.185 340.5,253.5C 339.549,252.674 338.549,252.508 337.5,253C 333.5,257 329.5,261 325.5,265C 326.167,265.667 326.833,266.333 327.5,267C 326.333,268.167 325.167,269.333 324,270.5C 323.308,271.437 323.475,272.103 324.5,272.5C 317.13,276.428 310.463,281.428 304.5,287.5C 299.397,297.391 292.23,305.391 283,311.5C 282.667,310.5 282.333,309.5 282,308.5C 278.613,310.318 276.613,309.318 276,305.5C 274.636,306.258 273.469,305.758 272.5,304C 272.833,303.667 273.167,303.333 273.5,303C 272.177,302.184 271.511,301.017 271.5,299.5C 269.671,298.226 269.338,296.726 270.5,295C 270.241,293.739 269.574,292.739 268.5,292C 267.639,288.712 267.639,285.212 268.5,281.5C 266.812,276.951 265.812,272.951 265.5,269.5C 265.945,266.755 266.945,264.255 268.5,262C 268.167,261.667 267.833,261.333 267.5,261C 269.205,258.523 271.205,257.189 273.5,257C 272.742,255.636 273.242,254.469 275,253.5C 275.914,254.654 276.747,254.487 277.5,253C 277.32,248.246 279.32,244.246 283.5,241C 283.167,240.667 282.833,240.333 282.5,240C 283.977,238.116 285.31,236.116 286.5,234C 286.167,233.667 285.833,233.333 285.5,233C 286.253,231.513 287.086,231.346 288,232.5C 290.178,231.107 291.178,229.44 291,227.5C 291.333,227.833 291.667,228.167 292,228.5C 293.758,227.531 294.258,226.364 293.5,225C 294.253,223.513 295.086,223.346 296,224.5C 297.758,223.531 298.258,222.364 297.5,221C 298.253,219.513 299.086,219.346 300,220.5C 301.758,219.531 302.258,218.364 301.5,217C 302.253,215.513 303.086,215.346 304,216.5C 305.512,214.043 306.846,214.043 308,216.5C 310.021,213.714 311.521,214.047 312.5,217.5C 312.781,215.343 314.281,213.677 317,212.5C 316.145,209.227 314.645,206.06 312.5,203C 315.028,200.925 314.861,200.092 312,200.5C 311.691,199.234 311.191,198.067 310.5,197C 312.301,196.683 312.634,196.016 311.5,195C 313.443,191.668 314.61,191.834 315,195.5C 317.328,193.562 319.661,193.895 322,196.5C 322.671,195.748 323.504,195.414 324.5,195.5 Z"/></g>
<g><path style="opacity:0.008" fill="#000000" d="M -0.5,271.5 C 1.64424,291.545 5.97757,311.211 12.5,330.5C 18.3073,347.778 25.974,364.111 35.5,379.5C 42.7582,391.084 50.7582,402.084 59.5,412.5C 65.1305,419.798 71.4639,426.465 78.5,432.5C 79.973,434.395 81.6397,436.061 83.5,437.5C 54.0135,436.691 33.8468,422.691 23,395.5C 20.2678,388.637 17.9344,381.637 16,374.5C 10.2886,351.749 4.78862,329.082 -0.5,306.5C -0.5,294.833 -0.5,283.167 -0.5,271.5 Z"/></g>
<g><path style="opacity:1" fill="#a078e8" d="M 358.5,276.5 C 357.167,278.5 357.167,280.5 358.5,282.5C 350.811,280.245 342.978,278.579 335,277.5C 330.333,277.331 326.5,278.997 323.5,282.5C 321.061,287.574 319.227,292.907 318,298.5C 315.921,308.896 313.588,319.229 311,329.5C 308.005,335.416 303.172,338.416 296.5,338.5C 287.55,337.61 278.883,335.943 270.5,333.5C 273.718,333.349 274.051,332.516 271.5,331C 274.333,329.167 274.167,327.667 271,326.5C 270.231,323.901 270.398,321.401 271.5,319C 271.004,317.004 270.004,315.337 268.5,314C 269.13,312.108 270.13,310.441 271.5,309C 270.692,308.692 270.025,308.192 269.5,307.5C 270.64,305.259 270.64,303.092 269.5,301C 270.044,300.283 270.711,299.783 271.5,299.5C 271.511,301.017 272.177,302.184 273.5,303C 273.167,303.333 272.833,303.667 272.5,304C 273.469,305.758 274.636,306.258 276,305.5C 276.613,309.318 278.613,310.318 282,308.5C 282.333,309.5 282.667,310.5 283,311.5C 292.23,305.391 299.397,297.391 304.5,287.5C 310.463,281.428 317.13,276.428 324.5,272.5C 326.881,271.58 329.214,271.58 331.5,272.5C 332.696,272.154 332.696,271.654 331.5,271C 332.872,270.598 334.205,270.098 335.5,269.5C 340.404,270.64 345.237,270.64 350,269.5C 350.853,271.125 351.853,271.458 353,270.5C 354.487,271.253 354.654,272.086 353.5,273C 355.881,273.223 357.547,274.39 358.5,276.5 Z"/></g>
<g><path style="opacity:0.012" fill="#000000" d="M 499.5,271.5 C 499.5,297.167 499.5,322.833 499.5,348.5C 496.312,361.902 492.479,375.235 488,388.5C 479.386,408.443 464.552,421.276 443.5,427C 436.867,428.494 430.201,429.66 423.5,430.5C 448.836,405.172 468.169,375.839 481.5,342.5C 485.526,334.266 488.692,325.599 491,316.5C 494.716,301.522 497.549,286.522 499.5,271.5 Z"/></g>
<g><path style="opacity:1" fill="#666eeb" d="M 0.5,225.5 C 1.26791,226.263 1.76791,227.263 2,228.5C 3,227.5 4,226.5 5,225.5C 6.01948,226.687 7.18614,227.687 8.5,228.5C 9.04673,232.397 10.2134,236.397 12,240.5C 12.9138,239.346 13.7471,239.513 14.5,241C 14.1667,242 13.8333,243 13.5,244C 16.3603,247.03 16.027,249.697 12.5,252C 14.1161,252.615 15.4495,253.615 16.5,255C 15.7607,257.235 15.7607,259.235 16.5,261C 17.3333,261.833 18.1667,262.667 19,263.5C 20.1261,266.77 20.2928,269.603 19.5,272C 22.1667,273.333 22.1667,274.667 19.5,276C 20.0944,276.464 20.7611,276.631 21.5,276.5C 22.0283,277.721 22.695,278.887 23.5,280C 22.7321,283.403 23.7321,286.403 26.5,289C 25.8333,289.667 25.1667,290.333 24.5,291C 25.8333,292.333 27.1667,293.667 28.5,295C 28.1667,296 27.8333,297 27.5,298C 29.4812,298.605 29.8146,299.605 28.5,301C 29,301.5 29.5,302 30,302.5C 31.7608,311.173 33.5942,319.507 35.5,327.5C 34.2058,328.29 33.0391,329.29 32,330.5C 31.3439,326.998 30.0105,326.998 28,330.5C 27.6667,328.833 27.3333,327.167 27,325.5C 24.8219,326.893 23.8219,328.56 24,330.5C 22.6667,325.167 21.3333,325.167 20,330.5C 18.6667,329.833 17.6667,328.833 17,327.5C 16.3333,328.833 15.6667,328.833 15,327.5C 13.513,328.253 13.3463,329.086 14.5,330C 13.9056,330.464 13.2389,330.631 12.5,330.5C 5.97757,311.211 1.64424,291.545 -0.5,271.5C -0.5,256.833 -0.5,242.167 -0.5,227.5C 0.338246,227.158 0.67158,226.492 0.5,225.5 Z"/></g>
<g><path style="opacity:1" fill="#8d72e2" d="M 219.5,279.5 C 226.12,286.052 232.287,293.052 238,300.5C 236.657,310.752 235.824,321.086 235.5,331.5C 225.279,334.093 214.945,336.26 204.5,338C 196.955,339.126 189.621,338.46 182.5,336C 172.737,327.087 164.737,316.921 158.5,305.5C 160.527,304.875 162.36,304.875 164,305.5C 165.101,307.394 166.434,308.061 168,307.5C 169.101,309.394 170.434,310.061 172,309.5C 172.918,311.632 174.251,312.299 176,311.5C 180.019,315.005 184.352,318.005 189,320.5C 189.333,320.167 189.667,319.833 190,319.5C 193.145,323.064 196.145,323.064 199,319.5C 200.512,320.257 201.846,321.257 203,322.5C 204.333,321.167 205.667,319.833 207,318.5C 207.333,318.833 207.667,319.167 208,319.5C 209.487,318.747 209.654,317.914 208.5,317C 211.626,314.55 213.959,311.55 215.5,308C 215.167,307.667 214.833,307.333 214.5,307C 217.321,301.762 217.654,296.928 215.5,292.5C 216.065,287.899 217.399,283.566 219.5,279.5 Z"/></g>
<g><path style="opacity:1" fill="#9676e6" d="M 254.5,260.5 C 255.574,261.885 256.907,263.051 258.5,264C 258,264.5 257.5,265 257,265.5C 255.915,263.343 254.749,263.176 253.5,265C 258.051,268.404 259.718,272.737 258.5,278C 260.133,280.86 261.8,281.027 263.5,278.5C 263.743,276.045 263.743,273.545 263.5,271C 264.044,270.283 264.711,269.783 265.5,269.5C 265.812,272.951 266.812,276.951 268.5,281.5C 267.639,285.212 267.639,288.712 268.5,292C 269.574,292.739 270.241,293.739 270.5,295C 269.338,296.726 269.671,298.226 271.5,299.5C 270.711,299.783 270.044,300.283 269.5,301C 270.64,303.092 270.64,305.259 269.5,307.5C 270.025,308.192 270.692,308.692 271.5,309C 270.13,310.441 269.13,312.108 268.5,314C 270.004,315.337 271.004,317.004 271.5,319C 270.398,321.401 270.231,323.901 271,326.5C 274.167,327.667 274.333,329.167 271.5,331C 274.051,332.516 273.718,333.349 270.5,333.5C 263.58,333.154 256.913,331.654 250.5,329C 243.634,323.073 241.8,315.906 245,307.5C 247.135,309.278 249.635,309.945 252.5,309.5C 252.47,304.588 250.97,300.255 248,296.5C 247.833,295.333 247.667,294.167 247.5,293C 249.152,281.882 251.485,271.048 254.5,260.5 Z"/></g>
<g><path style="opacity:1" fill="#746ee4" d="M 70.5,266.5 C 72.6734,267.166 73.0067,268.333 71.5,270C 72.9668,275.673 74.3001,281.34 75.5,287C 75.1667,288.667 74.8333,290.333 74.5,292C 75.3081,292.308 75.9747,292.808 76.5,293.5C 75.9984,294.716 75.6651,295.883 75.5,297C 77.1458,298.555 77.4791,300.221 76.5,302C 78.1458,303.555 78.4791,305.221 77.5,307C 77.9147,309.026 78.9147,310.526 80.5,311.5C 79.6887,316.272 80.6887,320.772 83.5,325C 83.1667,325.333 82.8333,325.667 82.5,326C 83.7158,327.74 85.3825,328.74 87.5,329C 87.5,330.333 87.5,331.667 87.5,333C 88.0944,333.464 88.7611,333.631 89.5,333.5C 89.5979,334.549 89.5979,335.715 89.5,337C 91.8638,340.158 94.8638,342.324 98.5,343.5C 97.8506,344.606 97.5173,345.606 97.5,346.5C 94.7238,345.911 92.3904,344.578 90.5,342.5C 90.1667,342.833 89.8333,343.167 89.5,343.5C 90.8333,344.833 90.8333,346.167 89.5,347.5C 90.0253,348.192 90.6919,348.692 91.5,349C 91.0183,350.008 90.8516,351.175 91,352.5C 88.0681,351.544 85.4015,349.544 83,346.5C 82.6667,346.833 82.3333,347.167 82,347.5C 80.1667,345.667 78.3333,343.833 76.5,342C 76.8333,341.667 77.1667,341.333 77.5,341C 75.5563,338.371 73.223,336.204 70.5,334.5C 67.3203,318.118 63.987,301.784 60.5,285.5C 61.1174,285.611 61.6174,285.944 62,286.5C 64.4825,284.74 64.9825,282.573 63.5,280C 67.585,278.45 68.585,275.95 66.5,272.5C 68.3157,270.71 69.6491,268.71 70.5,266.5 Z"/></g>
<g><path style="opacity:1" fill="#b67ff1" d="M 427.5,231.5 C 427.028,235.481 427.028,238.981 427.5,242C 426.692,242.308 426.025,242.808 425.5,243.5C 427.973,245.098 427.973,246.598 425.5,248C 426.479,249.779 426.146,251.445 424.5,253C 425.86,254.938 425.527,256.604 423.5,258C 423.833,259.667 424.167,261.333 424.5,263C 422.87,267.149 421.536,271.149 420.5,275C 420.73,277.498 421.063,279.998 421.5,282.5C 419.95,284.3 418.95,286.467 418.5,289C 418.833,290 419.167,291 419.5,292C 417.473,293.396 417.14,295.062 418.5,297C 416.854,298.555 416.521,300.221 417.5,302C 414.751,305.426 414.085,308.76 415.5,312C 414.5,313 413.5,314 412.5,315C 412.665,316.117 412.998,317.284 413.5,318.5C 412.975,319.192 412.308,319.692 411.5,320C 411.833,320.333 412.167,320.667 412.5,321C 409.62,330.606 403.786,337.773 395,342.5C 393.667,339.833 392.333,339.833 391,342.5C 390.15,341.576 389.15,341.576 388,342.5C 385.865,340.563 383.699,339.396 381.5,339C 381.833,338.667 382.167,338.333 382.5,338C 381.627,335.435 380.294,332.768 378.5,330C 378.833,329.667 379.167,329.333 379.5,329C 378.736,326.931 378.236,324.764 378,322.5C 377.308,323.025 376.808,323.692 376.5,324.5C 377.165,326.101 377.499,327.601 377.5,329C 375.191,334.089 373.858,339.256 373.5,344.5C 372.646,343.478 371.646,342.645 370.5,342C 369.548,334.241 369.548,326.241 370.5,318C 368.673,314.104 368.339,310.438 369.5,307C 368.87,305.108 367.87,303.441 366.5,302C 366.833,301.667 367.167,301.333 367.5,301C 366.413,298.433 365.413,295.933 364.5,293.5C 364.313,291.436 363.813,289.436 363,287.5C 361.293,285.963 359.793,284.296 358.5,282.5C 357.167,280.5 357.167,278.5 358.5,276.5C 359.117,276.389 359.617,276.056 360,275.5C 364.37,279.369 368.203,283.702 371.5,288.5C 372.601,286.988 372.267,285.488 370.5,284C 373.474,282.494 373.807,280.828 371.5,279C 372.282,275.49 372.449,271.99 372,268.5C 385.914,254.586 399.748,240.752 413.5,227C 414.744,226.544 415.577,227.044 416,228.5C 418.881,224.436 420.214,225.103 420,230.5C 421.333,227.833 422.667,227.833 424,230.5C 425.733,228.042 426.9,228.375 427.5,231.5 Z"/></g>
<g><path style="opacity:1" fill="#6a6ce2" d="M 37.5,248.5 C 42.412,268.605 46.7453,288.939 50.5,309.5C 49.791,310.404 48.791,310.737 47.5,310.5C 47.2116,314.791 48.2116,318.291 50.5,321C 49.9394,322.566 50.6061,323.899 52.5,325C 50.6063,326.079 50.273,327.413 51.5,329C 50.0826,331.826 48.5826,331.993 47,329.5C 44.1194,333.564 42.786,332.897 43,327.5C 42.6643,329.074 41.8309,330.408 40.5,331.5C 39.7189,330.271 39.2189,328.938 39,327.5C 38.2828,328.044 37.7828,328.711 37.5,329.5C 36.1667,329.5 35.5,328.833 35.5,327.5C 33.5942,319.507 31.7608,311.173 30,302.5C 29.5,302 29,301.5 28.5,301C 29.8146,299.605 29.4812,298.605 27.5,298C 27.8333,297 28.1667,296 28.5,295C 27.1667,293.667 25.8333,292.333 24.5,291C 25.1667,290.333 25.8333,289.667 26.5,289C 23.7321,286.403 22.7321,283.403 23.5,280C 22.695,278.887 22.0283,277.721 21.5,276.5C 23.4199,275.721 25.2532,275.387 27,275.5C 28.1544,277.957 29.4877,277.957 31,275.5C 31.6561,279.002 32.9895,279.002 35,275.5C 34.8693,272.905 35.036,270.405 35.5,268C 33.0157,263.947 31.6824,259.78 31.5,255.5C 31.4409,251.822 32.4409,251.155 34.5,253.5C 36.756,252.579 37.756,250.912 37.5,248.5 Z"/></g>
<g><path style="opacity:1" fill="#8070e3" d="M 136.5,307.5 C 138.321,311.97 139.321,316.636 139.5,321.5C 139.034,323.201 139.034,324.701 139.5,326C 138.455,327.616 137.455,329.283 136.5,331C 137.167,331.667 137.833,332.333 138.5,333C 137.101,334.062 136.101,335.395 135.5,337C 137.95,342.067 138.616,347.567 137.5,353.5C 134.941,353.198 132.607,353.532 130.5,354.5C 118.243,357.306 105.91,359.806 93.5,362C 86.5204,363.563 81.0204,361.396 77,355.5C 74.2,348.713 72.0333,341.713 70.5,334.5C 73.223,336.204 75.5563,338.371 77.5,341C 77.1667,341.333 76.8333,341.667 76.5,342C 78.3333,343.833 80.1667,345.667 82,347.5C 82.3333,347.167 82.6667,346.833 83,346.5C 85.4015,349.544 88.0681,351.544 91,352.5C 90.8516,351.175 91.0183,350.008 91.5,349C 90.6919,348.692 90.0253,348.192 89.5,347.5C 90.8333,346.167 90.8333,344.833 89.5,343.5C 89.8333,343.167 90.1667,342.833 90.5,342.5C 92.3904,344.578 94.7238,345.911 97.5,346.5C 97.5173,345.606 97.8506,344.606 98.5,343.5C 103.403,345.226 108.236,346.226 113,346.5C 115.349,344.256 114.849,343.089 111.5,343C 114.667,339.833 117.833,336.667 121,333.5C 121.333,334.5 121.667,335.5 122,336.5C 122.903,335.299 124.069,334.465 125.5,334C 125.199,329.524 126.199,325.19 128.5,321C 128.167,320.667 127.833,320.333 127.5,320C 129.167,317.667 130.833,315.333 132.5,313C 132.167,312.667 131.833,312.333 131.5,312C 133.362,310.634 135.028,309.134 136.5,307.5 Z"/></g>
<g><path style="opacity:1" fill="#b77de7" d="M 441.5,274.5 C 436.987,298.231 432.154,321.897 427,345.5C 424.31,358.589 416.476,363.756 403.5,361C 393.542,358.815 383.542,356.815 373.5,355C 360.269,352.442 355.102,344.609 358,331.5C 360.927,318.94 363.093,306.273 364.5,293.5C 365.413,295.933 366.413,298.433 367.5,301C 367.167,301.333 366.833,301.667 366.5,302C 367.87,303.441 368.87,305.108 369.5,307C 368.339,310.438 368.673,314.104 370.5,318C 369.548,326.241 369.548,334.241 370.5,342C 371.646,342.645 372.646,343.478 373.5,344.5C 373.858,339.256 375.191,334.089 377.5,329C 377.499,327.601 377.165,326.101 376.5,324.5C 376.808,323.692 377.308,323.025 378,322.5C 378.236,324.764 378.736,326.931 379.5,329C 379.167,329.333 378.833,329.667 378.5,330C 380.294,332.768 381.627,335.435 382.5,338C 382.167,338.333 381.833,338.667 381.5,339C 383.699,339.396 385.865,340.563 388,342.5C 389.15,341.576 390.15,341.576 391,342.5C 392.333,339.833 393.667,339.833 395,342.5C 403.786,337.773 409.62,330.606 412.5,321C 412.167,320.667 411.833,320.333 411.5,320C 412.308,319.692 412.975,319.192 413.5,318.5C 412.998,317.284 412.665,316.117 412.5,315C 413.5,314 414.5,313 415.5,312C 414.085,308.76 414.751,305.426 417.5,302C 416.521,300.221 416.854,298.555 418.5,297C 417.14,295.062 417.473,293.396 419.5,292C 419.167,291 418.833,290 418.5,289C 418.95,286.467 419.95,284.3 421.5,282.5C 421.664,284.151 422.664,285.818 424.5,287.5C 423.617,289.48 423.783,291.48 425,293.5C 426.13,288.788 427.63,284.288 429.5,280C 429.167,279 428.833,278 428.5,277C 429.833,271.667 431.167,266.333 432.5,261C 432.167,260 431.833,259 431.5,258C 432.701,257.097 433.535,255.931 434,254.5C 434.294,257.655 434.961,260.988 436,264.5C 436.333,264.167 436.667,263.833 437,263.5C 437.309,264.766 437.809,265.933 438.5,267C 437.542,268.147 437.875,269.147 439.5,270C 437.176,272.28 437.843,273.78 441.5,274.5 Z"/></g>
<g><path style="opacity:1" fill="#a374db" d="M 348.5,346.5 C 346.037,348.461 343.703,350.628 341.5,353C 337.427,353.907 333.761,355.574 330.5,358C 327.654,358.393 325.154,358.226 323,357.5C 321.955,358.373 321.122,359.373 320.5,360.5C 318.282,359.402 316.115,359.402 314,360.5C 312.667,357.833 311.333,357.833 310,360.5C 308.982,358.436 307.649,358.102 306,359.5C 303.961,358.015 301.794,357.181 299.5,357C 299.833,356 300.167,355 300.5,354C 303.823,354.341 307.157,353.841 310.5,352.5C 312.098,353.485 313.765,353.651 315.5,353C 314.944,352.617 314.611,352.117 314.5,351.5C 319.499,351.112 323.999,349.446 328,346.5C 330.789,341.466 332.789,336.132 334,330.5C 335.238,322.407 336.904,314.407 339,306.5C 340.039,304.254 341.206,302.087 342.5,300C 350.919,295.818 355.252,298.485 355.5,308C 353.718,321.064 351.385,333.897 348.5,346.5 Z"/></g>
<g><path style="opacity:1" fill="#bf7de3" d="M 472.5,232.5 C 473.289,232.783 473.956,233.283 474.5,234C 473.412,240.755 472.079,246.755 470.5,252C 471.5,252.333 472.5,252.667 473.5,253C 473.5,254.333 473.5,255.667 473.5,257C 471.854,258.555 471.521,260.221 472.5,262C 470.928,264.038 469.928,266.371 469.5,269C 470.654,269.914 470.487,270.747 469,271.5C 467.47,277.807 466.47,284.14 466,290.5C 467.487,289.747 467.654,288.914 466.5,288C 467.754,283.534 469.754,279.534 472.5,276C 472.167,275.667 471.833,275.333 471.5,275C 472.759,272.038 474.259,269.205 476,266.5C 478.137,258.799 481.137,251.133 485,243.5C 485.423,246.732 484.589,249.566 482.5,252C 484.394,253.101 485.061,254.434 484.5,256C 482.234,260.118 480.9,264.618 480.5,269.5C 478.322,274.164 476.822,279.164 476,284.5C 474.46,287.768 472.96,290.602 471.5,293C 475.102,293.635 475.768,294.968 473.5,297C 473.5,299.667 473.5,302.333 473.5,305C 472.833,305.667 472.167,306.333 471.5,307C 470.939,308.566 471.606,309.899 473.5,311C 470.91,315.771 468.91,320.771 467.5,326C 467.645,326.772 467.978,327.439 468.5,328C 465.927,336.406 463.26,344.406 460.5,352C 461.876,354.54 461.21,356.54 458.5,358C 458.833,358.333 459.167,358.667 459.5,359C 452.506,372.664 442.673,382.498 430,388.5C 429.667,388.167 429.333,387.833 429,387.5C 428.3,389.032 427.134,390.032 425.5,390.5C 418.688,390.735 411.021,390.068 402.5,388.5C 399.476,389.675 396.476,389.508 393.5,388C 394.458,386.853 394.125,385.853 392.5,385C 389.117,386.019 386.783,384.685 385.5,381C 386.667,379.833 387.833,378.667 389,377.5C 390,377.833 391,378.167 392,378.5C 393.506,375.526 395.172,375.193 397,377.5C 398.045,376.627 398.878,375.627 399.5,374.5C 410.505,374.667 421.505,374.5 432.5,374C 441.489,372.335 446.322,366.835 447,357.5C 455.444,315.777 463.944,274.111 472.5,232.5 Z"/></g>
<g><path style="opacity:1" fill="#c581ed" d="M 498.5,226.5 C 498.5,227.167 498.833,227.5 499.5,227.5C 499.5,242.167 499.5,256.833 499.5,271.5C 497.549,286.522 494.716,301.522 491,316.5C 488.692,325.599 485.526,334.266 481.5,342.5C 481.787,340.146 481.454,337.979 480.5,336C 482.481,335.395 482.815,334.395 481.5,333C 483.1,331.029 483.266,329.196 482,327.5C 480.887,328.76 480.72,329.927 481.5,331C 480.167,331.667 478.833,332.333 477.5,333C 477.833,333.333 478.167,333.667 478.5,334C 475.934,340.334 472.268,346.001 467.5,351C 464.972,369.662 454.138,384.495 435,395.5C 434.667,395.167 434.333,394.833 434,394.5C 432.333,395.5 430.667,396.5 429,397.5C 427.221,396.521 425.555,396.854 424,398.5C 422.333,398.167 420.667,397.833 419,397.5C 418.508,398.549 418.674,399.549 419.5,400.5C 416.64,401.18 414.14,402.513 412,404.5C 410.333,404.167 408.667,403.833 407,403.5C 404.887,405.733 402.387,407.067 399.5,407.5C 397.833,408.833 396.167,408.833 394.5,407.5C 390.552,407.314 386.719,406.648 383,405.5C 382,405.833 381,406.167 380,406.5C 379.395,404.519 378.395,404.185 377,405.5C 375.333,404.5 373.667,403.5 372,402.5C 370.667,405.167 369.333,405.167 368,402.5C 365.972,402.808 364.139,402.808 362.5,402.5C 356.255,399.13 349.755,396.13 343,393.5C 342.667,393.833 342.333,394.167 342,394.5C 340.663,392.996 338.996,391.996 337,391.5C 335.333,391.833 333.667,392.167 332,392.5C 329.705,392.311 327.705,390.977 326,388.5C 324.899,390.394 323.566,391.061 322,390.5C 322.127,387.049 323.794,386.049 327,387.5C 327.853,385.875 328.853,385.542 330,386.5C 332.085,384.955 334.252,384.622 336.5,385.5C 338.164,383.693 339.831,382.693 341.5,382.5C 339.208,381.032 337.041,380.032 335,379.5C 330.984,379.831 326.484,379.831 321.5,379.5C 321.811,378.522 322.478,377.855 323.5,377.5C 326.5,378.833 329.5,378.833 332.5,377.5C 336.193,374.324 340.526,372.824 345.5,373C 346.917,370.174 348.417,370.007 350,372.5C 351.765,371.761 353.765,371.761 356,372.5C 358.019,369.288 360.853,367.622 364.5,367.5C 376.276,369.455 387.943,371.789 399.5,374.5C 398.878,375.627 398.045,376.627 397,377.5C 395.172,375.193 393.506,375.526 392,378.5C 391,378.167 390,377.833 389,377.5C 387.833,378.667 386.667,379.833 385.5,381C 386.783,384.685 389.117,386.019 392.5,385C 394.125,385.853 394.458,386.853 393.5,388C 396.476,389.508 399.476,389.675 402.5,388.5C 411.021,390.068 418.688,390.735 425.5,390.5C 427.134,390.032 428.3,389.032 429,387.5C 429.333,387.833 429.667,388.167 430,388.5C 442.673,382.498 452.506,372.664 459.5,359C 459.167,358.667 458.833,358.333 458.5,358C 461.21,356.54 461.876,354.54 460.5,352C 463.26,344.406 465.927,336.406 468.5,328C 467.978,327.439 467.645,326.772 467.5,326C 468.91,320.771 470.91,315.771 473.5,311C 471.606,309.899 470.939,308.566 471.5,307C 472.167,306.333 472.833,305.667 473.5,305C 473.5,302.333 473.5,299.667 473.5,297C 475.768,294.968 475.102,293.635 471.5,293C 472.96,290.602 474.46,287.768 476,284.5C 476.822,279.164 478.322,274.164 480.5,269.5C 484.648,262.812 487.981,255.645 490.5,248C 490.167,247.667 489.833,247.333 489.5,247C 490.87,245.559 491.87,243.892 492.5,242C 491.542,240.853 491.875,239.853 493.5,239C 492.939,237.434 493.606,236.101 495.5,235C 494.626,232.965 494.293,230.632 494.5,228C 495.566,225.988 496.9,225.488 498.5,226.5 Z"/></g>
<g><path style="opacity:1" fill="#7571eb" d="M 35.5,327.5 C 35.5,328.833 36.1667,329.5 37.5,329.5C 37.7898,331.022 37.7898,332.522 37.5,334C 39.5268,335.396 39.8602,337.062 38.5,339C 40.1458,340.555 40.4791,342.221 39.5,344C 41.4414,345.816 42.1081,347.816 41.5,350C 43.1157,356.181 45.1157,362.181 47.5,368C 45.4689,369.61 45.4689,371.443 47.5,373.5C 47.4435,374.737 46.9435,375.737 46,376.5C 44.6667,376.5 43.3333,376.5 42,376.5C 41.6667,375.5 41.3333,374.5 41,373.5C 39.2025,375.67 37.3691,377.67 35.5,379.5C 25.974,364.111 18.3073,347.778 12.5,330.5C 13.2389,330.631 13.9056,330.464 14.5,330C 13.3463,329.086 13.513,328.253 15,327.5C 15.6667,328.833 16.3333,328.833 17,327.5C 17.6667,328.833 18.6667,329.833 20,330.5C 21.3333,325.167 22.6667,325.167 24,330.5C 23.8219,328.56 24.8219,326.893 27,325.5C 27.3333,327.167 27.6667,328.833 28,330.5C 30.0105,326.998 31.3439,326.998 32,330.5C 33.0391,329.29 34.2058,328.29 35.5,327.5 Z"/></g>
<g><path style="opacity:1" fill="#8870dd" d="M 139.5,321.5 C 140.868,323.418 141.868,325.585 142.5,328C 145.893,328.798 149.226,329.798 152.5,331C 158.363,337.896 163.863,345.063 169,352.5C 172.044,355.051 175.211,357.384 178.5,359.5C 176.863,361.124 177.197,362.124 179.5,362.5C 185.176,364.408 190.676,364.742 196,363.5C 197.326,363.245 198.326,362.578 199,361.5C 200.749,362.299 202.082,361.632 203,359.5C 203.92,359.93 204.753,360.264 205.5,360.5C 204.437,362.821 202.937,363.821 201,363.5C 197.934,365.872 194.434,367.372 190.5,368C 189.531,369.758 188.364,370.258 187,369.5C 183.617,370.674 180.45,371.341 177.5,371.5C 172.031,370.915 167.198,369.582 163,367.5C 161.853,368.458 160.853,368.125 160,366.5C 159.667,366.833 159.333,367.167 159,367.5C 157.333,366.5 155.667,365.5 154,364.5C 152.853,365.458 151.853,365.125 151,363.5C 149.667,363.5 148.333,363.5 147,363.5C 144.997,366.803 142.331,368.136 139,367.5C 137.639,370.118 135.806,370.785 133.5,369.5C 137.707,365.405 139.373,360.405 138.5,354.5C 135.833,354.5 133.167,354.5 130.5,354.5C 132.607,353.532 134.941,353.198 137.5,353.5C 138.616,347.567 137.95,342.067 135.5,337C 136.101,335.395 137.101,334.062 138.5,333C 137.833,332.333 137.167,331.667 136.5,331C 137.455,329.283 138.455,327.616 139.5,326C 139.034,324.701 139.034,323.201 139.5,321.5 Z"/></g>
<g><path style="opacity:1" fill="#9472dd" d="M 269.5,348.5 C 267.813,349.078 266.146,350.245 264.5,352C 265.654,352.914 265.487,353.747 264,354.5C 263.667,354.167 263.333,353.833 263,353.5C 261.333,355.167 259.667,356.833 258,358.5C 256.434,357.939 255.101,358.606 254,360.5C 253,360.5 252,360.5 251,360.5C 250.667,361.167 250.333,361.833 250,362.5C 247.551,362.063 245.217,362.063 243,362.5C 242.009,363.939 240.676,364.939 239,365.5C 237,365.5 235,365.5 233,365.5C 231.108,366.13 229.441,367.13 228,368.5C 227.667,367.833 227.333,367.167 227,366.5C 223.941,367.742 220.941,369.075 218,370.5C 217,370.167 216,369.833 215,369.5C 213.295,370.763 211.628,371.097 210,370.5C 209.147,372.125 208.147,372.458 207,371.5C 205.029,373.553 202.862,374.22 200.5,373.5C 199.671,372.668 198.838,373.001 198,374.5C 194.667,373.167 191.333,373.167 188,374.5C 184.018,373.744 180.518,372.744 177.5,371.5C 180.45,371.341 183.617,370.674 187,369.5C 188.364,370.258 189.531,369.758 190.5,368C 194.434,367.372 197.934,365.872 201,363.5C 202.937,363.821 204.437,362.821 205.5,360.5C 204.753,360.264 203.92,359.93 203,359.5C 202.082,361.632 200.749,362.299 199,361.5C 198.326,362.578 197.326,363.245 196,363.5C 190.676,364.742 185.176,364.408 179.5,362.5C 177.197,362.124 176.863,361.124 178.5,359.5C 183.448,360.559 188.448,360.726 193.5,360C 204.449,357.41 215.449,355.077 226.5,353C 234.159,351.288 240.825,347.788 246.5,342.5C 254.321,344.371 261.988,346.371 269.5,348.5 Z"/></g>
<g><path style="opacity:1" fill="#b07cea" d="M 348.5,346.5 C 348.336,349.187 348.503,351.854 349,354.5C 352.128,361.308 357.295,365.641 364.5,367.5C 360.853,367.622 358.019,369.288 356,372.5C 353.765,371.761 351.765,371.761 350,372.5C 348.417,370.007 346.917,370.174 345.5,373C 340.526,372.824 336.193,374.324 332.5,377.5C 329.5,378.833 326.5,378.833 323.5,377.5C 322.478,377.855 321.811,378.522 321.5,379.5C 317.253,379.048 313.42,380.048 310,382.5C 308.636,381.742 307.469,382.242 306.5,384C 301.36,385.831 296.027,387.165 290.5,388C 289.944,388.383 289.611,388.883 289.5,389.5C 288.542,389.953 287.708,390.619 287,391.5C 286.667,391.167 286.333,390.833 286,390.5C 283.728,391.791 281.561,392.457 279.5,392.5C 278.201,391.91 277.368,390.91 277,389.5C 276,389.833 275,390.167 274,390.5C 271.371,390.072 269.038,389.072 267,387.5C 265.542,388.747 264.042,388.747 262.5,387.5C 260.09,389.768 257.423,390.101 254.5,388.5C 256.289,386.993 258.289,385.66 260.5,384.5C 261.293,384.931 262.127,385.265 263,385.5C 269.007,383.685 274.507,381.352 279.5,378.5C 272.581,378.512 265.247,378.179 257.5,377.5C 258.078,375.557 259.078,375.223 260.5,376.5C 261.192,375.975 261.692,375.308 262,374.5C 263.049,375.517 264.216,375.684 265.5,375C 268.129,372.345 271.129,371.345 274.5,372C 273.304,371.346 273.304,370.846 274.5,370.5C 276.306,371.859 277.806,371.525 279,369.5C 279.333,369.833 279.667,370.167 280,370.5C 283.667,369.5 287.333,368.5 291,367.5C 292,367.833 293,368.167 294,368.5C 296.178,365.986 298.844,365.319 302,366.5C 302.689,365.643 303.522,364.977 304.5,364.5C 306.955,364.257 309.455,364.257 312,364.5C 312.667,363.833 313.333,363.167 314,362.5C 316,362.5 318,362.5 320,362.5C 321.38,361.744 321.547,361.078 320.5,360.5C 321.122,359.373 321.955,358.373 323,357.5C 325.154,358.226 327.654,358.393 330.5,358C 333.761,355.574 337.427,353.907 341.5,353C 343.703,350.628 346.037,348.461 348.5,346.5 Z"/></g>
<g><path style="opacity:1" fill="#a077e6" d="M 269.5,348.5 C 284.359,351.163 299.359,352.163 314.5,351.5C 314.611,352.117 314.944,352.617 315.5,353C 313.765,353.651 312.098,353.485 310.5,352.5C 307.157,353.841 303.823,354.341 300.5,354C 300.167,355 299.833,356 299.5,357C 301.794,357.181 303.961,358.015 306,359.5C 307.649,358.102 308.982,358.436 310,360.5C 311.333,357.833 312.667,357.833 314,360.5C 316.115,359.402 318.282,359.402 320.5,360.5C 321.547,361.078 321.38,361.744 320,362.5C 318,362.5 316,362.5 314,362.5C 313.333,363.167 312.667,363.833 312,364.5C 309.455,364.257 306.955,364.257 304.5,364.5C 303.522,364.977 302.689,365.643 302,366.5C 298.844,365.319 296.178,365.986 294,368.5C 293,368.167 292,367.833 291,367.5C 287.333,368.5 283.667,369.5 280,370.5C 279.667,370.167 279.333,369.833 279,369.5C 277.806,371.525 276.306,371.859 274.5,370.5C 273.304,370.846 273.304,371.346 274.5,372C 271.129,371.345 268.129,372.345 265.5,375C 264.216,375.684 263.049,375.517 262,374.5C 261.692,375.308 261.192,375.975 260.5,376.5C 259.078,375.223 258.078,375.557 257.5,377.5C 255.614,378.361 253.78,379.361 252,380.5C 248.867,379.24 246.2,379.907 244,382.5C 243.333,381.833 242.667,381.167 242,380.5C 240.184,382.441 238.184,383.108 236,382.5C 232.168,383.497 228.168,384.83 224,386.5C 223.667,386.167 223.333,385.833 223,385.5C 220.88,387.821 218.38,388.488 215.5,387.5C 211.622,389.58 207.622,391.247 203.5,392.5C 200.772,392.112 197.938,391.778 195,391.5C 193.667,394.167 192.333,394.167 191,391.5C 188.216,391.736 185.382,391.736 182.5,391.5C 183.641,389.912 185.141,388.579 187,387.5C 188.667,387.833 190.333,388.167 192,388.5C 192.833,387.667 193.667,386.833 194.5,386C 198.403,385.532 202.07,384.366 205.5,382.5C 198.431,381.306 191.264,381.306 184,382.5C 181.527,381.88 179.027,381.214 176.5,380.5C 176.667,380.167 176.833,379.833 177,379.5C 178.751,380.174 180.417,380.507 182,380.5C 185.003,377.459 188.169,376.793 191.5,378.5C 194.53,377.275 197.53,375.609 200.5,373.5C 202.862,374.22 205.029,373.553 207,371.5C 208.147,372.458 209.147,372.125 210,370.5C 211.628,371.097 213.295,370.763 215,369.5C 216,369.833 217,370.167 218,370.5C 220.941,369.075 223.941,367.742 227,366.5C 227.333,367.167 227.667,367.833 228,368.5C 229.441,367.13 231.108,366.13 233,365.5C 235,365.5 237,365.5 239,365.5C 240.676,364.939 242.009,363.939 243,362.5C 245.217,362.063 247.551,362.063 250,362.5C 250.333,361.833 250.667,361.167 251,360.5C 252,360.5 253,360.5 254,360.5C 255.101,358.606 256.434,357.939 258,358.5C 259.667,356.833 261.333,355.167 263,353.5C 263.333,353.833 263.667,354.167 264,354.5C 265.487,353.747 265.654,352.914 264.5,352C 266.146,350.245 267.813,349.078 269.5,348.5 Z"/></g>
<g><path style="opacity:1" fill="#8170de" d="M 54.5,327.5 C 59.264,342.546 63.4307,357.879 67,373.5C 68.2106,376.759 70.0439,379.592 72.5,382C 77.7175,383.563 83.0509,383.896 88.5,383C 101.7,380.542 114.7,377.376 127.5,373.5C 123.091,380.018 118.424,385.851 113.5,391C 108.626,393.853 103.459,396.02 98,397.5C 94.3333,396.833 90.6667,396.167 87,395.5C 85.2215,396.479 83.5548,396.146 82,394.5C 81.6012,394.728 81.4346,395.062 81.5,395.5C 76.0943,394.186 71.261,390.853 67,385.5C 63.1099,380.86 60.2766,376.027 58.5,371C 59.8765,368.46 59.2098,366.46 56.5,365C 55.9394,363.434 56.6061,362.101 58.5,361C 56.8753,360.147 56.5419,359.147 57.5,358C 56.1667,351.333 54.8333,344.667 53.5,338C 53.9833,334.419 54.3167,330.919 54.5,327.5 Z"/></g>
<g><path style="opacity:1" fill="#9175e9" d="M 177.5,371.5 C 180.518,372.744 184.018,373.744 188,374.5C 191.333,373.167 194.667,373.167 198,374.5C 198.838,373.001 199.671,372.668 200.5,373.5C 197.53,375.609 194.53,377.275 191.5,378.5C 188.169,376.793 185.003,377.459 182,380.5C 180.417,380.507 178.751,380.174 177,379.5C 176.833,379.833 176.667,380.167 176.5,380.5C 179.027,381.214 181.527,381.88 184,382.5C 191.264,381.306 198.431,381.306 205.5,382.5C 202.07,384.366 198.403,385.532 194.5,386C 193.667,386.833 192.833,387.667 192,388.5C 190.333,388.167 188.667,387.833 187,387.5C 185.141,388.579 183.641,389.912 182.5,391.5C 181.671,392.332 180.838,391.999 180,390.5C 177.137,393.402 174.804,393.068 173,389.5C 167.519,389.304 161.353,389.804 154.5,391C 147.48,392.934 141.313,396.767 136,402.5C 135.667,402.167 135.333,401.833 135,401.5C 130.775,403.716 127.108,406.716 124,410.5C 123.667,410.167 123.333,409.833 123,409.5C 120.949,411.524 118.616,413.19 116,414.5C 115.667,414.167 115.333,413.833 115,413.5C 112.822,414.893 111.822,416.56 112,418.5C 111.667,418.167 111.333,417.833 111,417.5C 107.866,418.874 104.866,420.54 102,422.5C 99.9455,422.152 97.9455,422.819 96,424.5C 95.6667,424.167 95.3333,423.833 95,423.5C 95.1781,425.44 94.1781,427.107 92,428.5C 91.6667,428.167 91.3333,427.833 91,427.5C 86.6824,429.035 82.5157,430.702 78.5,432.5C 71.4639,426.465 65.1305,419.798 59.5,412.5C 58.4378,405.827 59.9378,405.161 64,410.5C 64.6667,409.833 65.3333,409.167 66,408.5C 70.3481,409.608 74.3481,409.608 78,408.5C 79.4095,407.213 80.9095,406.046 82.5,405C 81.2341,404.691 80.0674,404.191 79,403.5C 78.6667,403.833 78.3333,404.167 78,404.5C 76.3333,403.5 74.6667,402.5 73,401.5C 72.6667,401.833 72.3333,402.167 72,402.5C 70.3149,400.983 68.8149,399.316 67.5,397.5C 68.9806,397.635 70.6473,397.301 72.5,396.5C 74.5945,398.589 76.4279,398.589 78,396.5C 79.8661,399.159 81.0328,398.826 81.5,395.5C 81.4346,395.062 81.6012,394.728 82,394.5C 83.5548,396.146 85.2215,396.479 87,395.5C 90.6667,396.167 94.3333,396.833 98,397.5C 103.459,396.02 108.626,393.853 113.5,391C 118.424,385.851 123.091,380.018 127.5,373.5C 129.882,372.649 131.882,371.316 133.5,369.5C 135.806,370.785 137.639,370.118 139,367.5C 142.331,368.136 144.997,366.803 147,363.5C 148.333,363.5 149.667,363.5 151,363.5C 151.853,365.125 152.853,365.458 154,364.5C 155.667,365.5 157.333,366.5 159,367.5C 159.333,367.167 159.667,366.833 160,366.5C 160.853,368.125 161.853,368.458 163,367.5C 167.198,369.582 172.031,370.915 177.5,371.5 Z"/></g>
<g><path style="opacity:0.998" fill="#b682f7" d="M 289.5,389.5 C 296.777,390.173 304.777,390.673 313.5,391C 310.781,391.506 308.114,392.84 305.5,395C 303.567,395.251 301.734,395.751 300,396.5C 298.636,395.742 297.469,396.242 296.5,398C 291.494,398.98 287.494,401.647 284.5,406C 282.833,406.333 281.167,406.667 279.5,407C 250.581,435.417 222.248,464.251 194.5,493.5C 178.676,490.67 163.676,485.67 149.5,478.5C 169.792,456.7 190.958,435.033 213,413.5C 213.333,413.833 213.667,414.167 214,414.5C 219.735,410.773 224.902,406.273 229.5,401C 234.499,399.834 238.499,397.167 241.5,393C 243.443,393.305 245.443,393.305 247.5,393C 249.683,391.223 252.016,389.723 254.5,388.5C 257.423,390.101 260.09,389.768 262.5,387.5C 264.042,388.747 265.542,388.747 267,387.5C 269.038,389.072 271.371,390.072 274,390.5C 275,390.167 276,389.833 277,389.5C 277.368,390.91 278.201,391.91 279.5,392.5C 281.561,392.457 283.728,391.791 286,390.5C 286.333,390.833 286.667,391.167 287,391.5C 287.708,390.619 288.542,389.953 289.5,389.5 Z"/></g>
<g><path style="opacity:0.996" fill="#a97ff5" d="M 257.5,377.5 C 265.247,378.179 272.581,378.512 279.5,378.5C 274.507,381.352 269.007,383.685 263,385.5C 262.127,385.265 261.293,384.931 260.5,384.5C 258.289,385.66 256.289,386.993 254.5,388.5C 252.016,389.723 249.683,391.223 247.5,393C 245.443,393.305 243.443,393.305 241.5,393C 238.499,397.167 234.499,399.834 229.5,401C 224.902,406.273 219.735,410.773 214,414.5C 213.667,414.167 213.333,413.833 213,413.5C 190.958,435.033 169.792,456.7 149.5,478.5C 136.586,473.712 124.586,467.378 113.5,459.5C 113.351,458.448 113.517,457.448 114,456.5C 124.333,446.167 134.667,435.833 145,425.5C 145.333,425.833 145.667,426.167 146,426.5C 154.407,420.099 162.24,412.933 169.5,405C 172.346,404.607 174.846,404.774 177,405.5C 178.887,403.114 181.387,401.947 184.5,402C 183.542,400.853 183.875,399.853 185.5,399C 189.714,398.933 193.547,397.766 197,395.5C 197.333,395.833 197.667,396.167 198,396.5C 199.451,394.536 201.284,393.203 203.5,392.5C 207.622,391.247 211.622,389.58 215.5,387.5C 218.38,388.488 220.88,387.821 223,385.5C 223.333,385.833 223.667,386.167 224,386.5C 228.168,384.83 232.168,383.497 236,382.5C 238.184,383.108 240.184,382.441 242,380.5C 242.667,381.167 243.333,381.833 244,382.5C 246.2,379.907 248.867,379.24 252,380.5C 253.78,379.361 255.614,378.361 257.5,377.5 Z"/></g>
<g><path style="opacity:0.997" fill="#7f71e6" d="M 50.5,309.5 C 52.4641,315.249 53.7974,321.249 54.5,327.5C 54.3167,330.919 53.9833,334.419 53.5,338C 54.8333,344.667 56.1667,351.333 57.5,358C 56.5419,359.147 56.8753,360.147 58.5,361C 56.6061,362.101 55.9394,363.434 56.5,365C 59.2098,366.46 59.8765,368.46 58.5,371C 60.2766,376.027 63.1099,380.86 67,385.5C 71.261,390.853 76.0943,394.186 81.5,395.5C 81.0328,398.826 79.8661,399.159 78,396.5C 76.4279,398.589 74.5945,398.589 72.5,396.5C 70.6473,397.301 68.9806,397.635 67.5,397.5C 68.8149,399.316 70.3149,400.983 72,402.5C 72.3333,402.167 72.6667,401.833 73,401.5C 74.6667,402.5 76.3333,403.5 78,404.5C 78.3333,404.167 78.6667,403.833 79,403.5C 80.0674,404.191 81.2341,404.691 82.5,405C 80.9095,406.046 79.4095,407.213 78,408.5C 74.3481,409.608 70.3481,409.608 66,408.5C 65.3333,409.167 64.6667,409.833 64,410.5C 59.9378,405.161 58.4378,405.827 59.5,412.5C 50.7582,402.084 42.7582,391.084 35.5,379.5C 37.3691,377.67 39.2025,375.67 41,373.5C 41.3333,374.5 41.6667,375.5 42,376.5C 43.3333,376.5 44.6667,376.5 46,376.5C 46.9435,375.737 47.4435,374.737 47.5,373.5C 45.4689,371.443 45.4689,369.61 47.5,368C 45.1157,362.181 43.1157,356.181 41.5,350C 42.1081,347.816 41.4414,345.816 39.5,344C 40.4791,342.221 40.1458,340.555 38.5,339C 39.8602,337.062 39.5268,335.396 37.5,334C 37.7898,332.522 37.7898,331.022 37.5,329.5C 37.7828,328.711 38.2828,328.044 39,327.5C 39.2189,328.938 39.7189,330.271 40.5,331.5C 41.8309,330.408 42.6643,329.074 43,327.5C 42.786,332.897 44.1194,333.564 47,329.5C 48.5826,331.993 50.0826,331.826 51.5,329C 50.273,327.413 50.6063,326.079 52.5,325C 50.6061,323.899 49.9394,322.566 50.5,321C 48.2116,318.291 47.2116,314.791 47.5,310.5C 48.791,310.737 49.791,310.404 50.5,309.5 Z"/></g>
<g><path style="opacity:0.993" fill="#9d7cf3" d="M 182.5,391.5 C 185.382,391.736 188.216,391.736 191,391.5C 192.333,394.167 193.667,394.167 195,391.5C 197.938,391.778 200.772,392.112 203.5,392.5C 201.284,393.203 199.451,394.536 198,396.5C 197.667,396.167 197.333,395.833 197,395.5C 193.547,397.766 189.714,398.933 185.5,399C 183.875,399.853 183.542,400.853 184.5,402C 181.387,401.947 178.887,403.114 177,405.5C 174.846,404.774 172.346,404.607 169.5,405C 162.24,412.933 154.407,420.099 146,426.5C 145.667,426.167 145.333,425.833 145,425.5C 134.667,435.833 124.333,446.167 114,456.5C 113.517,457.448 113.351,458.448 113.5,459.5C 102.79,453.144 92.7896,445.811 83.5,437.5C 81.6397,436.061 79.973,434.395 78.5,432.5C 82.5157,430.702 86.6824,429.035 91,427.5C 91.3333,427.833 91.6667,428.167 92,428.5C 94.1781,427.107 95.1781,425.44 95,423.5C 95.3333,423.833 95.6667,424.167 96,424.5C 97.9455,422.819 99.9455,422.152 102,422.5C 104.866,420.54 107.866,418.874 111,417.5C 111.333,417.833 111.667,418.167 112,418.5C 111.822,416.56 112.822,414.893 115,413.5C 115.333,413.833 115.667,414.167 116,414.5C 118.616,413.19 120.949,411.524 123,409.5C 123.333,409.833 123.667,410.167 124,410.5C 127.108,406.716 130.775,403.716 135,401.5C 135.333,401.833 135.667,402.167 136,402.5C 141.313,396.767 147.48,392.934 154.5,391C 161.353,389.804 167.519,389.304 173,389.5C 174.804,393.068 177.137,393.402 180,390.5C 180.838,391.999 181.671,392.332 182.5,391.5 Z"/></g>
<g><path style="opacity:0.998" fill="#cb86f9" d="M 362.5,402.5 C 364.139,402.808 365.972,402.808 368,402.5C 369.333,405.167 370.667,405.167 372,402.5C 373.667,403.5 375.333,404.5 377,405.5C 378.395,404.185 379.395,404.519 380,406.5C 381,406.167 382,405.833 383,405.5C 386.719,406.648 390.552,407.314 394.5,407.5C 394.389,408.117 394.056,408.617 393.5,409C 391.567,409.251 389.734,409.751 388,410.5C 387.667,410.167 387.333,409.833 387,409.5C 384.43,410.009 382.097,411.009 380,412.5C 379.439,411.978 378.772,411.645 378,411.5C 376.667,412.167 375.333,412.833 374,413.5C 372.535,412.67 371.035,412.504 369.5,413C 370.258,414.364 369.758,415.531 368,416.5C 367.086,415.346 366.253,415.513 365.5,417C 363.745,418.755 361.579,420.921 359,423.5C 358.333,422.833 357.667,422.167 357,421.5C 355.667,421.5 354.333,421.5 353,421.5C 327.219,447.783 301.052,473.45 274.5,498.5C 273.209,498.263 272.209,498.596 271.5,499.5C 262.167,499.5 252.833,499.5 243.5,499.5C 271.965,470.535 300.632,441.701 329.5,413C 331.167,412.667 332.833,412.333 334.5,412C 336.043,409.052 338.21,408.218 341,409.5C 343,407.5 345,405.5 347,403.5C 350,403.833 353,404.167 356,404.5C 356.689,403.643 357.522,402.977 358.5,402.5C 359.865,403.807 361.198,403.807 362.5,402.5 Z"/></g>
<g><path style="opacity:0.997" fill="#d188fa" d="M 394.5,407.5 C 396.167,408.833 397.833,408.833 399.5,407.5C 401.527,408.125 403.36,408.125 405,407.5C 405.739,408.574 406.739,409.241 408,409.5C 411.286,409.087 414.286,409.087 417,409.5C 418.101,407.606 419.434,406.939 421,407.5C 421.667,408.167 421.667,408.833 421,409.5C 418.703,410.299 416.203,411.466 413.5,413C 409.024,412.699 404.69,413.699 400.5,416C 399,417.5 397.5,419 396,420.5C 395.667,420.167 395.333,419.833 395,419.5C 391.597,419.976 388.597,421.31 386,423.5C 385.228,423.355 384.561,423.022 384,422.5C 361.247,444.751 339.08,467.418 317.5,490.5C 303.501,494.778 289.167,497.445 274.5,498.5C 301.052,473.45 327.219,447.783 353,421.5C 354.333,421.5 355.667,421.5 357,421.5C 357.667,422.167 358.333,422.833 359,423.5C 361.579,420.921 363.745,418.755 365.5,417C 366.253,415.513 367.086,415.346 368,416.5C 369.758,415.531 370.258,414.364 369.5,413C 371.035,412.504 372.535,412.67 374,413.5C 375.333,412.833 376.667,412.167 378,411.5C 378.772,411.645 379.439,411.978 380,412.5C 382.097,411.009 384.43,410.009 387,409.5C 387.333,409.833 387.667,410.167 388,410.5C 389.734,409.751 391.567,409.251 393.5,409C 394.056,408.617 394.389,408.117 394.5,407.5 Z"/></g>
<g><path style="opacity:0.991" fill="#d789f9" d="M 481.5,342.5 C 468.169,375.839 448.836,405.172 423.5,430.5C 393.035,458.742 357.702,478.742 317.5,490.5C 339.08,467.418 361.247,444.751 384,422.5C 384.561,423.022 385.228,423.355 386,423.5C 388.597,421.31 391.597,419.976 395,419.5C 395.333,419.833 395.667,420.167 396,420.5C 397.5,419 399,417.5 400.5,416C 404.69,413.699 409.024,412.699 413.5,413C 416.203,411.466 418.703,410.299 421,409.5C 421.667,408.833 421.667,408.167 421,407.5C 419.434,406.939 418.101,407.606 417,409.5C 414.286,409.087 411.286,409.087 408,409.5C 406.739,409.241 405.739,408.574 405,407.5C 403.36,408.125 401.527,408.125 399.5,407.5C 402.387,407.067 404.887,405.733 407,403.5C 408.667,403.833 410.333,404.167 412,404.5C 414.14,402.513 416.64,401.18 419.5,400.5C 418.674,399.549 418.508,398.549 419,397.5C 420.667,397.833 422.333,398.167 424,398.5C 425.555,396.854 427.221,396.521 429,397.5C 430.667,396.5 432.333,395.5 434,394.5C 434.333,394.833 434.667,395.167 435,395.5C 454.138,384.495 464.972,369.662 467.5,351C 472.268,346.001 475.934,340.334 478.5,334C 478.167,333.667 477.833,333.333 477.5,333C 478.833,332.333 480.167,331.667 481.5,331C 480.72,329.927 480.887,328.76 482,327.5C 483.266,329.196 483.1,331.029 481.5,333C 482.815,334.395 482.481,335.395 480.5,336C 481.454,337.979 481.787,340.146 481.5,342.5 Z"/></g>
<g><path style="opacity:1" fill="#c284f8" d="M 321.5,379.5 C 326.484,379.831 330.984,379.831 335,379.5C 337.041,380.032 339.208,381.032 341.5,382.5C 339.831,382.693 338.164,383.693 336.5,385.5C 334.252,384.622 332.085,384.955 330,386.5C 328.853,385.542 327.853,385.875 327,387.5C 323.794,386.049 322.127,387.049 322,390.5C 323.566,391.061 324.899,390.394 326,388.5C 327.705,390.977 329.705,392.311 332,392.5C 333.667,392.167 335.333,391.833 337,391.5C 338.996,391.996 340.663,392.996 342,394.5C 342.333,394.167 342.667,393.833 343,393.5C 349.755,396.13 356.255,399.13 362.5,402.5C 361.198,403.807 359.865,403.807 358.5,402.5C 357.522,402.977 356.689,403.643 356,404.5C 353,404.167 350,403.833 347,403.5C 345,405.5 343,407.5 341,409.5C 338.21,408.218 336.043,409.052 334.5,412C 332.833,412.333 331.167,412.667 329.5,413C 300.632,441.701 271.965,470.535 243.5,499.5C 238.167,499.5 232.833,499.5 227.5,499.5C 216.403,498.057 205.403,496.057 194.5,493.5C 222.248,464.251 250.581,435.417 279.5,407C 281.167,406.667 282.833,406.333 284.5,406C 287.494,401.647 291.494,398.98 296.5,398C 297.469,396.242 298.636,395.742 300,396.5C 301.734,395.751 303.567,395.251 305.5,395C 308.114,392.84 310.781,391.506 313.5,391C 304.777,390.673 296.777,390.173 289.5,389.5C 289.611,388.883 289.944,388.383 290.5,388C 296.027,387.165 301.36,385.831 306.5,384C 307.469,382.242 308.636,381.742 310,382.5C 313.42,380.048 317.253,379.048 321.5,379.5 Z"/></g>
</svg>
