<?xml version="1.0" encoding="UTF-8"?>
<svg version="1.1" xmlns="http://www.w3.org/2000/svg" width="618" height="618">
<path d="M0 0 C1.29526611 0.24943359 1.29526611 0.24943359 2.61669922 0.50390625 C27.24305181 5.44289618 51.81494018 14.71134461 72.6953125 28.80078125 C77.45670105 31.88621526 80.54378666 32.86872082 86.1875 33.125 C116.24764707 35.43731901 139.42357378 54.87189155 158.56396484 76.79101562 C161.56759618 80.39494974 164.31059104 84.1546579 167 88 C167.40234863 88.5686377 167.80469727 89.13727539 168.21923828 89.72314453 C186.31861684 115.43737656 199.404316 144.51005917 210 174 C210.433125 175.19979492 210.433125 175.19979492 210.875 176.42382812 C212.36251303 180.58514583 213.74435249 184.76150426 215 189 C215.24363281 189.82113281 215.48726562 190.64226562 215.73828125 191.48828125 C224.45302741 226.7622538 204.75471311 264.5560681 187.15419006 293.71710205 C181.58932813 302.85352682 175.52759882 311.53113909 169 320 C168.49033691 320.66370605 167.98067383 321.32741211 167.45556641 322.01123047 C164.34763562 326.0437037 161.20041442 330.04051294 158 334 C157.56413574 334.54172852 157.12827148 335.08345703 156.67919922 335.64160156 C151.51751802 341.96931941 146.10476386 345.36152011 137.87109375 346.22265625 C130.09584325 346.53366627 123.72674328 344.72678381 117.6875 339.75 C114.21662684 336.48696356 112.02488408 333.30287867 110 329 C110 328.34 110 327.68 110 327 C109.34 327 108.68 327 108 327 C107.62681641 328.051875 107.62681641 328.051875 107.24609375 329.125 C95.56661202 356.07201741 68.30057798 377.18523901 41.96655273 387.82128906 C36.44174988 389.95406717 30.80449456 391.45072574 25.07421875 392.9375 C21.39609195 394.18043592 21.39609195 394.18043592 19 397 C17.98053699 399.51581768 17.06118832 401.99792606 16.1875 404.5625 C12.56557171 414.60799145 8.39079529 424.11510162 -1 430 C-18.99892035 437.7679551 -41.26478318 436.86407148 -59.5625 430.1875 C-71.43336263 424.83555176 -78.34234914 415.85259152 -83 403.88671875 C-84.2485808 400.28241716 -85.21079688 396.73077837 -86 393 C-87.11375 392.9175 -88.2275 392.835 -89.375 392.75 C-93.74399965 392.21061733 -97.4243072 390.76781368 -101.45703125 389.0546875 C-105.23432297 387.48806881 -109.10602969 386.24155575 -113 385 C-113 384.34 -113 383.68 -113 383 C-113.71027344 382.8865625 -114.42054688 382.773125 -115.15234375 382.65625 C-137.68933468 377.46254016 -157.47556704 354.0363284 -170.28344727 336.08886719 C-170.72358154 335.47301758 -171.16371582 334.85716797 -171.6171875 334.22265625 C-172.00503418 333.67359619 -172.39288086 333.12453613 -172.79248047 332.55883789 C-174.07993601 330.89680723 -175.4855742 329.45558924 -177 328 C-177.20625 328.825 -177.4125 329.65 -177.625 330.5 C-180.64231304 338.18043319 -186.01817576 344.3949576 -193.625 347.75 C-200.29923633 350.02502218 -207.2021813 350.04097729 -213.75 347.375 C-223.56354923 342.31217955 -229.52785607 333.6577578 -236 325 C-236.77851318 323.96190186 -236.77851318 323.96190186 -237.57275391 322.90283203 C-263.03323466 288.77198347 -290.81760463 245.9922171 -285.09277344 201.36230469 C-283.97397681 193.89809433 -281.81058896 186.9979095 -279 180 C-278.61585938 179.04287109 -278.23171875 178.08574219 -277.8359375 177.09960938 C-261.36422392 136.58609828 -241.10912696 98.1416112 -211 66 C-210.5364209 65.50242187 -210.0728418 65.00484375 -209.59521484 64.4921875 C-191.53112564 45.26171823 -169.78343118 30.71681845 -143.5625 25.75 C-138.24806966 24.60337139 -134.22919493 22.63195788 -129.625 19.875 C-91.77135457 -2.62994745 -42.7579315 -8.24171095 0 0 Z " fill="#F3A940" transform="translate(342,93)"/>
<path d="M0 0 C1.29526611 0.24943359 1.29526611 0.24943359 2.61669922 0.50390625 C27.24305181 5.44289618 51.81494018 14.71134461 72.6953125 28.80078125 C77.45670105 31.88621526 80.54378666 32.86872082 86.1875 33.125 C116.24764707 35.43731901 139.42357378 54.87189155 158.56396484 76.79101562 C161.56759618 80.39494974 164.31059104 84.1546579 167 88 C167.40234863 88.5686377 167.80469727 89.13727539 168.21923828 89.72314453 C186.31861684 115.43737656 199.404316 144.51005917 210 174 C210.433125 175.19979492 210.433125 175.19979492 210.875 176.42382812 C212.36251303 180.58514583 213.74435249 184.76150426 215 189 C215.24363281 189.82113281 215.48726562 190.64226562 215.73828125 191.48828125 C224.45302741 226.7622538 204.75471311 264.5560681 187.15419006 293.71710205 C181.58932813 302.85352682 175.52759882 311.53113909 169 320 C168.49033691 320.66370605 167.98067383 321.32741211 167.45556641 322.01123047 C164.34763562 326.0437037 161.20041442 330.04051294 158 334 C157.56413574 334.54172852 157.12827148 335.08345703 156.67919922 335.64160156 C151.51751802 341.96931941 146.10476386 345.36152011 137.87109375 346.22265625 C130.09584325 346.53366627 123.72674328 344.72678381 117.6875 339.75 C114.21662684 336.48696356 112.02488408 333.30287867 110 329 C110 328.34 110 327.68 110 327 C109.34 327 108.68 327 108 327 C107.62681641 328.051875 107.62681641 328.051875 107.24609375 329.125 C97.41357607 351.81068343 73.25717899 374.31149969 51.01953125 383.96484375 C46.58965686 385.48349409 43.63809319 385.73620527 39 385 C35.60917748 382.88073593 35.11680564 381.40151938 34 377.5625 C34 374 34 374 35.25 371.375 C38.60549574 368.47707186 42.0237636 367.03654216 46.07421875 365.29296875 C67.66543678 355.75132233 82.04137703 335.52873844 94 316 C94.38607422 315.37714111 94.77214844 314.75428223 95.16992188 314.11254883 C98.02800904 309.35350361 98.02800904 309.35350361 99 304 C97.80120315 301.10115541 97.80120315 301.10115541 96.0625 298.125 C91.07036479 287.86209878 92.17404697 278.54501592 95.22241211 267.89990234 C96.48377339 263.19583662 97.26881713 258.42643663 98.0625 253.625 C98.23241455 252.61767822 98.4023291 251.61035645 98.57739258 250.57250977 C98.90958076 248.593574 99.23904673 246.61417883 99.56542969 244.63427734 C99.92421811 242.45937449 100.29282811 240.28609431 100.6640625 238.11328125 C104.39515018 215.47615971 104.83633269 191.4747225 100 169 C99.74863281 167.81792969 99.49726563 166.63585937 99.23828125 165.41796875 C98.23988186 161.13383167 97.16684751 157.15188916 95.25 153.1875 C93.70355442 149.24406378 93.85260125 147.05414224 95 143 C96.5 140.5 96.5 140.5 99 139 C102.28756446 138.5329815 104.8981008 138.80482379 108 140 C113.8876944 145.1924139 115.22266495 154.75335493 117 162 C117.29003906 163.16273438 117.58007812 164.32546875 117.87890625 165.5234375 C126.21818015 201.37828662 120.71092829 241.11696359 111.48046875 276.25390625 C110.1142702 284.06234185 111.4129452 289.05176859 114.83203125 296.0234375 C115.22444504 296.85082428 115.61685883 297.67821106 116.02116394 298.53067017 C116.84863016 300.26697354 117.68359093 301.99972315 118.52563477 303.72900391 C119.81488114 306.379896 121.07798762 309.04208755 122.33789062 311.70703125 C123.14693248 313.39655485 123.95742896 315.08538283 124.76953125 316.7734375 C125.33689751 317.96711441 125.33689751 317.96711441 125.91572571 319.18490601 C126.27587265 319.91972198 126.63601959 320.65453796 127.00708008 321.41162109 C127.32018631 322.05811615 127.63329254 322.70461121 127.95588684 323.37069702 C129.0558735 325.32704583 129.0558735 325.32704583 132 327 C135.70544587 327.19850603 138.47005387 327.17664871 142 326 C143.06232991 324.13067626 143.06232991 324.13067626 144 322 C144.87677934 320.80167331 145.78963248 319.62918803 146.73046875 318.48046875 C173.04288704 285.81624351 201.10809044 243.71863273 198.34667969 199.85644531 C196.14382671 181.7061778 186.3365072 163.52950861 179 147 C178.6390625 146.17886719 178.278125 145.35773438 177.90625 144.51171875 C167.87623176 121.82663843 154.72631666 100.36580964 138 82 C137.53513184 81.48453613 137.07026367 80.96907227 136.59130859 80.43798828 C126.35841453 69.22919557 114.26082459 60.41690236 100 55 C99.24074219 54.69449219 98.48148437 54.38898438 97.69921875 54.07421875 C93.04333431 52.4231404 89.00101435 51.94558643 84.05297852 51.9519043 C73.48737176 51.88202751 67.49486469 48.24948452 58.99267578 42.31787109 C31.2477253 23.96853972 -3.7362723 15.50986098 -36.625 15.6875 C-37.36667419 15.68998749 -38.10834839 15.69247498 -38.87249756 15.69503784 C-70.58191725 15.85876905 -100.0656629 23.60102003 -127.375 39.9375 C-133.45530222 43.56479826 -138.56576081 44.91544934 -145.69140625 45.5625 C-151.25513853 46.29820014 -155.99899061 48.54384259 -161 51 C-161.91394531 51.4434375 -162.82789063 51.886875 -163.76953125 52.34375 C-175.09593719 58.17709212 -184.78257647 66.28617742 -194 75 C-194.73734375 75.68449219 -195.4746875 76.36898437 -196.234375 77.07421875 C-202.90089863 83.4688806 -208.47334668 90.62587105 -214 98 C-214.43489746 98.57943359 -214.86979492 99.15886719 -215.31787109 99.75585938 C-221.82436704 108.49040456 -227.62422106 117.53141491 -233 127 C-233.71712158 128.25586914 -233.71712158 128.25586914 -234.44873047 129.53710938 C-262.88423543 178.0216824 -262.88423543 178.0216824 -264.90209961 231.94726562 C-264.30018238 233.97657223 -263.65898169 235.98852108 -263 238 C-262.76394043 238.73154297 -262.52788086 239.46308594 -262.28466797 240.21679688 C-251.82061646 271.98001706 -232.01319918 307.31820485 -207 330 C-203.45728358 330.75011367 -203.45728358 330.75011367 -200 330 C-196.53144068 327.14933018 -194.81048063 324.04385048 -192.90625 320.01953125 C-192.35066406 318.85486328 -191.79507813 317.69019531 -191.22265625 316.49023438 C-190.64833398 315.26437141 -190.07411585 314.03845965 -189.5 312.8125 C-188.92653559 311.60576102 -188.35232291 310.39937735 -187.77734375 309.19335938 C-186.1688402 305.80281304 -184.57995036 302.4039306 -183 299 C-182.57710693 298.09797852 -182.15421387 297.19595703 -181.71850586 296.26660156 C-181.35635986 295.47866211 -180.99421387 294.69072266 -180.62109375 293.87890625 C-180.31357178 293.21318604 -180.0060498 292.54746582 -179.68920898 291.86157227 C-177.77801235 286.69937803 -178.86798429 282.19278883 -180.3671875 277.13671875 C-189.50481796 244.3207304 -194.5230028 202.3999725 -186 169 C-185.6938201 167.67091584 -185.38916544 166.3414795 -185.0859375 165.01171875 C-180.67695932 146.45130621 -180.67695932 146.45130621 -174 142 C-169.80856919 141.34799965 -168.26164573 141.8352601 -164.625 144.125 C-162 147 -162 147 -161.69140625 149.80859375 C-162.02725027 153.28181605 -162.9199543 155.74573596 -164.3125 158.9375 C-177.90668205 192.82667905 -172.193151 239.57309254 -162.37109375 273.82421875 C-159.86466068 282.76423363 -159.45576007 291.63697484 -163.5625 300.125 C-164.27599609 301.36636719 -164.27599609 301.36636719 -165.00390625 302.6328125 C-166.28357707 305.67391258 -166.07326956 306.89218467 -165 310 C-163.75031748 312.25455252 -162.48392897 314.3608168 -161.0625 316.5 C-160.66281006 317.10948486 -160.26312012 317.71896973 -159.85131836 318.34692383 C-146.5819242 338.30382473 -131.45563062 355.15084172 -109.49609375 365.34375 C-101.4136164 369.1727672 -101.4136164 369.1727672 -100 372 C-99.5164512 376.27134769 -99.51266863 378.29946115 -102 381.875 C-105.87218174 384.6177954 -108.30964199 384.76150722 -113 385 C-113 384.34 -113 383.68 -113 383 C-113.71027344 382.8865625 -114.42054688 382.773125 -115.15234375 382.65625 C-137.68933468 377.46254016 -157.47556704 354.0363284 -170.28344727 336.08886719 C-170.72358154 335.47301758 -171.16371582 334.85716797 -171.6171875 334.22265625 C-172.00503418 333.67359619 -172.39288086 333.12453613 -172.79248047 332.55883789 C-174.07993601 330.89680723 -175.4855742 329.45558924 -177 328 C-177.20625 328.825 -177.4125 329.65 -177.625 330.5 C-180.64231304 338.18043319 -186.01817576 344.3949576 -193.625 347.75 C-200.29923633 350.02502218 -207.2021813 350.04097729 -213.75 347.375 C-223.56354923 342.31217955 -229.52785607 333.6577578 -236 325 C-236.77851318 323.96190186 -236.77851318 323.96190186 -237.57275391 322.90283203 C-263.03323466 288.77198347 -290.81760463 245.9922171 -285.09277344 201.36230469 C-283.97397681 193.89809433 -281.81058896 186.9979095 -279 180 C-278.61585938 179.04287109 -278.23171875 178.08574219 -277.8359375 177.09960938 C-261.36422392 136.58609828 -241.10912696 98.1416112 -211 66 C-210.5364209 65.50242187 -210.0728418 65.00484375 -209.59521484 64.4921875 C-191.53112564 45.26171823 -169.78343118 30.71681845 -143.5625 25.75 C-138.24806966 24.60337139 -134.22919493 22.63195788 -129.625 19.875 C-91.77135457 -2.62994745 -42.7579315 -8.24171095 0 0 Z " fill="#020100" transform="translate(342,93)"/>
<path d="M0 0 C3.68019268 2.78311194 4.88171198 4.2418813 5.6015625 8.85546875 C5.62849002 10.29924921 5.63552148 11.74350678 5.625 13.1875 C6.03680638 27.53971508 10.53001576 38.05832149 21.0625 48.1875 C29.62580359 55.51909554 38.37207472 62.0094503 50.0859375 61.671875 C57.51011693 59.9601339 63.12666405 55.61630091 68.875 50.8125 C70.18369941 49.73422335 71.49354114 48.65733116 72.8046875 47.58203125 C73.37171387 47.10999268 73.93874023 46.6379541 74.52294922 46.15161133 C76 45 76 45 78 44 C78.00410889 43.23856689 78.00821777 42.47713379 78.01245117 41.69262695 C78.0454114 38.23180334 78.11606054 34.77273429 78.1875 31.3125 C78.19620117 29.51522461 78.19620117 29.51522461 78.20507812 27.68164062 C78.45379054 17.76077859 78.45379054 17.76077859 81.33203125 14.703125 C84.87448515 12.4417635 86.86900641 12.33609032 91 13 C93.73046875 14.2578125 93.73046875 14.2578125 96 17 C96.27726979 20.01739853 96.1301554 22.91312336 95.98120117 25.93896484 C95.30419193 36.07226411 95.30419193 36.07226411 98.49902344 45.42529297 C102.68052418 49.91530032 107.71475798 52.9749893 113 56 C114.1172747 56.74277443 115.2286818 57.49450614 116.33203125 58.2578125 C121.84804937 61.85978041 127.61177038 61.88847791 134 61 C141.4616364 58.10968797 147.79587035 53.85413061 153.51171875 48.28515625 C155 47 155 47 157 47 C157.27070313 46.41476562 157.54140625 45.82953125 157.8203125 45.2265625 C158.98882637 43.0210893 160.29449135 41.29945354 161.875 39.375 C168.23501949 30.83795672 169.50855514 23.14922803 169.49731445 12.68823242 C169.55422999 8.67097803 169.69864889 6.50138589 171.8125 2.984375 C174.81340606 0.2621245 177.00022476 0.07142456 181 0 C184.39808026 1.10208008 184.94731917 1.92097876 187 5 C187.43732412 8.50520139 187.3241179 12.03298119 187.3125 15.5625 C187.32861328 16.51447266 187.34472656 17.46644531 187.36132812 18.44726562 C187.37258295 34.9806105 179.26051728 48.43497828 167.98046875 60.0859375 C163.57888682 64.21803482 158.78644946 67.63614877 153.75 70.9375 C153.15944824 71.32752197 152.56889648 71.71754395 151.96044922 72.11938477 C148.62325182 74.23734866 145.86970897 75.34586624 142 76 C142.02094727 76.84892822 142.04189453 77.69785645 142.06347656 78.57250977 C142.64023053 105.62701632 143.0057032 137.19831407 124.265625 159.01953125 C114.98175173 168.13077051 101.70662248 169.24587011 89.31835938 169.25097656 C74.33478298 169.05239904 58.32884845 166.54999012 47 156 C41.08791189 149.80462434 37.9025958 142.98213844 35 135 C34.690625 134.18015625 34.38125 133.3603125 34.0625 132.515625 C32.57467995 128.36689602 31.75157678 124.51728657 31.24560547 120.11523438 C31.01603774 118.13812223 30.74207793 116.1663059 30.46484375 114.1953125 C28.67964016 100.80793551 28.79630035 87.48491651 29 74 C28.23647217 73.70738281 27.47294434 73.41476562 26.6862793 73.11328125 C11.87925327 66.97676951 -0.5782575 53.62530367 -7.24609375 39.328125 C-8.25016772 36.90069344 -9.17286559 34.49316343 -10 32 C-10.35707031 30.94554687 -10.71414062 29.89109375 -11.08203125 28.8046875 C-12.18163786 24.24716903 -12.36770485 20.04389725 -12.375 15.375 C-12.39949219 14.54226563 -12.42398438 13.70953125 -12.44921875 12.8515625 C-12.46899673 8.71137271 -12.35108928 6.55914219 -10.1015625 2.9765625 C-6.75920627 -0.16699187 -4.55862668 -0.53630902 0 0 Z " fill="#020100" transform="translate(223,359)"/>
<path d="M0 0 C3.70937251 1.77404772 6.59489859 4.28859259 9.703125 6.953125 C18.2374982 14.00596587 25.66092326 17.96997333 36.515625 20.203125 C37.55230321 70.64416528 37.55230321 70.64416528 22.515625 88.203125 C16.76193606 92.77657006 9.72138803 92.37129855 2.703125 92.328125 C1.90140869 92.32401611 1.09969238 92.31990723 0.27368164 92.31567383 C-21.33335477 92.11114921 -21.33335477 92.11114921 -29.078125 84.96875 C-43.12822074 67.32807424 -42.7564116 41.51265867 -42.484375 20.203125 C-41.85273438 20.21214844 -41.22109375 20.22117187 -40.5703125 20.23046875 C-27.20523115 19.78753378 -17.17859339 12.62905484 -7.54589844 4.02807617 C-3.1919597 0.26097784 -3.1919597 0.26097784 0 0 Z " fill="#E85946" transform="translate(311.484375,417.796875)"/>
<path d="M0 0 C1.17827362 -0.00953201 2.35654724 -0.01906403 3.57052612 -0.02888489 C5.46751755 -0.02751778 5.46751755 -0.02751778 7.40283203 -0.02612305 C8.71091827 -0.03040817 10.01900452 -0.0346933 11.36672974 -0.03910828 C14.1322231 -0.04655527 16.89758877 -0.04629068 19.66308594 -0.04101562 C23.19249492 -0.03522804 26.7213779 -0.05214147 30.2507 -0.0753603 C33.63476524 -0.09371003 37.01871741 -0.08991083 40.40283203 -0.08862305 C41.66344452 -0.09783279 42.92405701 -0.10704254 44.22286987 -0.11653137 C51.46616375 -0.07844442 56.98076273 0.0836711 62.84277344 4.69677734 C67.15916648 9.86716818 69.78417774 15.54273847 72.41064453 21.7121582 C72.86052734 22.71053711 73.31041016 23.70891602 73.77392578 24.73754883 C76.25428573 30.47102525 77.99185565 35.01771151 77.03564453 41.2746582 C70.14377242 50.04060571 56.36880456 56.01409871 45.61035156 57.31176758 C39.93121303 57.72532229 34.27909962 57.73300534 28.58862305 57.59887695 C25.10136798 57.52472674 21.62669483 57.55768472 18.13916016 57.6027832 C2.92188494 57.58719903 -14.85709056 55.76301602 -26.56176758 44.85375977 C-28.79590823 40.74558538 -28.36886943 37.74902286 -27.1574707 33.33374023 C-25.92351108 30.01503412 -24.67697953 26.70280158 -23.40185547 23.3996582 C-22.98355469 22.25368164 -22.56525391 21.10770508 -22.13427734 19.92700195 C-19.34227852 12.63001856 -16.16645269 4.77086738 -8.72285461 1.19908142 C-5.65705096 0.17167487 -3.22941643 0.01439442 0 0 Z " fill="#020100" transform="translate(285.96435546875,308.725341796875)"/>
<path d="M0 0 C17.49 0 34.98 0 53 0 C59 13 59 13 58 18 C56.22265625 19.36328125 56.22265625 19.36328125 54.0625 20.3125 C52.99708984 20.80169922 52.99708984 20.80169922 51.91015625 21.30078125 C50 22 50 22 48 22 C47.731875 21.195625 47.46375 20.39125 47.1875 19.5625 C46.5996875 18.2940625 46.5996875 18.2940625 46 17 C42.40735548 15.80245183 39.77282526 15.66905042 36 16 C33.29441138 17.20495919 33.29441138 17.20495919 32 20 C31.58193239 24.9826833 32.11409538 29.4742595 35.3125 33.4375 C37.47352633 35.49801348 39.6002303 37.24494455 42 39 C32.60394198 39.10731538 23.35912329 38.99263429 14 38 C14.40992188 37.55269531 14.81984375 37.10539062 15.2421875 36.64453125 C19.39151504 31.98894605 22.09881735 28.86570313 21.875 22.375 C21.25864964 19.03525229 21.25864964 19.03525229 19.375 17 C15.84105826 15.51202453 13.65063783 15.95696062 10 17 C7.54801956 19.4158995 7.54801956 19.4158995 6 22 C4.37433394 21.52309796 2.74948689 21.04340334 1.125 20.5625 C0.22007812 20.29566406 -0.68484375 20.02882813 -1.6171875 19.75390625 C-4 19 -4 19 -6 18 C-5 12 -5 12 0 0 Z " fill="#3D3D3D" transform="translate(284,326)"/>
<path d="M0 0 C5.21627552 3.23650098 8.37860874 6.16380885 10.6171875 11.90625 C11.76003673 17.99411995 10.49337824 22.09196389 7.1015625 27.1796875 C4.75587913 29.90808763 2.8167028 31.65174758 -0.7578125 32.41015625 C-8.8423031 32.59061363 -14.4805061 29.95367575 -21.3828125 25.90625 C-21.46433594 23.36392658 -21.52354966 20.82425798 -21.5703125 18.28125 C-21.59544922 17.56839844 -21.62058594 16.85554688 -21.64648438 16.12109375 C-21.71293226 11.2925472 -21.01761846 8.10566758 -18.3828125 3.90625 C-13.05332667 -1.02352439 -6.85472115 -3.14642938 0 0 Z " fill="#050301" transform="translate(401.3828125,233.09375)"/>
<path d="M0 0 C3.4136972 2.94819303 6.35684152 5.81466059 7.06933594 10.45458984 C7.14232021 12.73259891 7.10033365 14.97319801 7 17.25 C6.98195312 18.03375 6.96390625 18.8175 6.9453125 19.625 C6.89855148 21.54220189 6.82682003 23.45876715 6.75 25.375 C5.1470947 26.18998562 3.54262722 27.00189927 1.9375 27.8125 C1.04417969 28.26496094 0.15085938 28.71742188 -0.76953125 29.18359375 C-5.93209126 31.66324856 -10.60053547 32.01677917 -16.25 31.375 C-20.61784378 28.95874599 -22.6566772 26.07110932 -24.25 21.375 C-24.95652826 15.79265033 -25.3822152 10.27437715 -22.25 5.375 C-16.46972339 -1.28452995 -8.10023952 -4.05011976 0 0 Z " fill="#040201" transform="translate(246.25,233.625)"/>
</svg>
