<?xml version="1.0" encoding="UTF-8"?>
<!DOCTYPE svg PUBLIC "-//W3C//DTD SVG 1.1//EN" "http://www.w3.org/Graphics/SVG/1.1/DTD/svg11.dtd">
<svg xmlns="http://www.w3.org/2000/svg" version="1.1" width="478px" height="522px" style="shape-rendering:geometricPrecision; text-rendering:geometricPrecision; image-rendering:optimizeQuality; fill-rule:evenodd; clip-rule:evenodd" xmlns:xlink="http://www.w3.org/1999/xlink">
<g><path style="opacity:1" fill="#aebecc" d="M 390.5,30.5 C 392.943,39.8741 391.443,48.5408 386,56.5C 386.609,49.8364 386.442,43.1698 385.5,36.5C 379.298,32.8991 372.964,29.5658 366.5,26.5C 360.928,23.3752 355.261,20.2085 349.5,17C 348.313,15.9805 347.313,14.8139 346.5,13.5C 348.024,11.1421 350.024,9.30878 352.5,8C 364.141,5.06977 373.975,7.9031 382,16.5C 385.123,21.0965 387.957,25.7632 390.5,30.5 Z"/></g>
<g><path style="opacity:1" fill="#222124" d="M 336.5,9.5 C 337.923,11.5449 339.923,12.5449 342.5,12.5C 343.167,12.5 343.833,12.5 344.5,12.5C 345.249,13.531 345.915,14.6976 346.5,16C 343.549,15.6011 340.549,15.1011 337.5,14.5C 337.389,13.8826 337.056,13.3826 336.5,13C 324.272,12.1049 312.105,12.6049 300,14.5C 298.122,14.3038 296.288,13.9705 294.5,13.5C 308.16,9.65315 322.16,8.31982 336.5,9.5 Z"/></g>
<g><path style="opacity:0.588" fill="#5c5c61" d="M 336.5,9.5 C 338.97,9.65353 340.97,10.6535 342.5,12.5C 339.923,12.5449 337.923,11.5449 336.5,9.5 Z"/></g>
<g><path style="opacity:1" fill="#6ac6f6" d="M 337.5,14.5 C 346.299,19.7359 355.299,24.7359 364.5,29.5C 369.113,32.8122 374.113,35.6455 379.5,38C 364.551,40.6028 349.551,42.7695 334.5,44.5C 322.508,37.1699 310.508,29.8365 298.5,22.5C 296.519,20.8564 294.519,19.1897 292.5,17.5C 307.349,13.8093 322.349,12.8093 337.5,14.5 Z"/></g>
<g><path style="opacity:1" fill="#21252c" d="M 395.5,31.5 C 394.603,30.4019 393.77,30.4019 393,31.5C 392.333,30.1667 391.667,28.8333 391,27.5C 390.517,28.448 390.351,29.448 390.5,30.5C 387.957,25.7632 385.123,21.0965 382,16.5C 373.975,7.9031 364.141,5.06977 352.5,8C 350.024,9.30878 348.024,11.1421 346.5,13.5C 347.313,14.8139 348.313,15.9805 349.5,17C 355.261,20.2085 360.928,23.3752 366.5,26.5C 365.178,26.67 364.011,26.3366 363,25.5C 363.143,26.8649 363.643,28.1982 364.5,29.5C 355.299,24.7359 346.299,19.7359 337.5,14.5C 340.549,15.1011 343.549,15.6011 346.5,16C 345.915,14.6976 345.249,13.531 344.5,12.5C 347.183,8.00911 351.183,5.17577 356.5,4C 371.287,1.26532 382.454,6.43198 390,19.5C 392.136,23.4329 393.969,27.4329 395.5,31.5 Z"/></g>
<g><path style="opacity:1" fill="#041a31" d="M 298.5,22.5 C 310.508,29.8365 322.508,37.1699 334.5,44.5C 333.596,45.209 333.263,46.209 333.5,47.5C 329.132,44.3157 324.465,41.649 319.5,39.5C 311.5,34.1667 303.5,28.8333 295.5,23.5C 296.791,23.7373 297.791,23.404 298.5,22.5 Z"/></g>
<g><path style="opacity:1" fill="#23acfb" d="M 319.5,39.5 C 319.414,40.4959 319.748,41.3292 320.5,42C 324.553,43.3599 328.22,45.1932 331.5,47.5C 331.199,53.5112 330.699,59.5112 330,65.5C 329.333,66.1667 328.667,66.8333 328,67.5C 326.5,64.3379 325.5,61.3379 325,58.5C 324.056,59.263 323.556,60.263 323.5,61.5C 324.302,64.4486 324.636,67.4486 324.5,70.5C 325.822,70.67 326.989,70.3366 328,69.5C 328.758,71.7695 328.591,73.9361 327.5,76C 323.699,74.8885 319.699,74.0552 315.5,73.5C 315.167,73.5 314.833,73.5 314.5,73.5C 313.167,72.8333 311.833,72.1667 310.5,71.5C 309.833,70.8333 309.167,70.1667 308.5,69.5C 307.574,66.9051 305.907,64.9051 303.5,63.5C 297.979,61.1547 292.813,58.1547 288,54.5C 288.24,46.2178 288.573,37.8845 289,29.5C 291.695,25.3018 293.361,25.6351 294,30.5C 295.191,28.1531 297.024,27.3198 299.5,28C 300.912,29.7915 302.745,30.9582 305,31.5C 305.617,32.4491 305.451,33.2825 304.5,34C 309.527,35.8506 314.527,37.6839 319.5,39.5 Z"/></g>
<g><path style="opacity:1" fill="#161e2a" d="M 337.5,14.5 C 322.349,12.8093 307.349,13.8093 292.5,17.5C 294.519,19.1897 296.519,20.8564 298.5,22.5C 297.791,23.404 296.791,23.7373 295.5,23.5C 293.574,22.7577 291.741,21.7577 290,20.5C 289.667,20.8333 289.333,21.1667 289,21.5C 286.044,32.659 285.044,43.9923 286,55.5C 292.968,61.0651 300.468,65.7318 308.5,69.5C 309.167,70.1667 309.833,70.8333 310.5,71.5C 306.269,71.3007 302.769,69.6341 300,66.5C 298.586,67.4132 297.086,67.4132 295.5,66.5C 292.674,66.0023 290.34,64.6689 288.5,62.5C 288.027,61.0937 287.027,60.427 285.5,60.5C 284.206,59.7101 283.039,58.7101 282,57.5C 280.231,43.7099 281.897,30.3765 287,17.5C 289.185,15.4598 291.685,14.1264 294.5,13.5C 296.288,13.9705 298.122,14.3038 300,14.5C 312.105,12.6049 324.272,12.1049 336.5,13C 337.056,13.3826 337.389,13.8826 337.5,14.5 Z"/></g>
<g><path style="opacity:1" fill="#389dd9" d="M 295.5,23.5 C 303.5,28.8333 311.5,34.1667 319.5,39.5C 314.527,37.6839 309.527,35.8506 304.5,34C 305.451,33.2825 305.617,32.4491 305,31.5C 302.745,30.9582 300.912,29.7915 299.5,28C 297.024,27.3198 295.191,28.1531 294,30.5C 293.361,25.6351 291.695,25.3018 289,29.5C 288.573,37.8845 288.24,46.2178 288,54.5C 292.813,58.1547 297.979,61.1547 303.5,63.5C 305.907,64.9051 307.574,66.9051 308.5,69.5C 300.468,65.7318 292.968,61.0651 286,55.5C 285.044,43.9923 286.044,32.659 289,21.5C 289.333,21.1667 289.667,20.8333 290,20.5C 291.741,21.7577 293.574,22.7577 295.5,23.5 Z"/></g>
<g><path style="opacity:0.137" fill="#a09ea3" d="M 285.5,60.5 C 287.027,60.427 288.027,61.0937 288.5,62.5C 286.973,62.573 285.973,61.9063 285.5,60.5 Z"/></g>
<g><path style="opacity:1" fill="#323132" d="M 391.5,58.5 C 389.883,61.7843 387.55,64.4509 384.5,66.5C 383.037,64.4017 383.204,62.4017 385,60.5C 386.131,61.6039 386.965,61.2705 387.5,59.5C 388.689,58.5713 390.022,58.238 391.5,58.5 Z"/></g>
<g><path style="opacity:1" fill="#083250" d="M 333.5,55.5 C 333.304,63.7365 332.304,71.7365 330.5,79.5C 330.368,71.2214 331.368,63.2214 333.5,55.5 Z"/></g>
<g><path style="opacity:1" fill="#35a0df" d="M 319.5,39.5 C 324.465,41.649 329.132,44.3157 333.5,47.5C 334.497,50.005 334.497,52.6717 333.5,55.5C 331.368,63.2214 330.368,71.2214 330.5,79.5C 330.157,81.2252 329.157,81.7252 327.5,81C 323.268,78.7254 319.268,76.2254 315.5,73.5C 319.699,74.0552 323.699,74.8885 327.5,76C 328.591,73.9361 328.758,71.7695 328,69.5C 326.989,70.3366 325.822,70.67 324.5,70.5C 324.636,67.4486 324.302,64.4486 323.5,61.5C 323.556,60.263 324.056,59.263 325,58.5C 325.5,61.3379 326.5,64.3379 328,67.5C 328.667,66.8333 329.333,66.1667 330,65.5C 330.699,59.5112 331.199,53.5112 331.5,47.5C 328.22,45.1932 324.553,43.3599 320.5,42C 319.748,41.3292 319.414,40.4959 319.5,39.5 Z"/></g>
<g><path style="opacity:0.31" fill="#9b9696" d="M 384.5,66.5 C 384.279,69.0673 383.612,71.4006 382.5,73.5C 382.171,70.7718 382.837,68.4385 384.5,66.5 Z"/></g>
<g><path style="opacity:0.729" fill="#474443" d="M 302.5,71.5 C 304.048,71.8212 304.715,72.8212 304.5,74.5C 301.211,75.3739 297.877,76.0405 294.5,76.5C 297.198,74.8275 300.198,73.6608 303.5,73C 302.944,72.6174 302.611,72.1174 302.5,71.5 Z"/></g>
<g><path style="opacity:0.322" fill="#8c898a" d="M 293.5,76.5 C 293.027,77.9063 292.027,78.573 290.5,78.5C 290.973,77.0937 291.973,76.427 293.5,76.5 Z"/></g>
<g><path style="opacity:1" fill="#151921" d="M 366.5,26.5 C 372.964,29.5658 379.298,32.8991 385.5,36.5C 386.442,43.1698 386.609,49.8364 386,56.5C 391.443,48.5408 392.943,39.8741 390.5,30.5C 390.351,29.448 390.517,28.448 391,27.5C 391.667,28.8333 392.333,30.1667 393,31.5C 393.77,30.4019 394.603,30.4019 395.5,31.5C 399.049,41.3052 397.715,50.3052 391.5,58.5C 390.022,58.238 388.689,58.5713 387.5,59.5C 386.965,61.2705 386.131,61.6039 385,60.5C 383.204,62.4017 383.037,64.4017 384.5,66.5C 382.837,68.4385 382.171,70.7718 382.5,73.5C 382.047,74.4584 381.381,75.2917 380.5,76C 370.371,79.6576 360.038,82.491 349.5,84.5C 347.102,84.2594 345.102,84.9261 343.5,86.5C 340.135,86.9537 336.802,87.6203 333.5,88.5C 331.476,87.9788 329.476,87.8122 327.5,88C 321.731,90.8464 317.398,95.013 314.5,100.5C 312.997,104.024 311.997,107.69 311.5,111.5C 310.099,106.795 310.266,102.129 312,97.5C 314.933,92.3987 318.766,88.0654 323.5,84.5C 318.793,81.4398 314.126,78.4398 309.5,75.5C 311.781,75.9227 313.448,75.256 314.5,73.5C 314.833,73.5 315.167,73.5 315.5,73.5C 319.268,76.2254 323.268,78.7254 327.5,81C 329.157,81.7252 330.157,81.2252 330.5,79.5C 332.304,71.7365 333.304,63.7365 333.5,55.5C 334.497,52.6717 334.497,50.005 333.5,47.5C 333.263,46.209 333.596,45.209 334.5,44.5C 349.551,42.7695 364.551,40.6028 379.5,38C 374.113,35.6455 369.113,32.8122 364.5,29.5C 363.643,28.1982 363.143,26.8649 363,25.5C 364.011,26.3366 365.178,26.67 366.5,26.5 Z"/></g>
<g><path style="opacity:1" fill="#11476e" d="M 378.5,40.5 C 380.167,40.5 381.833,40.5 383.5,40.5C 383.028,51.8534 381.028,62.8534 377.5,73.5C 363.129,78.0926 348.463,81.7593 333.5,84.5C 334.765,72.5237 335.765,60.5237 336.5,48.5C 350.708,46.2461 364.708,43.5794 378.5,40.5 Z"/></g>
<g><path style="opacity:1" fill="#b0c0cf" d="M 309.5,75.5 C 314.126,78.4398 318.793,81.4398 323.5,84.5C 318.766,88.0654 314.933,92.3987 312,97.5C 310.266,102.129 310.099,106.795 311.5,111.5C 313.087,115.683 315.421,119.35 318.5,122.5C 319.44,124.612 320.606,126.612 322,128.5C 333.045,141.373 343.878,154.373 354.5,167.5C 353.861,171.527 353.028,175.527 352,179.5C 351.617,180.056 351.117,180.389 350.5,180.5C 336.082,153.588 314.582,134.588 286,123.5C 282.702,112.83 282.702,102.164 286,91.5C 291.818,83.1786 299.651,77.8453 309.5,75.5 Z"/></g>
<g><path style="opacity:0.224" fill="#9a9a9a" d="M 288.5,79.5 C 288.027,80.9063 287.027,81.573 285.5,81.5C 285.973,80.0937 286.973,79.427 288.5,79.5 Z"/></g>
<g><path style="opacity:0.173" fill="#888788" d="M 285.5,81.5 C 285.262,83.4044 284.262,84.7377 282.5,85.5C 282.738,83.5956 283.738,82.2623 285.5,81.5 Z"/></g>
<g><path style="opacity:0.031" fill="#999899" d="M 349.5,84.5 C 347.786,85.7384 345.786,86.405 343.5,86.5C 345.102,84.9261 347.102,84.2594 349.5,84.5 Z"/></g>
<g><path style="opacity:0.357" fill="#757474" d="M 252.5,115.5 C 241.148,115.373 229.815,115.706 218.5,116.5C 225.103,115.006 231.936,114.339 239,114.5C 243.68,114.501 248.18,114.834 252.5,115.5 Z"/></g>
<g><path style="opacity:1" fill="#141619" d="M 295.5,66.5 C 297.086,67.4132 298.586,67.4132 300,66.5C 302.769,69.6341 306.269,71.3007 310.5,71.5C 311.833,72.1667 313.167,72.8333 314.5,73.5C 313.448,75.256 311.781,75.9227 309.5,75.5C 299.651,77.8453 291.818,83.1786 286,91.5C 282.702,102.164 282.702,112.83 286,123.5C 314.582,134.588 336.082,153.588 350.5,180.5C 362.089,224.171 350.089,260.004 314.5,288C 302.083,297.079 290.25,306.913 279,317.5C 276.283,320.71 273.783,324.044 271.5,327.5C 270.243,330.096 269.076,332.763 268,335.5C 268.374,329.043 270.374,323.043 274,317.5C 278.122,310.921 282.955,304.921 288.5,299.5C 301.474,289.424 313.974,278.757 326,267.5C 342.331,248.173 349.664,225.84 348,200.5C 346.588,185.581 340.921,172.581 331,161.5C 294.899,125.189 251.732,113.689 201.5,127C 195.968,129.206 190.634,131.706 185.5,134.5C 166.713,144.952 153.713,160.285 146.5,180.5C 139.112,200.274 138.612,220.274 145,240.5C 148.81,248.788 153.144,256.788 158,264.5C 165.364,274.021 172.864,283.355 180.5,292.5C 184.32,298.431 187.487,304.765 190,311.5C 190.792,318.247 190.626,324.914 189.5,331.5C 188.883,331.611 188.383,331.944 188,332.5C 187.505,330.527 187.338,328.527 187.5,326.5C 188.38,317.528 186.213,309.195 181,301.5C 177.985,298.122 175.485,294.456 173.5,290.5C 172.921,288.133 171.588,286.3 169.5,285C 169.833,284.667 170.167,284.333 170.5,284C 169.207,283.51 167.873,283.343 166.5,283.5C 158.402,274.403 151.068,264.737 144.5,254.5C 144.573,252.973 143.906,251.973 142.5,251.5C 141.596,250.791 141.263,249.791 141.5,248.5C 141.573,246.973 140.906,245.973 139.5,245.5C 133.859,232.311 131.859,218.644 133.5,204.5C 134.687,201.054 135.354,197.387 135.5,193.5C 136.622,186.254 138.622,179.254 141.5,172.5C 142.906,172.027 143.573,171.027 143.5,169.5C 146.153,162.857 149.82,156.857 154.5,151.5C 156.587,150.415 157.92,148.749 158.5,146.5C 164.063,139.727 170.73,134.394 178.5,130.5C 181.406,129.892 183.74,128.559 185.5,126.5C 195.595,120.667 206.595,117.334 218.5,116.5C 229.815,115.706 241.148,115.373 252.5,115.5C 256.179,115.724 259.846,116.058 263.5,116.5C 265.515,117.924 267.848,118.59 270.5,118.5C 273.909,119.027 277.242,119.527 280.5,120C 276.36,111.192 275.527,102.025 278,92.5C 279.026,89.7613 280.526,87.428 282.5,85.5C 284.262,84.7377 285.262,83.4044 285.5,81.5C 287.027,81.573 288.027,80.9063 288.5,79.5C 288.842,78.6618 289.508,78.3284 290.5,78.5C 292.027,78.573 293.027,77.9063 293.5,76.5C 293.833,76.5 294.167,76.5 294.5,76.5C 297.877,76.0405 301.211,75.3739 304.5,74.5C 304.715,72.8212 304.048,71.8212 302.5,71.5C 299.6,70.5568 297.267,68.8901 295.5,66.5 Z"/></g>
<g><path style="opacity:0.247" fill="#a8a8a8" d="M 263.5,116.5 C 266.152,116.41 268.485,117.076 270.5,118.5C 267.848,118.59 265.515,117.924 263.5,116.5 Z"/></g>
<g><path style="opacity:0.996" fill="#55555e" d="M 314.5,100.5 C 311.76,108.92 313.76,115.92 320.5,121.5C 319.508,121.328 318.842,121.662 318.5,122.5C 315.421,119.35 313.087,115.683 311.5,111.5C 311.997,107.69 312.997,104.024 314.5,100.5 Z"/></g>
<g><path style="opacity:1" fill="#b0c1d1" d="M 288.5,299.5 C 284.283,298.825 281.95,300.825 281.5,305.5C 276.693,306.051 273.86,308.718 273,313.5C 271.943,311.781 271.11,309.947 270.5,308C 268.866,307.506 267.199,307.34 265.5,307.5C 265.635,305.446 264.968,303.779 263.5,302.5C 274.432,294.195 276.265,284.195 269,272.5C 262.414,266.536 254.914,265.036 246.5,268C 247.094,268.464 247.761,268.631 248.5,268.5C 247.432,269.434 246.099,269.768 244.5,269.5C 240.254,270.745 237.254,273.412 235.5,277.5C 234.5,276.833 233.5,276.167 232.5,275.5C 228.761,263.952 220.761,258.952 208.5,260.5C 193.565,266.12 188.899,276.453 194.5,291.5C 195.211,295.91 193.878,299.41 190.5,302C 191.03,303.744 191.03,305.244 190.5,306.5C 188.385,303.047 186.718,299.38 185.5,295.5C 184.06,294.048 182.394,293.048 180.5,292.5C 172.864,283.355 165.364,274.021 158,264.5C 153.144,256.788 148.81,248.788 145,240.5C 138.612,220.274 139.112,200.274 146.5,180.5C 147.789,179.499 149.122,179.666 150.5,181C 153.786,187.05 158.786,189.05 165.5,187C 177.793,182.376 186.959,174.209 193,162.5C 195.983,155.644 196.316,148.644 194,141.5C 191.552,138.527 188.386,137.027 184.5,137C 185.252,136.329 185.586,135.496 185.5,134.5C 190.634,131.706 195.968,129.206 201.5,127C 251.732,113.689 294.899,125.189 331,161.5C 340.921,172.581 346.588,185.581 348,200.5C 349.664,225.84 342.331,248.173 326,267.5C 313.974,278.757 301.474,289.424 288.5,299.5 Z"/></g>
<g><path style="opacity:0.161" fill="#686765" d="M 185.5,126.5 C 183.74,128.559 181.406,129.892 178.5,130.5C 180.336,128.412 182.669,127.079 185.5,126.5 Z"/></g>
<g><path style="opacity:1" fill="#93abc8" d="M 223.5,129.5 C 236.836,128.652 241.003,134.318 236,146.5C 233.692,147.641 231.859,149.308 230.5,151.5C 227.397,152.763 224.397,154.263 221.5,156C 217.11,156.772 212.777,156.606 208.5,155.5C 204.081,151.398 203.414,146.731 206.5,141.5C 211.058,135.739 216.725,131.739 223.5,129.5 Z"/></g>
<g><path style="opacity:0.012" fill="#a4a4a4" d="M 333.5,135.5 C 335.262,136.262 336.262,137.596 336.5,139.5C 334.738,138.738 333.738,137.404 333.5,135.5 Z"/></g>
<g><path style="opacity:1" fill="#91aac6" d="M 185.5,134.5 C 185.586,135.496 185.252,136.329 184.5,137C 188.386,137.027 191.552,138.527 194,141.5C 196.316,148.644 195.983,155.644 193,162.5C 186.959,174.209 177.793,182.376 165.5,187C 158.786,189.05 153.786,187.05 150.5,181C 149.122,179.666 147.789,179.499 146.5,180.5C 153.713,160.285 166.713,144.952 185.5,134.5 Z"/></g>
<g><path style="opacity:0.016" fill="#bdbdbd" d="M 336.5,139.5 C 338.027,139.427 339.027,140.094 339.5,141.5C 337.973,141.573 336.973,140.906 336.5,139.5 Z"/></g>
<g><path style="opacity:0.357" fill="#747173" d="M 158.5,146.5 C 157.92,148.749 156.587,150.415 154.5,151.5C 155.08,149.251 156.413,147.585 158.5,146.5 Z"/></g>
<g><path style="opacity:0.259" fill="#858585" d="M 351.5,153.5 C 352.906,153.973 353.573,154.973 353.5,156.5C 352.094,156.027 351.427,155.027 351.5,153.5 Z"/></g>
<g><path style="opacity:0.035" fill="#b0b0b0" d="M 143.5,169.5 C 143.573,171.027 142.906,172.027 141.5,172.5C 141.427,170.973 142.094,169.973 143.5,169.5 Z"/></g>
<g><path style="opacity:1" fill="#7b8b9c" d="M 354.5,167.5 C 377.141,196.532 380.641,227.865 365,261.5C 354.631,280.039 341.798,296.706 326.5,311.5C 322.14,315.194 318.14,319.194 314.5,323.5C 314.53,322.503 314.03,321.836 313,321.5C 304.599,319.567 296.099,319.067 287.5,320C 281.656,321.759 276.322,324.259 271.5,327.5C 273.783,324.044 276.283,320.71 279,317.5C 290.25,306.913 302.083,297.079 314.5,288C 350.089,260.004 362.089,224.171 350.5,180.5C 351.117,180.389 351.617,180.056 352,179.5C 353.028,175.527 353.861,171.527 354.5,167.5 Z"/></g>
<g><path style="opacity:0.106" fill="#b0adac" d="M 91.5,194.5 C 95.2647,193.226 98.9313,193.559 102.5,195.5C 98.8455,195.058 95.1788,194.724 91.5,194.5 Z"/></g>
<g><path style="opacity:0.102" fill="#b1b2b2" d="M 106.5,196.5 C 108.153,196.66 109.486,197.326 110.5,198.5C 108.62,198.771 107.287,198.104 106.5,196.5 Z"/></g>
<g><path style="opacity:0.106" fill="#8d848b" d="M 135.5,193.5 C 135.354,197.387 134.687,201.054 133.5,204.5C 133.251,200.542 133.918,196.876 135.5,193.5 Z"/></g>
<g><path style="opacity:1" fill="#6bc4f3" d="M 122.5,209.5 C 109.154,214.007 96.1538,219.34 83.5,225.5C 73.3561,221.761 63.6894,216.928 54.5,211C 66.6506,205.295 79.3173,201.128 92.5,198.5C 95.567,198.607 98.567,199.107 101.5,200C 107.715,203.243 114.215,205.743 121,207.5C 122.03,207.836 122.53,208.503 122.5,209.5 Z"/></g>
<g><path style="opacity:0.141" fill="#adaeaf" d="M 61.5,203.5 C 60.713,205.104 59.3797,205.771 57.5,205.5C 58.5137,204.326 59.847,203.66 61.5,203.5 Z"/></g>
<g><path style="opacity:1" fill="#092946" d="M 122.5,209.5 C 122.833,210.167 123.167,210.833 123.5,211.5C 118.346,212.545 113.679,214.545 109.5,217.5C 100.611,220.424 91.9441,223.757 83.5,227.5C 83.5,226.833 83.5,226.167 83.5,225.5C 96.1538,219.34 109.154,214.007 122.5,209.5 Z"/></g>
<g><path style="opacity:1" fill="#121720" d="M 91.5,194.5 C 95.1788,194.724 98.8455,195.058 102.5,195.5C 103.833,195.833 105.167,196.167 106.5,196.5C 107.287,198.104 108.62,198.771 110.5,198.5C 117.088,200.211 123.255,202.878 129,206.5C 129.498,209.482 129.665,212.482 129.5,215.5C 128.839,214.282 128.172,212.949 127.5,211.5C 126.135,212.807 124.802,212.807 123.5,211.5C 123.167,210.833 122.833,210.167 122.5,209.5C 122.53,208.503 122.03,207.836 121,207.5C 114.215,205.743 107.715,203.243 101.5,200C 98.567,199.107 95.567,198.607 92.5,198.5C 79.3173,201.128 66.6506,205.295 54.5,211C 63.6894,216.928 73.3561,221.761 83.5,225.5C 83.5,226.167 83.5,226.833 83.5,227.5C 83.5,227.833 83.5,228.167 83.5,228.5C 82.8333,228.5 82.5,228.833 82.5,229.5C 81.8333,229.5 81.1667,229.5 80.5,229.5C 80.0472,228.542 79.3805,227.708 78.5,227C 69.6448,222.74 60.9781,218.24 52.5,213.5C 52.1667,214.333 51.8333,215.167 51.5,216C 52.0939,224.527 52.9273,233.027 54,241.5C 62.531,247.293 71.3643,252.626 80.5,257.5C 81.1667,257.5 81.8333,257.5 82.5,257.5C 84.153,257.34 85.4863,256.674 86.5,255.5C 97.2725,250.948 107.606,245.614 117.5,239.5C 119.167,238.833 120.833,238.167 122.5,237.5C 122.389,238.117 122.056,238.617 121.5,239C 122.793,239.49 124.127,239.657 125.5,239.5C 125.402,236.752 126.402,236.086 128.5,237.5C 127.432,239.74 125.766,241.574 123.5,243C 116.569,246.796 109.569,250.296 102.5,253.5C 100.847,253.66 99.5137,254.326 98.5,255.5C 92.175,258.844 85.5083,260.678 78.5,261C 71.937,256.888 65.2703,253.055 58.5,249.5C 55.5865,248.094 53.0865,246.094 51,243.5C 49.7983,234.542 48.965,225.542 48.5,216.5C 48.0825,215.778 47.4158,215.278 46.5,215C 47.4158,214.722 48.0825,214.222 48.5,213.5C 48.2606,211.533 48.5939,209.699 49.5,208C 52.0804,206.856 54.7471,206.022 57.5,205.5C 59.3797,205.771 60.713,205.104 61.5,203.5C 71.4957,200.5 81.4957,197.5 91.5,194.5 Z"/></g>
<g><path style="opacity:0.173" fill="#929293" d="M 42.5,216.5 C 41.8333,217.833 40.8333,218.833 39.5,219.5C 39.5,217.5 40.5,216.5 42.5,216.5 Z"/></g>
<g><path style="opacity:1" fill="#aebcca" d="M 48.5,216.5 C 48.965,225.542 49.7983,234.542 51,243.5C 53.0865,246.094 55.5865,248.094 58.5,249.5C 58.5494,252.099 59.5494,254.266 61.5,256C 59.5753,255.865 57.5753,255.698 55.5,255.5C 46.2689,254.77 41.1022,249.77 40,240.5C 39.1492,234.747 39.4826,229.08 41,223.5C 42.083,219.582 44.583,217.248 48.5,216.5 Z"/></g>
<g><path style="opacity:1" fill="#26acf9" d="M 117.5,239.5 C 107.606,245.614 97.2725,250.948 86.5,255.5C 85.5,255.5 84.5,255.5 83.5,255.5C 83.5,246.5 83.5,237.5 83.5,228.5C 83.5,228.167 83.5,227.833 83.5,227.5C 91.9441,223.757 100.611,220.424 109.5,217.5C 113.919,216.458 118.252,215.125 122.5,213.5C 122.5,220.833 122.5,228.167 122.5,235.5C 120.833,235.5 119.167,235.5 117.5,235.5C 117.5,236.833 117.5,238.167 117.5,239.5 Z"/></g>
<g><path style="opacity:0.989" fill="#23272e" d="M 123.5,211.5 C 124.802,212.807 126.135,212.807 127.5,211.5C 128.172,212.949 128.839,214.282 129.5,215.5C 129.825,223.019 129.492,230.352 128.5,237.5C 126.402,236.086 125.402,236.752 125.5,239.5C 124.127,239.657 122.793,239.49 121.5,239C 122.056,238.617 122.389,238.117 122.5,237.5C 123.47,228.918 123.803,220.251 123.5,211.5 Z"/></g>
<g><path style="opacity:1" fill="#151518" d="M 320.5,121.5 C 324.833,126.167 329.167,130.833 333.5,135.5C 333.738,137.404 334.738,138.738 336.5,139.5C 336.973,140.906 337.973,141.573 339.5,141.5C 343.86,145.194 347.86,149.194 351.5,153.5C 351.427,155.027 352.094,156.027 353.5,156.5C 376.049,179.281 385.215,206.614 381,238.5C 379.762,242.268 378.596,245.934 377.5,249.5C 376.069,250.78 375.402,252.447 375.5,254.5C 375.567,255.959 375.234,257.292 374.5,258.5C 373.094,258.973 372.427,259.973 372.5,261.5C 372.443,262.609 372.11,263.609 371.5,264.5C 370.5,264.5 369.5,264.5 368.5,264.5C 367.69,266.798 366.856,269.132 366,271.5C 365.667,271.167 365.333,270.833 365,270.5C 364.51,271.793 364.343,273.127 364.5,274.5C 360.636,281.701 355.636,288.034 349.5,293.5C 348.778,293.082 348.278,292.416 348,291.5C 347.138,293.087 346.471,294.754 346,296.5C 345.667,296.167 345.333,295.833 345,295.5C 340.695,299.805 336.862,303.638 333.5,307C 333.833,307.333 334.167,307.667 334.5,308C 333.062,308.219 331.729,308.719 330.5,309.5C 330.863,310.183 331.196,310.85 331.5,311.5C 329.876,311.36 328.71,312.027 328,313.5C 327.283,312.956 326.783,312.289 326.5,311.5C 341.798,296.706 354.631,280.039 365,261.5C 380.641,227.865 377.141,196.532 354.5,167.5C 343.878,154.373 333.045,141.373 322,128.5C 320.606,126.612 319.44,124.612 318.5,122.5C 318.842,121.662 319.508,121.328 320.5,121.5 Z"/></g>
<g><path style="opacity:1" fill="#10466d" d="M 80.5,229.5 C 80.5,238.833 80.5,248.167 80.5,257.5C 71.3643,252.626 62.531,247.293 54,241.5C 52.9273,233.027 52.0939,224.527 51.5,216C 51.8333,215.167 52.1667,214.333 52.5,213.5C 60.9781,218.24 69.6448,222.74 78.5,227C 79.3805,227.708 80.0472,228.542 80.5,229.5 Z"/></g>
<g><path style="opacity:1" fill="#3a98cd" d="M 123.5,211.5 C 123.803,220.251 123.47,228.918 122.5,237.5C 120.833,238.167 119.167,238.833 117.5,239.5C 117.5,238.167 117.5,236.833 117.5,235.5C 119.167,235.5 120.833,235.5 122.5,235.5C 122.5,228.167 122.5,220.833 122.5,213.5C 118.252,215.125 113.919,216.458 109.5,217.5C 113.679,214.545 118.346,212.545 123.5,211.5 Z"/></g>
<g><path style="opacity:1" fill="#001836" d="M 80.5,229.5 C 81.1667,229.5 81.8333,229.5 82.5,229.5C 82.5,238.833 82.5,248.167 82.5,257.5C 81.8333,257.5 81.1667,257.5 80.5,257.5C 80.5,248.167 80.5,238.833 80.5,229.5 Z"/></g>
<g><path style="opacity:0.067" fill="#a0a0a8" d="M 139.5,245.5 C 140.906,245.973 141.573,246.973 141.5,248.5C 140.094,248.027 139.427,247.027 139.5,245.5 Z"/></g>
<g><path style="opacity:1" fill="#417fa7" d="M 83.5,228.5 C 83.5,237.5 83.5,246.5 83.5,255.5C 84.5,255.5 85.5,255.5 86.5,255.5C 85.4863,256.674 84.153,257.34 82.5,257.5C 82.5,248.167 82.5,238.833 82.5,229.5C 82.5,228.833 82.8333,228.5 83.5,228.5 Z"/></g>
<g><path style="opacity:0.188" fill="#898888" d="M 377.5,249.5 C 377.598,251.553 376.931,253.22 375.5,254.5C 375.402,252.447 376.069,250.78 377.5,249.5 Z"/></g>
<g><path style="opacity:0.016" fill="#959494" d="M 142.5,251.5 C 143.906,251.973 144.573,252.973 144.5,254.5C 143.094,254.027 142.427,253.027 142.5,251.5 Z"/></g>
<g><path style="opacity:0.365" fill="#7b7b83" d="M 41.5,254.5 C 43.0269,254.427 44.0269,255.094 44.5,256.5C 42.9731,256.573 41.9731,255.906 41.5,254.5 Z"/></g>
<g><path style="opacity:0.968" fill="#1a1b1e" d="M 48.5,213.5 C 48.0825,214.222 47.4158,214.722 46.5,215C 47.4158,215.278 48.0825,215.778 48.5,216.5C 44.583,217.248 42.083,219.582 41,223.5C 39.4826,229.08 39.1492,234.747 40,240.5C 41.1022,249.77 46.2689,254.77 55.5,255.5C 61.3072,257.499 66.9739,259.999 72.5,263C 78.1745,267.185 81.0078,272.685 81,279.5C 80.7216,278.584 80.2216,277.918 79.5,277.5C 75.316,270.666 69.316,265.999 61.5,263.5C 60.713,261.896 59.3797,261.229 57.5,261.5C 52.5641,261.191 48.2308,259.524 44.5,256.5C 44.0269,255.094 43.0269,254.427 41.5,254.5C 39.5491,253.284 38.0491,251.618 37,249.5C 34.3919,241.249 34.0586,232.916 36,224.5C 36.6972,222.416 37.8639,220.749 39.5,219.5C 40.8333,218.833 41.8333,217.833 42.5,216.5C 43.6067,214.031 45.6067,213.031 48.5,213.5 Z"/></g>
<g><path style="opacity:0.039" fill="#b6b6b6" d="M 374.5,258.5 C 374.573,260.027 373.906,261.027 372.5,261.5C 372.427,259.973 373.094,258.973 374.5,258.5 Z"/></g>
<g><path style="opacity:0.969" fill="#484b51" d="M 102.5,253.5 C 104.383,257.277 105.716,261.277 106.5,265.5C 105.732,264.737 105.232,263.737 105,262.5C 104.536,263.094 104.369,263.761 104.5,264.5C 103.645,261.825 102.478,259.158 101,256.5C 100.329,255.748 99.4959,255.414 98.5,255.5C 99.5137,254.326 100.847,253.66 102.5,253.5 Z"/></g>
<g><path style="opacity:0.09" fill="#a8a8a8" d="M 57.5,261.5 C 59.3797,261.229 60.713,261.896 61.5,263.5C 59.847,263.34 58.5137,262.674 57.5,261.5 Z"/></g>
<g><path style="opacity:1" fill="#7c8b9a" d="M 58.5,249.5 C 65.2703,253.055 71.937,256.888 78.5,261C 85.5083,260.678 92.175,258.844 98.5,255.5C 99.4959,255.414 100.329,255.748 101,256.5C 102.478,259.158 103.645,261.825 104.5,264.5C 106.415,273.701 104.415,282.035 98.5,289.5C 99.6998,290.292 101.033,290.292 102.5,289.5C 101.488,290.872 100.488,292.205 99.5,293.5C 99.0517,291.535 98.0517,291.202 96.5,292.5C 95.1433,294.565 93.81,296.565 92.5,298.5C 92.5792,297.07 92.2458,295.736 91.5,294.5C 88.7846,291.943 86.6179,288.943 85,285.5C 84.1841,284.177 83.0174,283.511 81.5,283.5C 81.6495,282.448 81.4828,281.448 81,280.5C 80.79,282.058 80.29,283.391 79.5,284.5C 79.5,282.167 79.5,279.833 79.5,277.5C 80.2216,277.918 80.7216,278.584 81,279.5C 81.0078,272.685 78.1745,267.185 72.5,263C 66.9739,259.999 61.3072,257.499 55.5,255.5C 57.5753,255.698 59.5753,255.865 61.5,256C 59.5494,254.266 58.5494,252.099 58.5,249.5 Z"/></g>
<g><path style="opacity:1" fill="#f7f8f7" d="M 210.5,262.5 C 210.002,268.499 212.669,270.666 218.5,269C 220.004,267.509 220.837,265.676 221,263.5C 232.885,274.89 232.052,285.39 218.5,295C 211.914,297.274 205.58,296.774 199.5,293.5C 194.278,286.942 193.112,279.608 196,271.5C 199.036,265.567 203.869,262.567 210.5,262.5 Z"/></g>
<g><path style="opacity:1" fill="#f7f7f7" d="M 248.5,268.5 C 249.5,268.5 250.5,268.5 251.5,268.5C 251.002,274.499 253.669,276.666 259.5,275C 261.723,274.348 262.89,272.848 263,270.5C 270.967,276.642 272.633,284.309 268,293.5C 260.979,302.723 252.146,304.89 241.5,300C 235.939,294.636 234.105,288.136 236,280.5C 237.553,275.788 240.386,272.121 244.5,269.5C 246.099,269.768 247.432,269.434 248.5,268.5 Z"/></g>
<g><path style="opacity:0.886" fill="#5e545a" d="M 371.5,264.5 C 369.646,268.221 367.313,271.554 364.5,274.5C 364.343,273.127 364.51,271.793 365,270.5C 365.333,270.833 365.667,271.167 366,271.5C 366.856,269.132 367.69,266.798 368.5,264.5C 369.5,264.5 370.5,264.5 371.5,264.5 Z"/></g>
<g><path style="opacity:0.859" fill="#26282b" d="M 106.5,265.5 C 107.72,270.455 107.72,275.455 106.5,280.5C 104.896,281.287 104.229,282.62 104.5,284.5C 103.833,286.167 103.167,287.833 102.5,289.5C 101.033,290.292 99.6998,290.292 98.5,289.5C 104.415,282.035 106.415,273.701 104.5,264.5C 104.369,263.761 104.536,263.094 105,262.5C 105.232,263.737 105.732,264.737 106.5,265.5 Z"/></g>
<g><path style="opacity:0.086" fill="#b9b9b9" d="M 106.5,280.5 C 106.34,282.153 105.674,283.486 104.5,284.5C 104.229,282.62 104.896,281.287 106.5,280.5 Z"/></g>
<g><path style="opacity:1" fill="#181a1e" d="M 208.5,260.5 C 220.761,258.952 228.761,263.952 232.5,275.5C 231.21,293.503 221.544,301.003 203.5,298C 201.807,297.153 200.14,296.32 198.5,295.5C 198.328,294.508 198.662,293.842 199.5,293.5C 205.58,296.774 211.914,297.274 218.5,295C 232.052,285.39 232.885,274.89 221,263.5C 220.837,265.676 220.004,267.509 218.5,269C 212.669,270.666 210.002,268.499 210.5,262.5C 210.938,262.565 211.272,262.399 211.5,262C 210.263,261.768 209.263,261.268 208.5,260.5 Z"/></g>
<g><path style="opacity:1" fill="#1e2025" d="M 437.5,307.5 C 436.022,307.238 434.689,307.571 433.5,308.5C 432.45,309.429 432.45,310.095 433.5,310.5C 432.791,311.404 431.791,311.737 430.5,311.5C 430.891,315.073 431.891,318.407 433.5,321.5C 431.39,320.547 430.223,318.881 430,316.5C 428.583,317.078 427.75,318.078 427.5,319.5C 416.615,294.553 397.615,284.553 370.5,289.5C 367.075,289.633 366.742,288.967 369.5,287.5C 391.128,280.659 409.462,285.826 424.5,303C 429.108,304.035 433.441,305.535 437.5,307.5 Z"/></g>
<g><path style="opacity:1" fill="#b0c0cf" d="M 232.5,275.5 C 233.5,276.167 234.5,276.833 235.5,277.5C 229.988,293.828 235.654,303.162 252.5,305.5C 256.246,304.794 259.912,303.794 263.5,302.5C 264.968,303.779 265.635,305.446 265.5,307.5C 267.199,307.34 268.866,307.506 270.5,308C 271.11,309.947 271.943,311.781 273,313.5C 273.86,308.718 276.693,306.051 281.5,305.5C 281.95,300.825 284.283,298.825 288.5,299.5C 282.955,304.921 278.122,310.921 274,317.5C 270.374,323.043 268.374,329.043 268,335.5C 269.076,332.763 270.243,330.096 271.5,327.5C 276.322,324.259 281.656,321.759 287.5,320C 296.099,319.067 304.599,319.567 313,321.5C 314.03,321.836 314.53,322.503 314.5,323.5C 306.474,331.194 298.474,338.861 290.5,346.5C 286.987,346.307 283.654,346.974 280.5,348.5C 278.617,348.124 277.117,347.124 276,345.5C 276.195,347.126 276.195,348.793 276,350.5C 268.558,356.333 266.558,363.666 270,372.5C 274.752,379.644 280.919,381.477 288.5,378C 289.883,376.729 290.883,375.229 291.5,373.5C 294.434,374.289 296.268,376.289 297,379.5C 297.812,387.222 297.478,394.889 296,402.5C 294.951,404.107 293.451,404.773 291.5,404.5C 277.274,401.895 266.274,394.561 258.5,382.5C 254.399,372.484 251.899,362.151 251,351.5C 250.667,354.833 250.333,358.167 250,361.5C 247.836,363.811 246.836,366.478 247,369.5C 247.278,368.584 247.778,367.918 248.5,367.5C 248.598,369.553 247.931,371.22 246.5,372.5C 245.752,370.265 244.919,370.598 244,373.5C 242.846,377.447 242.013,381.447 241.5,385.5C 240.686,387.631 240.186,389.964 240,392.5C 238.215,393.24 236.382,393.907 234.5,394.5C 228.922,401.026 229.255,407.193 235.5,413C 239.69,413.81 243.69,413.31 247.5,411.5C 257.987,428.385 272.987,434.885 292.5,431C 307.115,427.037 317.282,418.204 323,404.5C 325.08,394.497 323.08,385.497 317,377.5C 310.87,369.695 303.037,364.862 293.5,363C 294.416,363.278 295.082,363.778 295.5,364.5C 294.5,364.5 293.5,364.5 292.5,364.5C 292.167,363.167 291.833,363.167 291.5,364.5C 290.577,363.697 289.577,363.53 288.5,364C 291.662,369.52 290.662,374.187 285.5,378C 274.357,378.184 269.523,372.684 271,361.5C 274.758,353.93 280.925,350.264 289.5,350.5C 309.156,352.078 325.322,360.411 338,375.5C 349.165,394.129 349.332,412.796 338.5,431.5C 334.028,435.801 329.361,439.968 324.5,444C 319.228,447.307 313.561,449.474 307.5,450.5C 298.332,446.421 288.999,442.588 279.5,439C 276.167,438.333 272.833,438.333 269.5,439C 262.864,441.267 256.198,443.434 249.5,445.5C 247.173,444.177 244.84,442.843 242.5,441.5C 231.079,431.007 222.912,418.34 218,403.5C 217.506,401.866 217.34,400.199 217.5,398.5C 217.5,397.167 217.5,395.833 217.5,394.5C 227.51,392.657 233.843,386.823 236.5,377C 235.918,366.945 230.918,360.778 221.5,358.5C 222.526,355.628 224.192,353.128 226.5,351C 226.167,350.833 225.833,350.667 225.5,350.5C 218.893,353.457 213.56,357.79 209.5,363.5C 205.469,367.932 203.803,373.265 204.5,379.5C 206.033,391.698 208.533,403.698 212,415.5C 214.326,425.948 213.993,436.281 211,446.5C 209.824,448.196 208.657,449.862 207.5,451.5C 196.083,463.198 182.083,468.198 165.5,466.5C 162.518,466.037 159.518,465.704 156.5,465.5C 155.22,464.069 153.553,463.402 151.5,463.5C 151.666,459.486 151.499,455.486 151,451.5C 147.228,444.892 142.062,439.892 135.5,436.5C 125.999,433.42 119.665,436.42 116.5,445.5C 113.5,443.5 110.5,441.5 107.5,439.5C 105.763,437.45 103.763,435.617 101.5,434C 100.563,433.308 99.8966,433.475 99.5,434.5C 97.2241,432.649 94.8907,430.982 92.5,429.5C 93.2389,429.631 93.9056,429.464 94.5,429C 91.9289,427.546 89.2622,426.38 86.5,425.5C 79.4461,420.77 73.2794,421.77 68,428.5C 66.993,433.111 67.6597,437.445 70,441.5C 73.7398,444.951 77.5732,448.285 81.5,451.5C 85.0818,463.064 80.7485,467.564 68.5,465C 50.6779,455.182 44.8446,440.682 51,421.5C 60.1665,404.506 73.9998,399.006 92.5,405C 101.973,409.904 110.973,415.57 119.5,422C 126.604,425.862 133.937,429.029 141.5,431.5C 148.018,434.145 154.684,434.812 161.5,433.5C 180.749,432.907 190.416,423.074 190.5,404C 190.141,393.343 188.641,382.843 186,372.5C 183.426,356.982 188.926,345.315 202.5,337.5C 209.783,332.845 217.783,330.678 226.5,331C 217.258,329.23 208.925,331.063 201.5,336.5C 185.444,344.777 178.111,357.943 179.5,376C 164.649,384.784 148.649,390.284 131.5,392.5C 123.517,393.166 115.517,393.499 107.5,393.5C 90.4272,391.552 76.2606,384.219 65,371.5C 62.7178,366.982 61.0512,362.316 60,357.5C 59.637,348.127 60.137,338.793 61.5,329.5C 64.9371,317.538 69.9371,306.205 76.5,295.5C 79.2461,292.001 80.9127,288.001 81.5,283.5C 83.0174,283.511 84.1841,284.177 85,285.5C 86.6179,288.943 88.7846,291.943 91.5,294.5C 92.2458,295.736 92.5792,297.07 92.5,298.5C 91.5,300.5 90.5,302.5 89.5,304.5C 82.1128,316.513 79.6128,329.513 82,343.5C 87.7622,356.986 97.9289,365.152 112.5,368C 123.55,368.879 134.55,368.546 145.5,367C 161.795,362.029 175.128,352.862 185.5,339.5C 187.387,337.211 188.721,334.545 189.5,331.5C 190.626,324.914 190.792,318.247 190,311.5C 187.487,304.765 184.32,298.431 180.5,292.5C 182.394,293.048 184.06,294.048 185.5,295.5C 186.718,299.38 188.385,303.047 190.5,306.5C 191.03,305.244 191.03,303.744 190.5,302C 193.878,299.41 195.211,295.91 194.5,291.5C 195.473,293.139 196.806,294.473 198.5,295.5C 200.14,296.32 201.807,297.153 203.5,298C 221.544,301.003 231.21,293.503 232.5,275.5 Z M 218.5,357.5 C 217.5,359.5 216.5,361.5 215.5,363.5C 213.092,367.018 211.759,371.018 211.5,375.5C 210.349,377.779 209.349,380.112 208.5,382.5C 208.151,376.992 208.817,371.659 210.5,366.5C 212.504,362.834 215.171,359.834 218.5,357.5 Z M 254.5,383.5 C 254.5,383.833 254.5,384.167 254.5,384.5C 254.229,386.38 254.896,387.713 256.5,388.5C 256.66,390.153 257.326,391.486 258.5,392.5C 258.427,394.027 259.094,395.027 260.5,395.5C 270.083,405.955 282.083,411.622 296.5,412.5C 299.942,413.748 303.608,414.581 307.5,415C 289.901,429.107 272.568,428.941 255.5,414.5C 254.92,412.251 253.587,410.585 251.5,409.5C 244.52,397.944 242.853,385.611 246.5,372.5C 247.931,371.22 248.598,369.553 248.5,367.5C 248.987,366.527 249.487,365.527 250,364.5C 251.061,369.104 251.727,373.771 252,378.5C 252.374,380.491 253.207,382.158 254.5,383.5 Z M 292.5,364.5 C 293.5,364.5 294.5,364.5 295.5,364.5C 298.312,366.408 301.312,368.075 304.5,369.5C 304.973,370.906 305.973,371.573 307.5,371.5C 307.5,371.833 307.5,372.167 307.5,372.5C 307.5,372.833 307.5,373.167 307.5,373.5C 304.594,372.213 301.594,371.213 298.5,370.5C 298.19,368.856 297.19,367.856 295.5,367.5C 294.167,366.833 293.167,365.833 292.5,364.5 Z"/></g>
<g><path style="opacity:0.996" fill="#555556" d="M 166.5,283.5 C 167.873,283.343 169.207,283.51 170.5,284C 170.167,284.333 169.833,284.667 169.5,285C 171.588,286.3 172.921,288.133 173.5,290.5C 170.854,288.521 168.521,286.188 166.5,283.5 Z"/></g>
<g><path style="opacity:0.953" fill="#4d5158" d="M 81.5,283.5 C 80.9127,288.001 79.2461,292.001 76.5,295.5C 76.5,294.833 76.1667,294.5 75.5,294.5C 77.2973,291.364 78.6307,288.03 79.5,284.5C 80.29,283.391 80.79,282.058 81,280.5C 81.4828,281.448 81.6495,282.448 81.5,283.5 Z"/></g>
<g><path style="opacity:1" fill="#30353c" d="M 208.5,260.5 C 209.263,261.268 210.263,261.768 211.5,262C 211.272,262.399 210.938,262.565 210.5,262.5C 203.869,262.567 199.036,265.567 196,271.5C 193.112,279.608 194.278,286.942 199.5,293.5C 198.662,293.842 198.328,294.508 198.5,295.5C 196.806,294.473 195.473,293.139 194.5,291.5C 188.899,276.453 193.565,266.12 208.5,260.5 Z"/></g>
<g><path style="opacity:0.749" fill="#636363" d="M 98.5,295.5 C 97.8897,297.434 96.8897,299.101 95.5,300.5C 95.2407,298.011 96.2407,296.344 98.5,295.5 Z"/></g>
<g><path style="opacity:1" fill="#1c2024" d="M 263.5,302.5 C 259.912,303.794 256.246,304.794 252.5,305.5C 235.654,303.162 229.988,293.828 235.5,277.5C 237.254,273.412 240.254,270.745 244.5,269.5C 240.386,272.121 237.553,275.788 236,280.5C 234.105,288.136 235.939,294.636 241.5,300C 252.146,304.89 260.979,302.723 268,293.5C 272.633,284.309 270.967,276.642 263,270.5C 262.89,272.848 261.723,274.348 259.5,275C 253.669,276.666 251.002,274.499 251.5,268.5C 250.5,268.5 249.5,268.5 248.5,268.5C 247.761,268.631 247.094,268.464 246.5,268C 254.914,265.036 262.414,266.536 269,272.5C 276.265,284.195 274.432,294.195 263.5,302.5 Z"/></g>
<g><path style="opacity:0.796" fill="#3f3f42" d="M 349.5,293.5 C 349.013,294.473 348.513,295.473 348,296.5C 342.761,301.856 337.261,306.856 331.5,311.5C 331.196,310.85 330.863,310.183 330.5,309.5C 331.729,308.719 333.062,308.219 334.5,308C 334.167,307.667 333.833,307.333 333.5,307C 336.862,303.638 340.695,299.805 345,295.5C 345.333,295.833 345.667,296.167 346,296.5C 346.471,294.754 347.138,293.087 348,291.5C 348.278,292.416 348.778,293.082 349.5,293.5 Z"/></g>
<g><path style="opacity:0.965" fill="#282a2f" d="M 75.5,294.5 C 76.1667,294.5 76.5,294.833 76.5,295.5C 69.9371,306.205 64.9371,317.538 61.5,329.5C 61.4962,325.75 60.4962,325.083 58.5,327.5C 59.8747,321.126 62.2081,315.126 65.5,309.5C 66.9063,309.027 67.573,308.027 67.5,306.5C 69.8077,302.205 72.4744,298.205 75.5,294.5 Z"/></g>
<g><path style="opacity:0.98" fill="#44484e" d="M 369.5,287.5 C 366.742,288.967 367.075,289.633 370.5,289.5C 360.543,292.444 352.876,298.444 347.5,307.5C 346.833,307.5 346.167,307.5 345.5,307.5C 350.478,297.187 358.478,290.521 369.5,287.5 Z"/></g>
<g><path style="opacity:0.908" fill="#2b2b2f" d="M 99.5,293.5 C 99.6716,294.492 99.3382,295.158 98.5,295.5C 96.2407,296.344 95.2407,298.011 95.5,300.5C 93.8626,305.115 91.8626,309.449 89.5,313.5C 89.4397,310.979 90.1064,308.646 91.5,306.5C 91.2528,305.287 90.5862,304.62 89.5,304.5C 90.5,302.5 91.5,300.5 92.5,298.5C 93.81,296.565 95.1433,294.565 96.5,292.5C 98.0517,291.202 99.0517,291.535 99.5,293.5 Z"/></g>
<g><path style="opacity:0.047" fill="#c8c7c8" d="M 67.5,306.5 C 67.573,308.027 66.9063,309.027 65.5,309.5C 65.427,307.973 66.0937,306.973 67.5,306.5 Z"/></g>
<g><path style="opacity:1" fill="#8db9cc" d="M 427.5,307.5 C 428.922,307.709 430.255,308.209 431.5,309C 429.296,311.069 427.963,310.569 427.5,307.5 Z"/></g>
<g><path style="opacity:1" fill="#121e2f" d="M 409.5,334.5 C 408.778,334.918 408.278,335.584 408,336.5C 407.68,341.023 407.18,345.523 406.5,350C 406.316,351.376 405.649,352.209 404.5,352.5C 406.533,346.117 406.866,339.784 405.5,333.5C 405.246,329.669 403.912,326.335 401.5,323.5C 395.879,326.151 390.212,328.484 384.5,330.5C 382.708,330.366 381.042,330.699 379.5,331.5C 377.526,341.111 376.859,351.111 377.5,361.5C 376.039,362.686 374.705,362.686 373.5,361.5C 374.827,357.049 375.494,352.216 375.5,347C 375.167,342.167 374.833,337.333 374.5,332.5C 362.953,329.058 351.62,325.058 340.5,320.5C 339.511,324.107 339.177,327.774 339.5,331.5C 338.517,327.702 338.183,323.702 338.5,319.5C 340.179,319.715 341.179,319.048 341.5,317.5C 350.366,321.296 359.366,324.629 368.5,327.5C 370.491,329.061 372.824,330.061 375.5,330.5C 383.597,327.06 391.931,324.393 400.5,322.5C 396.373,313.582 389.373,308.249 379.5,306.5C 367.203,309.626 354.869,312.626 342.5,315.5C 341.287,315.747 340.62,316.414 340.5,317.5C 339.842,316.602 339.176,315.602 338.5,314.5C 337.482,315.193 336.482,315.859 335.5,316.5C 335.414,315.504 335.748,314.671 336.5,314C 341.404,314.234 344.404,312.067 345.5,307.5C 346.167,307.5 346.833,307.5 347.5,307.5C 347.5,308.833 347.5,310.167 347.5,311.5C 353.169,310.331 358.836,309.165 364.5,308C 371.752,302.918 379.418,302.251 387.5,306C 400.022,311.564 407.355,321.064 409.5,334.5 Z"/></g>
<g><path style="opacity:1" fill="#6dc0ea" d="M 368.5,327.5 C 359.366,324.629 350.366,321.296 341.5,317.5C 341.167,317.5 340.833,317.5 340.5,317.5C 340.62,316.414 341.287,315.747 342.5,315.5C 354.869,312.626 367.203,309.626 379.5,306.5C 389.373,308.249 396.373,313.582 400.5,322.5C 391.931,324.393 383.597,327.06 375.5,330.5C 372.824,330.061 370.491,329.061 368.5,327.5 Z"/></g>
<g><path style="opacity:1" fill="#68cafc" d="M 368.5,327.5 C 365.059,324.931 361.392,322.431 357.5,320C 358.167,319.333 358.833,318.667 359.5,318C 363.558,317.66 367.558,316.993 371.5,316C 370.624,314.415 369.291,313.415 367.5,313C 369.468,311.456 371.635,310.289 374,309.5C 376.758,309.489 379.591,309.823 382.5,310.5C 381.5,311.333 380.5,312.167 379.5,313C 379.833,313.167 380.167,313.333 380.5,313.5C 382.331,312.071 384.331,311.571 386.5,312C 391.344,313.73 395.344,316.397 398.5,320C 391.328,322.497 384.328,325.164 377.5,328C 374.493,328.301 371.493,328.135 368.5,327.5 Z"/></g>
<g><path style="opacity:1" fill="#4f92ba" d="M 433.5,310.5 C 434.833,314.167 434.833,317.833 433.5,321.5C 431.891,318.407 430.891,315.073 430.5,311.5C 431.791,311.737 432.791,311.404 433.5,310.5 Z"/></g>
<g><path style="opacity:0.976" fill="#33353a" d="M 326.5,311.5 C 326.783,312.289 327.283,312.956 328,313.5C 328.71,312.027 329.876,311.36 331.5,311.5C 324.804,319.528 317.137,326.528 308.5,332.5C 307.5,332.833 306.833,333.5 306.5,334.5C 302.693,338.135 298.693,341.635 294.5,345C 297.104,345.39 299.438,346.224 301.5,347.5C 297.865,346.886 294.198,346.552 290.5,346.5C 298.474,338.861 306.474,331.194 314.5,323.5C 318.14,319.194 322.14,315.194 326.5,311.5 Z"/></g>
<g><path style="opacity:1" fill="#3c99d2" d="M 405.5,333.5 C 404.03,331.849 402.697,330.015 401.5,328C 398.12,327.062 395.12,327.729 392.5,330C 389.854,330.497 387.187,330.664 384.5,330.5C 390.212,328.484 395.879,326.151 401.5,323.5C 403.912,326.335 405.246,329.669 405.5,333.5 Z"/></g>
<g><path style="opacity:0.963" fill="#404346" d="M 187.5,326.5 C 187.338,328.527 187.505,330.527 188,332.5C 188.383,331.944 188.883,331.611 189.5,331.5C 188.721,334.545 187.387,337.211 185.5,339.5C 187.228,334.879 186.228,333.879 182.5,336.5C 184.186,333.128 185.853,329.795 187.5,326.5 Z"/></g>
<g><path style="opacity:1" fill="#24acfb" d="M 405.5,333.5 C 405.114,339.534 404.447,345.534 403.5,351.5C 399.55,353.06 395.384,354.06 391,354.5C 387.853,354.555 385.186,353.555 383,351.5C 382.085,352.328 381.419,353.328 381,354.5C 379.414,347.943 379.08,341.276 380,334.5C 380.907,332.391 382.407,331.058 384.5,330.5C 387.187,330.664 389.854,330.497 392.5,330C 395.12,327.729 398.12,327.062 401.5,328C 402.697,330.015 404.03,331.849 405.5,333.5 Z"/></g>
<g><path style="opacity:1" fill="#3a4856" d="M 202.5,337.5 C 202.5,336.833 202.167,336.5 201.5,336.5C 208.925,331.063 217.258,329.23 226.5,331C 217.783,330.678 209.783,332.845 202.5,337.5 Z"/></g>
<g><path style="opacity:0.004" fill="#c7c7c9" d="M 308.5,332.5 C 308.5,333.833 307.833,334.5 306.5,334.5C 306.833,333.5 307.5,332.833 308.5,332.5 Z"/></g>
<g><path style="opacity:0.188" fill="#494645" d="M 88.5,317.5 C 86.7746,324.367 86.108,331.367 86.5,338.5C 85.3493,333.35 85.1826,328.016 86,322.5C 86.3736,320.509 87.207,318.842 88.5,317.5 Z"/></g>
<g><path style="opacity:1" fill="#2d77a5" d="M 379.5,331.5 C 378.857,336.588 378.524,341.754 378.5,347C 378.506,352.216 379.173,357.049 380.5,361.5C 379.5,362.833 378.5,362.833 377.5,361.5C 376.859,351.111 377.526,341.111 379.5,331.5 Z"/></g>
<g><path style="opacity:1" fill="#17181b" d="M 89.5,304.5 C 90.5862,304.62 91.2528,305.287 91.5,306.5C 90.1064,308.646 89.4397,310.979 89.5,313.5C 89.7678,315.099 89.4345,316.432 88.5,317.5C 87.207,318.842 86.3736,320.509 86,322.5C 85.1826,328.016 85.3493,333.35 86.5,338.5C 89.2398,346.958 94.5732,353.291 102.5,357.5C 102.973,358.906 103.973,359.573 105.5,359.5C 111.535,360.503 117.535,361.503 123.5,362.5C 128.231,363.661 132.897,363.328 137.5,361.5C 151.444,358.195 164.111,352.195 175.5,343.5C 176.833,342.833 177.833,341.833 178.5,340.5C 179.5,338.833 180.833,337.5 182.5,336.5C 186.228,333.879 187.228,334.879 185.5,339.5C 175.128,352.862 161.795,362.029 145.5,367C 134.55,368.546 123.55,368.879 112.5,368C 97.9289,365.152 87.7622,356.986 82,343.5C 79.6128,329.513 82.1128,316.513 89.5,304.5 Z"/></g>
<g><path style="opacity:1" fill="#1f1f22" d="M 437.5,307.5 C 438.126,320.03 438.459,332.696 438.5,345.5C 438.608,350.745 437.942,355.745 436.5,360.5C 435.36,361.801 434.027,362.968 432.5,364C 431.823,367.008 431.823,370.175 432.5,373.5C 431.069,373.119 430.236,372.119 430,370.5C 429.174,373.793 428.674,377.126 428.5,380.5C 426.554,380.807 424.887,380.807 423.5,380.5C 424.184,377.581 425.518,375.081 427.5,373C 426.748,372.329 426.414,371.496 426.5,370.5C 427.099,367.037 428.099,363.704 429.5,360.5C 430.117,360.389 430.617,360.056 431,359.5C 431.822,351.655 431.656,343.989 430.5,336.5C 430.253,330.683 429.253,325.017 427.5,319.5C 427.75,318.078 428.583,317.078 430,316.5C 430.223,318.881 431.39,320.547 433.5,321.5C 434.833,317.833 434.833,314.167 433.5,310.5C 432.45,310.095 432.45,309.429 433.5,308.5C 434.689,307.571 436.022,307.238 437.5,307.5 Z"/></g>
<g><path style="opacity:1" fill="#12476d" d="M 373.5,361.5 C 363.009,356.569 352.342,351.735 341.5,347C 340.855,341.733 340.188,336.567 339.5,331.5C 339.177,327.774 339.511,324.107 340.5,320.5C 351.62,325.058 362.953,329.058 374.5,332.5C 374.833,337.333 375.167,342.167 375.5,347C 375.494,352.216 374.827,357.049 373.5,361.5 Z"/></g>
<g><path style="opacity:1" fill="#35a3e3" d="M 384.5,330.5 C 382.407,331.058 380.907,332.391 380,334.5C 379.08,341.276 379.414,347.943 381,354.5C 381.419,353.328 382.085,352.328 383,351.5C 385.186,353.555 387.853,354.555 391,354.5C 395.384,354.06 399.55,353.06 403.5,351.5C 404.447,345.534 405.114,339.534 405.5,333.5C 406.866,339.784 406.533,346.117 404.5,352.5C 396.581,355.476 388.581,358.476 380.5,361.5C 379.173,357.049 378.506,352.216 378.5,347C 378.524,341.754 378.857,336.588 379.5,331.5C 381.042,330.699 382.708,330.366 384.5,330.5 Z"/></g>
<g><path style="opacity:0.982" fill="#17181a" d="M 61.5,329.5 C 60.137,338.793 59.637,348.127 60,357.5C 61.0512,362.316 62.7178,366.982 65,371.5C 76.2606,384.219 90.4272,391.552 107.5,393.5C 115.555,394.889 123.555,394.556 131.5,392.5C 148.649,390.284 164.649,384.784 179.5,376C 178.111,357.943 185.444,344.777 201.5,336.5C 202.167,336.5 202.5,336.833 202.5,337.5C 188.926,345.315 183.426,356.982 186,372.5C 188.641,382.843 190.141,393.343 190.5,404C 190.416,423.074 180.749,432.907 161.5,433.5C 154.786,433.27 148.12,432.603 141.5,431.5C 133.937,429.029 126.604,425.862 119.5,422C 110.973,415.57 101.973,409.904 92.5,405C 73.9998,399.006 60.1665,404.506 51,421.5C 44.8446,440.682 50.6779,455.182 68.5,465C 80.7485,467.564 85.0818,463.064 81.5,451.5C 77.5732,448.285 73.7398,444.951 70,441.5C 67.6597,437.445 66.993,433.111 68,428.5C 73.2794,421.77 79.4461,420.77 86.5,425.5C 85.1667,425.5 83.8333,425.5 82.5,425.5C 80.5,425.5 78.5,425.5 76.5,425.5C 74.9731,425.427 73.9731,426.094 73.5,427.5C 73.5,428.167 73.1667,428.5 72.5,428.5C 71.0069,429.312 70.3402,430.645 70.5,432.5C 70.3402,434.355 71.0069,435.688 72.5,436.5C 75.8604,440.527 79.5271,444.194 83.5,447.5C 84.1667,448.833 85.1667,449.833 86.5,450.5C 87.4584,450.953 88.2917,451.619 89,452.5C 89.8075,456.027 89.6408,459.36 88.5,462.5C 87.0937,462.973 86.427,463.973 86.5,465.5C 85.1667,466.167 84.1667,467.167 83.5,468.5C 82.653,469.966 81.3197,470.8 79.5,471C 69.1456,472.741 60.8122,469.574 54.5,461.5C 54.1667,460.5 53.5,459.833 52.5,459.5C 51.8333,459.5 51.5,459.167 51.5,458.5C 50.8645,456.205 49.5311,454.539 47.5,453.5C 42.9009,445.923 41.2342,437.59 42.5,428.5C 43.9313,427.22 44.5979,425.553 44.5,423.5C 44.7073,420.759 45.7073,418.426 47.5,416.5C 48.9063,416.027 49.573,415.027 49.5,413.5C 50.8333,412.833 51.8333,411.833 52.5,410.5C 52.5,410.167 52.5,409.833 52.5,409.5C 54.0269,409.573 55.0269,408.906 55.5,407.5C 56.8333,406.833 57.8333,405.833 58.5,404.5C 60.7485,401.607 63.7485,399.94 67.5,399.5C 69.7857,399.405 71.7857,398.738 73.5,397.5C 79.1764,397.666 84.8431,397.499 90.5,397C 79.801,393.907 70.6343,388.407 63,380.5C 60.8431,378.183 59.3431,375.516 58.5,372.5C 58.3404,370.847 57.6737,369.514 56.5,368.5C 54.9478,363.91 53.9478,359.077 53.5,354C 54.1872,347.148 55.0205,340.315 56,333.5C 56.5662,331.277 57.3995,329.277 58.5,327.5C 60.4962,325.083 61.4962,325.75 61.5,329.5 Z M 180.5,382.5 C 182.524,393.652 182.857,404.985 181.5,416.5C 179.738,417.262 178.738,418.596 178.5,420.5C 176.167,421.833 173.833,423.167 171.5,424.5C 169.214,424.595 167.214,425.262 165.5,426.5C 157.349,426.991 149.349,426.158 141.5,424C 133.988,420.743 126.655,417.243 119.5,413.5C 119.027,412.094 118.027,411.427 116.5,411.5C 109.245,406.374 101.579,402.041 93.5,398.5C 96.8333,398.833 100.167,399.167 103.5,399.5C 109.976,401.435 116.642,401.769 123.5,400.5C 131.423,399.912 139.09,398.579 146.5,396.5C 152.042,395.449 157.376,393.782 162.5,391.5C 164.027,391.573 165.027,390.906 165.5,389.5C 167.284,389.107 168.95,388.441 170.5,387.5C 172.027,387.573 173.027,386.906 173.5,385.5C 174.609,385.443 175.609,385.11 176.5,384.5C 178.153,384.34 179.486,383.674 180.5,382.5 Z"/></g>
<g><path style="opacity:0.2" fill="#9f9b9e" d="M 178.5,340.5 C 177.833,341.833 176.833,342.833 175.5,343.5C 175.5,341.5 176.5,340.5 178.5,340.5 Z"/></g>
<g><path style="opacity:1" fill="#181a1d" d="M 340.5,317.5 C 340.833,317.5 341.167,317.5 341.5,317.5C 341.179,319.048 340.179,319.715 338.5,319.5C 338.183,323.702 338.517,327.702 339.5,331.5C 340.188,336.567 340.855,341.733 341.5,347C 352.342,351.735 363.009,356.569 373.5,361.5C 374.705,362.686 376.039,362.686 377.5,361.5C 378.5,362.833 379.5,362.833 380.5,361.5C 388.581,358.476 396.581,355.476 404.5,352.5C 405.649,352.209 406.316,351.376 406.5,350C 407.18,345.523 407.68,341.023 408,336.5C 408.278,335.584 408.778,334.918 409.5,334.5C 412.021,361.833 400.021,379.333 373.5,387C 365.571,388.529 357.571,389.362 349.5,389.5C 350.35,396.799 350.683,404.132 350.5,411.5C 370.055,409.43 388.388,403.597 405.5,394C 414.848,388.159 421.848,380.325 426.5,370.5C 426.414,371.496 426.748,372.329 427.5,373C 425.518,375.081 424.184,377.581 423.5,380.5C 424.887,380.807 426.554,380.807 428.5,380.5C 428.674,377.126 429.174,373.793 430,370.5C 430.236,372.119 431.069,373.119 432.5,373.5C 431.69,378.462 429.357,382.462 425.5,385.5C 423.42,386.044 421.42,386.878 419.5,388C 420.684,389.145 420.684,390.312 419.5,391.5C 414.693,396.409 409.027,400.076 402.5,402.5C 400.973,402.427 399.973,403.094 399.5,404.5C 396.833,405.5 394.167,406.5 391.5,407.5C 387.466,407.517 383.799,408.517 380.5,410.5C 370.533,413.656 360.2,414.99 349.5,414.5C 348.903,419.017 347.237,423.017 344.5,426.5C 343.094,426.973 342.427,427.973 342.5,429.5C 342.068,430.71 341.401,431.71 340.5,432.5C 339.508,432.672 338.842,432.338 338.5,431.5C 349.332,412.796 349.165,394.129 338,375.5C 325.322,360.411 309.156,352.078 289.5,350.5C 280.925,350.264 274.758,353.93 271,361.5C 269.523,372.684 274.357,378.184 285.5,378C 290.662,374.187 291.662,369.52 288.5,364C 289.577,363.53 290.577,363.697 291.5,364.5C 291.833,364.5 292.167,364.5 292.5,364.5C 293.167,365.833 294.167,366.833 295.5,367.5C 295.81,369.144 296.81,370.144 298.5,370.5C 301.594,371.213 304.594,372.213 307.5,373.5C 307.5,373.833 307.5,374.167 307.5,374.5C 307.842,375.338 308.508,375.672 309.5,375.5C 310.167,375.5 310.5,375.167 310.5,374.5C 310.027,373.094 309.027,372.427 307.5,372.5C 307.5,372.167 307.5,371.833 307.5,371.5C 307.027,370.094 306.027,369.427 304.5,369.5C 301.312,368.075 298.312,366.408 295.5,364.5C 295.082,363.778 294.416,363.278 293.5,363C 303.037,364.862 310.87,369.695 317,377.5C 323.08,385.497 325.08,394.497 323,404.5C 317.282,418.204 307.115,427.037 292.5,431C 272.987,434.885 257.987,428.385 247.5,411.5C 242.998,403.488 240.998,394.821 241.5,385.5C 242.013,381.447 242.846,377.447 244,373.5C 244.919,370.598 245.752,370.265 246.5,372.5C 242.853,385.611 244.52,397.944 251.5,409.5C 252.08,411.749 253.413,413.415 255.5,414.5C 272.568,428.941 289.901,429.107 307.5,415C 303.608,414.581 299.942,413.748 296.5,412.5C 296.291,411.078 295.791,409.745 295,408.5C 293.719,408.619 292.552,408.119 291.5,407C 292.094,406.536 292.761,406.369 293.5,406.5C 300.817,407.118 308.151,407.451 315.5,407.5C 319.495,399.193 319.495,390.86 315.5,382.5C 307.128,379.814 299.462,375.814 292.5,370.5C 291.614,371.325 291.281,372.325 291.5,373.5C 290.883,375.229 289.883,376.729 288.5,378C 280.919,381.477 274.752,379.644 270,372.5C 266.558,363.666 268.558,356.333 276,350.5C 276.195,348.793 276.195,347.126 276,345.5C 277.117,347.124 278.617,348.124 280.5,348.5C 283.654,346.974 286.987,346.307 290.5,346.5C 294.198,346.552 297.865,346.886 301.5,347.5C 302.5,347.5 303.5,347.5 304.5,347.5C 305.78,348.931 307.447,349.598 309.5,349.5C 311.403,349.796 313.07,350.463 314.5,351.5C 316.778,354.472 319.778,356.139 323.5,356.5C 323.833,356.5 324.167,356.5 324.5,356.5C 325.539,358.531 327.205,359.864 329.5,360.5C 334.812,363.812 339.145,368.145 342.5,373.5C 342.427,375.027 343.094,376.027 344.5,376.5C 346.008,378.181 347.008,380.181 347.5,382.5C 347.97,383.693 348.97,384.36 350.5,384.5C 351.726,384.48 352.726,384.147 353.5,383.5C 366.834,383.441 379.167,380.107 390.5,373.5C 391.833,372.833 392.833,371.833 393.5,370.5C 395.657,367.529 397.824,364.529 400,361.5C 400.591,360.517 400.257,359.85 399,359.5C 393.641,361.931 388.141,363.931 382.5,365.5C 379.518,365.963 376.518,366.296 373.5,366.5C 368.663,364.673 363.997,362.673 359.5,360.5C 358.713,358.896 357.38,358.229 355.5,358.5C 351.192,356.682 346.859,354.848 342.5,353C 340,351.833 338.167,350 337,347.5C 334.644,337.108 334.144,326.774 335.5,316.5C 336.482,315.859 337.482,315.193 338.5,314.5C 339.176,315.602 339.842,316.602 340.5,317.5 Z M 292.5,364.5 C 293.5,364.5 294.5,364.5 295.5,364.5C 298.312,366.408 301.312,368.075 304.5,369.5C 304.973,370.906 305.973,371.573 307.5,371.5C 307.5,371.833 307.5,372.167 307.5,372.5C 307.5,372.833 307.5,373.167 307.5,373.5C 304.594,372.213 301.594,371.213 298.5,370.5C 298.19,368.856 297.19,367.856 295.5,367.5C 294.167,366.833 293.167,365.833 292.5,364.5 Z"/></g>
<g><path style="opacity:0.596" fill="#757474" d="M 324.5,356.5 C 326.754,357.124 328.421,358.457 329.5,360.5C 327.205,359.864 325.539,358.531 324.5,356.5 Z"/></g>
<g><path style="opacity:0.608" fill="#494849" d="M 314.5,351.5 C 317.948,352.39 320.948,354.057 323.5,356.5C 319.778,356.139 316.778,354.472 314.5,351.5 Z"/></g>
<g><path style="opacity:0.145" fill="#9c9c9c" d="M 304.5,347.5 C 306.553,347.402 308.22,348.069 309.5,349.5C 307.447,349.598 305.78,348.931 304.5,347.5 Z"/></g>
<g><path style="opacity:1" fill="#394049" d="M 430.5,336.5 C 431.656,343.989 431.822,351.655 431,359.5C 430.617,360.056 430.117,360.389 429.5,360.5C 430.276,352.525 430.61,344.525 430.5,336.5 Z"/></g>
<g><path style="opacity:0.102" fill="#a5a4a4" d="M 102.5,357.5 C 104.027,357.427 105.027,358.094 105.5,359.5C 103.973,359.573 102.973,358.906 102.5,357.5 Z"/></g>
<g><path style="opacity:0.094" fill="#a7a7a7" d="M 355.5,358.5 C 357.38,358.229 358.713,358.896 359.5,360.5C 357.847,360.34 356.514,359.674 355.5,358.5 Z"/></g>
<g><path style="opacity:0.918" fill="#3e4249" d="M 221.5,358.5 C 220.687,360.261 219.687,361.928 218.5,363.5C 218.631,362.761 218.464,362.094 218,361.5C 217.292,362.381 216.458,363.047 215.5,363.5C 216.5,361.5 217.5,359.5 218.5,357.5C 215.171,359.834 212.504,362.834 210.5,366.5C 210.737,365.209 210.404,364.209 209.5,363.5C 213.56,357.79 218.893,353.457 225.5,350.5C 225.833,350.667 226.167,350.833 226.5,351C 224.192,353.128 222.526,355.628 221.5,358.5 Z"/></g>
<g><path style="opacity:0.224" fill="#7a7779" d="M 137.5,361.5 C 132.897,363.328 128.231,363.661 123.5,362.5C 128.167,362.167 132.833,361.833 137.5,361.5 Z"/></g>
<g><path style="opacity:1" fill="#91a8c3" d="M 221.5,358.5 C 230.918,360.778 235.918,366.945 236.5,377C 233.843,386.823 227.51,392.657 217.5,394.5C 217.5,395.833 217.5,397.167 217.5,398.5C 214.662,386.865 214.996,375.199 218.5,363.5C 219.687,361.928 220.687,360.261 221.5,358.5 Z"/></g>
<g><path style="opacity:0.984" fill="#373739" d="M 436.5,360.5 C 435.939,365.176 434.606,369.509 432.5,373.5C 431.823,370.175 431.823,367.008 432.5,364C 434.027,362.968 435.36,361.801 436.5,360.5 Z"/></g>
<g><path style="opacity:0.112" fill="#9a9b9d" d="M 382.5,365.5 C 379.627,367.482 376.627,367.815 373.5,366.5C 376.518,366.296 379.518,365.963 382.5,365.5 Z"/></g>
<g><path style="opacity:0.431" fill="#7f7c7c" d="M 295.5,367.5 C 297.19,367.856 298.19,368.856 298.5,370.5C 296.81,370.144 295.81,369.144 295.5,367.5 Z"/></g>
<g><path style="opacity:0.075" fill="#a2a2a2" d="M 56.5,368.5 C 57.6737,369.514 58.3404,370.847 58.5,372.5C 56.8958,371.713 56.2291,370.38 56.5,368.5 Z"/></g>
<g><path style="opacity:0.404" fill="#8b8c8e" d="M 304.5,369.5 C 306.027,369.427 307.027,370.094 307.5,371.5C 305.973,371.573 304.973,370.906 304.5,369.5 Z"/></g>
<g><path style="opacity:0.235" fill="#949294" d="M 393.5,370.5 C 392.833,371.833 391.833,372.833 390.5,373.5C 390.5,371.5 391.5,370.5 393.5,370.5 Z"/></g>
<g><path style="opacity:0.024" fill="#b4b3b4" d="M 307.5,373.5 C 307.5,373.167 307.5,372.833 307.5,372.5C 309.027,372.427 310.027,373.094 310.5,374.5C 309.833,374.5 309.5,374.833 309.5,375.5C 308.508,375.672 307.842,375.338 307.5,374.5C 308.833,374.167 308.833,373.833 307.5,373.5 Z"/></g>
<g><path style="opacity:0.58" fill="#36393f" d="M 258.5,382.5 C 257.239,380.71 255.739,379.043 254,377.5C 253.82,379.488 253.986,381.488 254.5,383.5C 253.207,382.158 252.374,380.491 252,378.5C 251.727,373.771 251.061,369.104 250,364.5C 249.487,365.527 248.987,366.527 248.5,367.5C 247.778,367.918 247.278,368.584 247,369.5C 246.836,366.478 247.836,363.811 250,361.5C 250.333,358.167 250.667,354.833 251,351.5C 251.899,362.151 254.399,372.484 258.5,382.5 Z"/></g>
<g><path style="opacity:0.086" fill="#bbbbbd" d="M 342.5,373.5 C 343.906,373.973 344.573,374.973 344.5,376.5C 343.094,376.027 342.427,375.027 342.5,373.5 Z"/></g>
<g><path style="opacity:1" fill="#7c8b9b" d="M 293.5,406.5 C 292.833,405.833 292.167,405.167 291.5,404.5C 293.451,404.773 294.951,404.107 296,402.5C 297.478,394.889 297.812,387.222 297,379.5C 296.268,376.289 294.434,374.289 291.5,373.5C 291.281,372.325 291.614,371.325 292.5,370.5C 299.462,375.814 307.128,379.814 315.5,382.5C 319.495,390.86 319.495,399.193 315.5,407.5C 308.151,407.451 300.817,407.118 293.5,406.5 Z"/></g>
<g><path style="opacity:0.012" fill="#bebebe" d="M 180.5,382.5 C 179.486,383.674 178.153,384.34 176.5,384.5C 177.287,382.896 178.62,382.229 180.5,382.5 Z"/></g>
<g><path style="opacity:0.035" fill="#d4d4d4" d="M 347.5,382.5 C 349.379,383.341 351.379,383.675 353.5,383.5C 352.726,384.147 351.726,384.48 350.5,384.5C 348.97,384.36 347.97,383.693 347.5,382.5 Z"/></g>
<g><path style="opacity:0.004" fill="#cacaca" d="M 173.5,385.5 C 173.027,386.906 172.027,387.573 170.5,387.5C 170.973,386.094 171.973,385.427 173.5,385.5 Z"/></g>
<g><path style="opacity:0.059" fill="#b0afaa" d="M 254.5,384.5 C 255.674,385.514 256.34,386.847 256.5,388.5C 254.896,387.713 254.229,386.38 254.5,384.5 Z"/></g>
<g><path style="opacity:0.865" fill="#575657" d="M 425.5,385.5 C 424.478,388.522 422.478,390.522 419.5,391.5C 420.684,390.312 420.684,389.145 419.5,388C 421.42,386.878 423.42,386.044 425.5,385.5 Z"/></g>
<g><path style="opacity:1" fill="#afc0ce" d="M 427.5,319.5 C 429.253,325.017 430.253,330.683 430.5,336.5C 430.61,344.525 430.276,352.525 429.5,360.5C 428.099,363.704 427.099,367.037 426.5,370.5C 421.848,380.325 414.848,388.159 405.5,394C 388.388,403.597 370.055,409.43 350.5,411.5C 350.683,404.132 350.35,396.799 349.5,389.5C 357.571,389.362 365.571,388.529 373.5,387C 400.021,379.333 412.021,361.833 409.5,334.5C 407.355,321.064 400.022,311.564 387.5,306C 379.418,302.251 371.752,302.918 364.5,308C 358.836,309.165 353.169,310.331 347.5,311.5C 347.5,310.167 347.5,308.833 347.5,307.5C 352.876,298.444 360.543,292.444 370.5,289.5C 397.615,284.553 416.615,294.553 427.5,319.5 Z"/></g>
<g><path style="opacity:0.004" fill="#cdcdcd" d="M 165.5,389.5 C 165.027,390.906 164.027,391.573 162.5,391.5C 162.973,390.094 163.973,389.427 165.5,389.5 Z"/></g>
<g><path style="opacity:1" fill="#0d0e11" d="M 218.5,363.5 C 214.996,375.199 214.662,386.865 217.5,398.5C 217.34,400.199 217.506,401.866 218,403.5C 222.912,418.34 231.079,431.007 242.5,441.5C 241.609,442.11 240.609,442.443 239.5,442.5C 238.833,442.167 238.167,441.833 237.5,441.5C 237.027,440.094 236.027,439.427 234.5,439.5C 234.5,439.167 234.5,438.833 234.5,438.5C 234.027,437.094 233.027,436.427 231.5,436.5C 228.146,433.812 225.146,430.812 222.5,427.5C 222.167,426.5 221.5,425.833 220.5,425.5C 219.01,430.09 218.51,434.756 219,439.5C 218.444,437.405 217.944,437.238 217.5,439C 218.459,441.12 218.626,443.287 218,445.5C 217.667,444.833 217.333,444.167 217,443.5C 216.5,444.667 215.667,445.5 214.5,446C 216.58,447.961 216.914,450.128 215.5,452.5C 213.221,452.8 211.055,454.133 209,456.5C 207.941,456.37 207.108,455.87 206.5,455C 207.337,453.989 207.67,452.822 207.5,451.5C 208.657,449.862 209.824,448.196 211,446.5C 213.993,436.281 214.326,425.948 212,415.5C 208.533,403.698 206.033,391.698 204.5,379.5C 203.803,373.265 205.469,367.932 209.5,363.5C 210.404,364.209 210.737,365.209 210.5,366.5C 208.817,371.659 208.151,376.992 208.5,382.5C 208.34,384.199 208.506,385.866 209,387.5C 210.154,383.553 210.987,379.553 211.5,375.5C 211.759,371.018 213.092,367.018 215.5,363.5C 216.458,363.047 217.292,362.381 218,361.5C 218.464,362.094 218.631,362.761 218.5,363.5 Z"/></g>
<g><path style="opacity:0.161" fill="#8e8b8c" d="M 211.5,375.5 C 210.987,379.553 210.154,383.553 209,387.5C 208.506,385.866 208.34,384.199 208.5,382.5C 209.349,380.112 210.349,377.779 211.5,375.5 Z"/></g>
<g><path style="opacity:1" fill="#444d55" d="M 131.5,392.5 C 123.555,394.556 115.555,394.889 107.5,393.5C 115.517,393.499 123.517,393.166 131.5,392.5 Z"/></g>
<g><path style="opacity:0.024" fill="#a8a8a8" d="M 258.5,392.5 C 259.906,392.973 260.573,393.973 260.5,395.5C 259.094,395.027 258.427,394.027 258.5,392.5 Z"/></g>
<g><path style="opacity:1" fill="#3d3c3e" d="M 146.5,396.5 C 139.09,398.579 131.423,399.912 123.5,400.5C 126.644,399.774 129.644,398.441 132.5,396.5C 131.494,395.604 131.494,394.938 132.5,394.5C 133.929,395.935 135.595,396.935 137.5,397.5C 140.449,396.698 143.449,396.364 146.5,396.5 Z"/></g>
<g><path style="opacity:0.024" fill="#c1c1c1" d="M 73.5,397.5 C 71.7857,398.738 69.7857,399.405 67.5,399.5C 69.1016,397.926 71.1016,397.259 73.5,397.5 Z"/></g>
<g><path style="opacity:0.369" fill="#6b6669" d="M 93.5,398.5 C 93.5,398.167 93.5,397.833 93.5,397.5C 97.1224,397.322 100.456,397.989 103.5,399.5C 100.167,399.167 96.8333,398.833 93.5,398.5 Z"/></g>
<g><path style="opacity:1" fill="#94aac2" d="M 241.5,385.5 C 240.998,394.821 242.998,403.488 247.5,411.5C 243.69,413.31 239.69,413.81 235.5,413C 229.255,407.193 228.922,401.026 234.5,394.5C 236.382,393.907 238.215,393.24 240,392.5C 240.186,389.964 240.686,387.631 241.5,385.5 Z"/></g>
<g><path style="opacity:0.981" fill="#181819" d="M 258.5,382.5 C 266.274,394.561 277.274,401.895 291.5,404.5C 292.167,405.167 292.833,405.833 293.5,406.5C 292.761,406.369 292.094,406.536 291.5,407C 292.552,408.119 293.719,408.619 295,408.5C 295.791,409.745 296.291,411.078 296.5,412.5C 282.083,411.622 270.083,405.955 260.5,395.5C 260.573,393.973 259.906,392.973 258.5,392.5C 257.326,391.486 256.66,390.153 256.5,388.5C 256.34,386.847 255.674,385.514 254.5,384.5C 254.5,384.167 254.5,383.833 254.5,383.5C 253.986,381.488 253.82,379.488 254,377.5C 255.739,379.043 257.239,380.71 258.5,382.5 Z"/></g>
<g><path style="opacity:0.008" fill="#c1c1c1" d="M 402.5,402.5 C 402.027,403.906 401.027,404.573 399.5,404.5C 399.973,403.094 400.973,402.427 402.5,402.5 Z"/></g>
<g><path style="opacity:0.275" fill="#959394" d="M 58.5,404.5 C 57.8333,405.833 56.8333,406.833 55.5,407.5C 55.5,405.5 56.5,404.5 58.5,404.5 Z"/></g>
<g><path style="opacity:0.384" fill="#868686" d="M 55.5,407.5 C 55.0269,408.906 54.0269,409.573 52.5,409.5C 52.9731,408.094 53.9731,407.427 55.5,407.5 Z"/></g>
<g><path style="opacity:0.031" fill="#8c8c8c" d="M 391.5,407.5 C 388.093,409.074 384.427,410.074 380.5,410.5C 383.799,408.517 387.466,407.517 391.5,407.5 Z"/></g>
<g><path style="opacity:0.353" fill="#888990" d="M 251.5,409.5 C 253.587,410.585 254.92,412.251 255.5,414.5C 253.413,413.415 252.08,411.749 251.5,409.5 Z"/></g>
<g><path style="opacity:0.102" fill="#b0b0b0" d="M 52.5,410.5 C 51.8333,411.833 50.8333,412.833 49.5,413.5C 49.5,411.5 50.5,410.5 52.5,410.5 Z"/></g>
<g><path style="opacity:0.035" fill="#9e9e9e" d="M 116.5,411.5 C 118.027,411.427 119.027,412.094 119.5,413.5C 117.973,413.573 116.973,412.906 116.5,411.5 Z"/></g>
<g><path style="opacity:0.176" fill="#978d93" d="M 49.5,413.5 C 49.573,415.027 48.9063,416.027 47.5,416.5C 47.427,414.973 48.0937,413.973 49.5,413.5 Z"/></g>
<g><path style="opacity:0.094" fill="#9a9595" d="M 181.5,416.5 C 181.262,418.404 180.262,419.738 178.5,420.5C 178.738,418.596 179.738,417.262 181.5,416.5 Z"/></g>
<g><path style="opacity:0.925" fill="#606169" d="M 82.5,425.5 C 83.8333,425.5 85.1667,425.5 86.5,425.5C 89.2622,426.38 91.9289,427.546 94.5,429C 93.9056,429.464 93.2389,429.631 92.5,429.5C 88.8733,428.679 85.54,427.346 82.5,425.5 Z"/></g>
<g><path style="opacity:0.075" fill="#a4a4a5" d="M 171.5,424.5 C 169.898,426.074 167.898,426.741 165.5,426.5C 167.214,425.262 169.214,424.595 171.5,424.5 Z"/></g>
<g><path style="opacity:0.027" fill="#c1c1c1" d="M 44.5,423.5 C 44.5979,425.553 43.9313,427.22 42.5,428.5C 42.4021,426.447 43.0687,424.78 44.5,423.5 Z"/></g>
<g><path style="opacity:0.02" fill="#aaaaaa" d="M 76.5,425.5 C 76.0269,426.906 75.0269,427.573 73.5,427.5C 73.9731,426.094 74.9731,425.427 76.5,425.5 Z"/></g>
<g><path style="opacity:0.035" fill="#b9acb9" d="M 344.5,426.5 C 344.573,428.027 343.906,429.027 342.5,429.5C 342.427,427.973 343.094,426.973 344.5,426.5 Z"/></g>
<g><path style="opacity:0.153" fill="#979998" d="M 72.5,428.5 C 71.1667,431.167 71.1667,433.833 72.5,436.5C 71.0069,435.688 70.3402,434.355 70.5,432.5C 70.3402,430.645 71.0069,429.312 72.5,428.5 Z"/></g>
<g><path style="opacity:1" fill="#505862" d="M 141.5,431.5 C 148.12,432.603 154.786,433.27 161.5,433.5C 154.684,434.812 148.018,434.145 141.5,431.5 Z"/></g>
<g><path style="opacity:0.043" fill="#c0bfbf" d="M 220.5,425.5 C 221.5,425.833 222.167,426.5 222.5,427.5C 221.833,431.5 221.167,435.5 220.5,439.5C 220.5,434.833 220.5,430.167 220.5,425.5 Z"/></g>
<g><path style="opacity:0.325" fill="#a6a6a7" d="M 231.5,436.5 C 233.027,436.427 234.027,437.094 234.5,438.5C 232.973,438.573 231.973,437.906 231.5,436.5 Z"/></g>
<g><path style="opacity:1" fill="#93aac5" d="M 151.5,463.5 C 138.242,460.372 126.575,454.372 116.5,445.5C 119.665,436.42 125.999,433.42 135.5,436.5C 142.062,439.892 147.228,444.892 151,451.5C 151.499,455.486 151.666,459.486 151.5,463.5 Z"/></g>
<g><path style="opacity:0.988" fill="#666872" d="M 107.5,439.5 C 106.494,439.938 106.494,440.604 107.5,441.5C 104.45,439.636 101.783,437.303 99.5,434.5C 99.8966,433.475 100.563,433.308 101.5,434C 103.763,435.617 105.763,437.45 107.5,439.5 Z"/></g>
<g><path style="opacity:0.18" fill="#ababab" d="M 234.5,439.5 C 236.027,439.427 237.027,440.094 237.5,441.5C 235.973,441.573 234.973,440.906 234.5,439.5 Z"/></g>
<g><path style="opacity:0.251" fill="#9f9fa2" d="M 111.5,445.5 C 113.027,445.427 114.027,446.094 114.5,447.5C 112.973,447.573 111.973,446.906 111.5,445.5 Z"/></g>
<g><path style="opacity:0.997" fill="#353334" d="M 220.5,425.5 C 220.5,430.167 220.5,434.833 220.5,439.5C 220.175,444.463 218.508,448.796 215.5,452.5C 216.914,450.128 216.58,447.961 214.5,446C 215.667,445.5 216.5,444.667 217,443.5C 217.333,444.167 217.667,444.833 218,445.5C 218.626,443.287 218.459,441.12 217.5,439C 217.944,437.238 218.444,437.405 219,439.5C 218.51,434.756 219.01,430.09 220.5,425.5 Z"/></g>
<g><path style="opacity:0.012" fill="#b7b6b6" d="M 83.5,447.5 C 85.5,447.5 86.5,448.5 86.5,450.5C 85.1667,449.833 84.1667,448.833 83.5,447.5 Z"/></g>
<g><path style="opacity:0.835" fill="#3e3e43" d="M 338.5,431.5 C 338.842,432.338 339.508,432.672 340.5,432.5C 336.664,438.502 331.664,443.335 325.5,447C 321.263,449.076 316.929,450.743 312.5,452C 313.416,452.278 314.082,452.778 314.5,453.5C 311.997,452.744 309.663,451.744 307.5,450.5C 313.561,449.474 319.228,447.307 324.5,444C 329.361,439.968 334.028,435.801 338.5,431.5 Z"/></g>
<g><path style="opacity:0.243" fill="#abadb3" d="M 243.5,447.5 C 243.027,448.906 242.027,449.573 240.5,449.5C 240.973,448.094 241.973,447.427 243.5,447.5 Z"/></g>
<g><path style="opacity:0.478" fill="#858484" d="M 47.5,453.5 C 49.5311,454.539 50.8645,456.205 51.5,458.5C 49.457,457.421 48.1237,455.754 47.5,453.5 Z"/></g>
<g><path style="opacity:0.38" fill="#959394" d="M 128.5,458.5 C 130.404,458.738 131.738,459.738 132.5,461.5C 130.596,461.262 129.262,460.262 128.5,458.5 Z"/></g>
<g><path style="opacity:0.031" fill="#89898a" d="M 324.5,458.5 C 326.38,458.229 327.713,458.896 328.5,460.5C 326.847,460.34 325.514,459.674 324.5,458.5 Z"/></g>
<g><path style="opacity:0.016" fill="#bfbebf" d="M 52.5,459.5 C 53.5,459.833 54.1667,460.5 54.5,461.5C 53.1667,461.5 52.5,460.833 52.5,459.5 Z"/></g>
<g><path style="opacity:0.985" fill="#1e1f23" d="M 107.5,439.5 C 110.5,441.5 113.5,443.5 116.5,445.5C 126.575,454.372 138.242,460.372 151.5,463.5C 153.553,463.402 155.22,464.069 156.5,465.5C 154.741,466.108 152.908,465.775 151,464.5C 148.201,465.237 148.034,466.07 150.5,467C 149.833,467.333 149.167,467.667 148.5,468C 153.885,470.183 159.051,470.683 164,469.5C 164.48,471.133 165.313,472.466 166.5,473.5C 159.234,472.792 152.234,471.125 145.5,468.5C 145.027,467.094 144.027,466.427 142.5,466.5C 138.883,465.358 135.55,463.692 132.5,461.5C 131.738,459.738 130.404,458.738 128.5,458.5C 123.254,455.589 118.587,451.922 114.5,447.5C 114.027,446.094 113.027,445.427 111.5,445.5C 109.861,444.527 108.527,443.194 107.5,441.5C 106.494,440.604 106.494,439.938 107.5,439.5 Z"/></g>
<g><path style="opacity:0.035" fill="#999999" d="M 331.5,461.5 C 333.027,461.427 334.027,462.094 334.5,463.5C 332.973,463.573 331.973,462.906 331.5,461.5 Z"/></g>
<g><path style="opacity:0.059" fill="#989898" d="M 88.5,462.5 C 88.573,464.027 87.9063,465.027 86.5,465.5C 86.427,463.973 87.0937,462.973 88.5,462.5 Z"/></g>
<g><path style="opacity:0.004" fill="#cecece" d="M 86.5,465.5 C 86.5,467.5 85.5,468.5 83.5,468.5C 84.1667,467.167 85.1667,466.167 86.5,465.5 Z"/></g>
<g><path style="opacity:0.035" fill="#cacaca" d="M 142.5,466.5 C 144.027,466.427 145.027,467.094 145.5,468.5C 143.973,468.573 142.973,467.906 142.5,466.5 Z"/></g>
<g><path style="opacity:1" fill="#1f1f21" d="M 207.5,451.5 C 207.67,452.822 207.337,453.989 206.5,455C 207.108,455.87 207.941,456.37 209,456.5C 211.055,454.133 213.221,452.8 215.5,452.5C 206.694,465.411 194.36,472.411 178.5,473.5C 177.737,472.732 176.737,472.232 175.5,472C 179.861,470.544 184.194,468.877 188.5,467C 180.682,467.618 173.015,467.451 165.5,466.5C 182.083,468.198 196.083,463.198 207.5,451.5 Z"/></g>
<g><path style="opacity:0.993" fill="#141416" d="M 156.5,465.5 C 159.518,465.704 162.518,466.037 165.5,466.5C 173.015,467.451 180.682,467.618 188.5,467C 184.194,468.877 179.861,470.544 175.5,472C 176.737,472.232 177.737,472.732 178.5,473.5C 174.633,474.726 170.633,474.726 166.5,473.5C 165.313,472.466 164.48,471.133 164,469.5C 159.051,470.683 153.885,470.183 148.5,468C 149.167,467.667 149.833,467.333 150.5,467C 148.034,466.07 148.201,465.237 151,464.5C 152.908,465.775 154.741,466.108 156.5,465.5 Z"/></g>
<g><path style="opacity:0.004" fill="#d6d0d0" d="M 241.5,479.5 C 242.5,479.833 243.167,480.5 243.5,481.5C 242.167,481.5 241.5,480.833 241.5,479.5 Z"/></g>
<g><path style="opacity:0.357" fill="#908e91" d="M 247.5,485.5 C 249.404,485.738 250.738,486.738 251.5,488.5C 249.596,488.262 248.262,487.262 247.5,485.5 Z"/></g>
<g><path style="opacity:0.192" fill="#919195" d="M 251.5,488.5 C 253.027,488.427 254.027,489.094 254.5,490.5C 252.973,490.573 251.973,489.906 251.5,488.5 Z"/></g>
<g><path style="opacity:0.302" fill="#8b8c92" d="M 258.5,493.5 C 260.027,493.427 261.027,494.094 261.5,495.5C 259.973,495.573 258.973,494.906 258.5,493.5 Z"/></g>
<g><path style="opacity:0.008" fill="#bdbbb8" d="M 335.5,492.5 C 335.5,493.833 334.833,494.5 333.5,494.5C 333.833,493.5 334.5,492.833 335.5,492.5 Z"/></g>
<g><path style="opacity:0.141" fill="#a3a3a3" d="M 261.5,495.5 C 263.027,495.427 264.027,496.094 264.5,497.5C 262.973,497.573 261.973,496.906 261.5,495.5 Z"/></g>
<g><path style="opacity:0.29" fill="#929699" d="M 266.5,498.5 C 268.404,498.738 269.738,499.738 270.5,501.5C 268.596,501.262 267.262,500.262 266.5,498.5 Z"/></g>
<g><path style="opacity:1" fill="#1a1e25" d="M 307.5,450.5 C 309.663,451.744 311.997,452.744 314.5,453.5C 318.32,454.35 321.653,456.017 324.5,458.5C 325.514,459.674 326.847,460.34 328.5,460.5C 329.791,460.263 330.791,460.596 331.5,461.5C 331.973,462.906 332.973,463.573 334.5,463.5C 335.15,463.804 335.817,464.137 336.5,464.5C 337.729,473.926 337.396,483.259 335.5,492.5C 334.5,492.833 333.833,493.5 333.5,494.5C 328.438,498.221 323.104,501.555 317.5,504.5C 315.012,503.588 313.345,504.588 312.5,507.5C 307.286,511.275 301.619,514.275 295.5,516.5C 290.075,515.056 285.408,512.39 281.5,508.5C 281.027,507.094 280.027,506.427 278.5,506.5C 275.497,505.334 272.83,503.667 270.5,501.5C 269.738,499.738 268.404,498.738 266.5,498.5C 265.508,498.672 264.842,498.338 264.5,497.5C 264.027,496.094 263.027,495.427 261.5,495.5C 261.027,494.094 260.027,493.427 258.5,493.5C 257.128,492.488 255.795,491.488 254.5,490.5C 254.027,489.094 253.027,488.427 251.5,488.5C 250.738,486.738 249.404,485.738 247.5,485.5C 245.5,484.833 244.167,483.5 243.5,481.5C 243.167,480.5 242.5,479.833 241.5,479.5C 239.127,473.254 238.127,466.754 238.5,460C 238.512,456.098 239.179,452.598 240.5,449.5C 242.027,449.573 243.027,448.906 243.5,447.5C 244.043,447.44 244.376,447.107 244.5,446.5C 242.581,445.388 240.914,444.054 239.5,442.5C 240.609,442.443 241.609,442.11 242.5,441.5C 244.84,442.843 247.173,444.177 249.5,445.5C 256.198,443.434 262.864,441.267 269.5,439C 272.833,438.333 276.167,438.333 279.5,439C 288.999,442.588 298.332,446.421 307.5,450.5 Z"/></g>
<g><path style="opacity:1" fill="#2d668a" d="M 295.5,483.5 C 296.493,491.984 296.826,500.651 296.5,509.5C 296.289,511.424 295.623,511.757 294.5,510.5C 295.493,501.682 295.827,492.682 295.5,483.5 Z"/></g>
<g><path style="opacity:1" fill="#061930" d="M 243.5,451.5 C 247.868,454.684 252.535,457.351 257.5,459.5C 268.971,465.736 280.638,471.736 292.5,477.5C 294.186,480.005 296.519,480.838 299.5,480C 308.229,473.968 317.562,468.968 327.5,465C 325.68,464.8 324.347,463.966 323.5,462.5C 326.709,463.543 329.709,464.877 332.5,466.5C 321.211,470.894 310.378,476.228 300,482.5C 299.5,491.494 299.334,500.494 299.5,509.5C 298.5,508.167 297.5,508.167 296.5,509.5C 296.826,500.651 296.493,491.984 295.5,483.5C 276.892,474.531 258.892,464.531 241.5,453.5C 241.833,452.5 242.5,451.833 243.5,451.5 Z"/></g>
<g><path style="opacity:1" fill="#11476e" d="M 332.5,466.5 C 332.547,474.891 331.88,483.224 330.5,491.5C 324.488,495.507 318.155,499.007 311.5,502C 308.288,505.772 304.288,508.272 299.5,509.5C 299.334,500.494 299.5,491.494 300,482.5C 310.378,476.228 321.211,470.894 332.5,466.5 Z"/></g>
<g><path style="opacity:1" fill="#31a7eb" d="M 241.5,453.5 C 258.892,464.531 276.892,474.531 295.5,483.5C 295.827,492.682 295.493,501.682 294.5,510.5C 287.652,507.247 281.319,503.247 275.5,498.5C 264.356,492.532 253.856,485.532 244,477.5C 241.986,469.637 241.152,461.637 241.5,453.5 Z"/></g>
<g><path style="opacity:1" fill="#23acfc" d="M 275.5,498.5 C 275.5,497.5 275.5,496.5 275.5,495.5C 273.571,495.769 271.905,495.269 270.5,494C 271.833,492.333 271.833,490.667 270.5,489C 272.95,487.386 272.783,485.886 270,484.5C 266.95,485.391 266.616,484.391 269,481.5C 270.156,482.993 270.99,482.826 271.5,481C 270.978,480.05 270.311,479.216 269.5,478.5C 272.111,477.62 274.778,476.954 277.5,476.5C 279.397,476.728 280.73,477.728 281.5,479.5C 283.396,480.466 285.396,480.799 287.5,480.5C 287.338,482.527 287.505,484.527 288,486.5C 290.007,485.331 292.173,484.665 294.5,484.5C 294.666,489.179 294.499,493.845 294,498.5C 292.117,499.653 291.284,501.319 291.5,503.5C 290.448,503.649 289.448,503.483 288.5,503C 288.833,502.667 289.167,502.333 289.5,502C 288.333,501.5 287.5,500.667 287,499.5C 285.401,501.036 283.567,501.536 281.5,501C 279.641,499.442 278.141,497.609 277,495.5C 276.768,496.737 276.268,497.737 275.5,498.5 Z"/></g>
<g><path style="opacity:1" fill="#71bbe2" d="M 323.5,462.5 C 324.347,463.966 325.68,464.8 327.5,465C 317.562,468.968 308.229,473.968 299.5,480C 296.519,480.838 294.186,480.005 292.5,477.5C 296.626,477.428 300.626,476.761 304.5,475.5C 304.5,474.5 304.5,473.5 304.5,472.5C 306.199,472.66 307.866,472.494 309.5,472C 312.682,469.909 316.015,468.075 319.5,466.5C 316.511,464.844 314.177,462.511 312.5,459.5C 305.373,456.356 298.04,453.856 290.5,452C 289.359,451.259 289.359,450.425 290.5,449.5C 284.687,445.583 278.354,443.416 271.5,443C 270.324,447.203 267.658,448.036 263.5,445.5C 260.49,446.269 257.49,447.103 254.5,448C 253.755,450.571 253.421,453.071 253.5,455.5C 254.714,457.069 256.381,457.902 258.5,458C 257.944,458.383 257.611,458.883 257.5,459.5C 252.535,457.351 247.868,454.684 243.5,451.5C 244.058,450.21 245.058,449.377 246.5,449C 256.272,445.7 266.105,442.534 276,439.5C 291.493,448.043 307.327,455.71 323.5,462.5 Z"/></g>
<g><path style="opacity:1" fill="#24acfd" d="M 246.5,461.5 C 248.314,461.772 250.314,461.939 252.5,462C 253.796,464.761 254.963,467.595 256,470.5C 259.561,469.516 262.728,470.349 265.5,473C 267.557,473.305 269.557,473.305 271.5,473C 269.377,475.799 266.71,477.799 263.5,479C 267.335,480.731 267.002,482.065 262.5,483C 263.833,483.333 265.167,483.667 266.5,484C 265.027,484.71 264.36,485.876 264.5,487.5C 260.839,487.65 259.839,486.15 261.5,483C 255.004,483.154 249.837,480.654 246,475.5C 243.926,470.607 244.092,465.94 246.5,461.5 Z"/></g>
<g><path style="opacity:1" fill="#68c8fb" d="M 292.5,477.5 C 280.638,471.736 268.971,465.736 257.5,459.5C 257.611,458.883 257.944,458.383 258.5,458C 256.381,457.902 254.714,457.069 253.5,455.5C 253.421,453.071 253.755,450.571 254.5,448C 257.49,447.103 260.49,446.269 263.5,445.5C 267.658,448.036 270.324,447.203 271.5,443C 278.354,443.416 284.687,445.583 290.5,449.5C 289.359,450.425 289.359,451.259 290.5,452C 298.04,453.856 305.373,456.356 312.5,459.5C 314.177,462.511 316.511,464.844 319.5,466.5C 316.015,468.075 312.682,469.909 309.5,472C 307.866,472.494 306.199,472.66 304.5,472.5C 304.5,473.5 304.5,474.5 304.5,475.5C 300.626,476.761 296.626,477.428 292.5,477.5 Z"/></g>
<g><path style="opacity:0.788" fill="#636363" d="M 317.5,504.5 C 316.101,505.89 314.434,506.89 312.5,507.5C 313.345,504.588 315.012,503.588 317.5,504.5 Z"/></g>
<g><path style="opacity:0.424" fill="#857778" d="M 278.5,506.5 C 280.027,506.427 281.027,507.094 281.5,508.5C 279.973,508.573 278.973,507.906 278.5,506.5 Z"/></g>
</svg>
